<?xml version="1.0" encoding="UTF-8" standalone="no"?>
<!-- Generator: Adobe Illustrator 23.1.0, SVG Export Plug-In . SVG Version: 6.00 Build 0)  -->

<svg
   version="1.1"
   id="Logo"
   x="0px"
   y="0px"
   viewBox="0 0 4069.8502 468.53631"
   xml:space="preserve"
   sodipodi:docname="logo-just-rhmk-white.svg"
   inkscape:version="1.1.1 (3bf5ae0d25, 2021-09-20, custom)"
   width="4069.8503"
   height="468.53632"
   xmlns:inkscape="http://www.inkscape.org/namespaces/inkscape"
   xmlns:sodipodi="http://sodipodi.sourceforge.net/DTD/sodipodi-0.dtd"
   xmlns="http://www.w3.org/2000/svg"
   xmlns:svg="http://www.w3.org/2000/svg"><defs
   id="defs46" />
<style
   type="text/css"
   id="style2">
	.st0{fill:#005E8A;}
	.st1{fill:#AAAAAA;}
</style>
<sodipodi:namedview
   bordercolor="#666666"
   borderopacity="1"
   gridtolerance="10"
   guidetolerance="10"
   id="namedview85"
   inkscape:current-layer="Logo"
   inkscape:cx="493.49046"
   inkscape:cy="2210.6768"
   inkscape:pageopacity="0"
   inkscape:pageshadow="2"
   inkscape:window-height="984"
   inkscape:window-maximized="1"
   inkscape:window-width="1912"
   inkscape:window-x="1920"
   inkscape:window-y="0"
   inkscape:zoom="0.12462247"
   objecttolerance="10"
   pagecolor="#ffffff"
   showgrid="false"
   inkscape:pagecheckerboard="0"
   fit-margin-top="0"
   fit-margin-left="0"
   fit-margin-right="0"
   fit-margin-bottom="0">
	</sodipodi:namedview>

























<path
   id="path54"
   class="st0"
   d="M 0,460.81121 V 5.351068 h 234.6504 c 43.4538,0 76.6074,3.86256 99.7828,11.265798 22.5315,7.081359 42.1662,21.887837 55.6852,41.522515 14.1627,20.278437 21.244,44.741319 21.244,73.710509 0,25.42852 -5.4719,46.99447 -16.0939,65.34162 -10.9439,18.34716 -26.0723,33.7974 -44.4194,44.41945 -11.9096,7.40323 -28.6474,13.19707 -49.5696,18.02527 16.7378,5.47196 28.9692,11.2658 36.6943,16.73776 5.1502,3.86256 12.5534,11.58768 22.5317,23.81912 7.4033,8.69076 14.1627,18.34717 19.6346,28.32544 l 68.2386,131.97078 H 289.0482 l -75.32,-139.05214 C 204.0718,303.4119 195.703,291.82423 188.2997,286.35226 178.3215,279.27091 166.09,275.73022 153.8585,275.73022 H 141.3052 V 460.48933 Z M 141.6271,189.78828 h 59.2259 c 6.4377,0 18.9909,-1.93128 37.3381,-6.11572 9.0126,-1.6094 17.3815,-6.75948 22.8535,-14.16273 5.7938,-7.40322 9.0126,-16.73774 9.0126,-26.39414 0,-14.80649 -4.5063,-26.07228 -13.8409,-33.7974 -9.3344,-7.72512 -26.716,-11.90956 -52.4663,-11.90956 h -62.1229 z"
   style="stroke-width:3.21879;fill:#ffffff" />
<path
   id="path56"
   class="st0"
   d="M 445.8036,5.351068 H 572.3025 V 173.05052 c 17.0595,-17.70339 34.1192,-30.57859 51.1789,-38.30371 18.9909,-8.047 39.5912,-11.90956 60.1915,-11.2658 34.4413,0 61.4791,10.30016 81.1137,31.22236 19.6347,20.92219 29.613,52.7883 29.613,96.2421 V 460.81121 H 667.2571 v -181.5403 c 0,-20.60032 -3.8626,-35.4068 -11.5877,-44.09756 -7.7251,-8.69076 -18.3472,-12.8752 -32.188,-12.8752 -14.4847,-0.32187 -28.3255,6.11572 -37.3381,17.38152 -9.6564,11.58769 -14.1627,32.50987 -14.1627,62.44472 V 460.48933 H 445.4818 V 5.351068 Z"
   style="stroke-width:3.21879;fill:#ffffff" />
<path
   id="path58"
   class="st0"
   d="M 1197.7153,327.23103 H 944.0739 c 2.2531,20.27844 7.7251,35.4068 16.4158,45.38507 11.9095,14.16273 29.2911,21.88784 47.96,21.24408 12.5535,0 24.463,-3.2188 35.4069,-9.33453 8.6908,-5.47194 16.094,-12.55331 22.2097,-20.92218 l 124.5675,11.58767 c -18.9908,33.15364 -42.1662,56.97275 -68.8822,71.45735 -27.0379,14.4846 -65.6636,21.56596 -115.8768,21.56596 -43.7757,0 -77.895,-6.11573 -103.0016,-18.34716 -25.1067,-12.23143 -45.7069,-31.86611 -62.4448,-58.58216 -16.4158,-26.71603 -24.7847,-58.26026 -24.7847,-94.63271 0,-51.50079 16.4159,-93.34518 49.5696,-125.2113 33.1536,-31.86612 78.5387,-47.96011 136.7989,-47.63823 47.3163,0 84.3326,7.08135 112.0143,21.56595 26.7159,13.84084 48.6038,35.4068 62.4447,62.12283 14.1626,27.03792 21.5658,62.44472 21.5658,105.89851 v 13.84085 z M 1068.9632,266.3957 c -2.575,-24.46287 -9.0126,-41.84438 -19.6347,-52.46642 -10.6219,-10.62204 -24.7848,-15.77213 -42.1662,-15.77213 -18.9909,-0.64375 -37.3381,8.36888 -48.282,23.81913 -7.7252,9.97827 -12.5533,24.78475 -14.4846,44.41942 z"
   style="stroke-width:3.21879;fill:#ffffff" />
<rect
   id="rect60"
   x="1221.5343"
   y="130.88428"
   class="st0"
   width="126.49882"
   height="329.92697"
   style="stroke-width:3.21879;fill:#ffffff" />
<path
   id="path62"
   class="st0"
   d="m 1390.1994,130.88424 h 117.8081 v 53.75396 c 17.7034,-21.88784 35.4068,-37.65996 53.432,-46.99448 18.0253,-9.33452 39.9132,-14.16271 65.6635,-14.16271 35.0853,0 62.4452,10.30016 82.0799,31.22236 19.9564,20.92219 29.6129,53.11018 29.6129,96.56399 v 209.86573 h -127.143 v -181.5403 c 0,-20.60031 -3.8626,-35.4068 -11.5877,-44.09756 -7.7252,-8.69076 -18.3471,-12.87519 -32.188,-12.87519 -14.4845,-0.32189 -28.3253,6.11571 -37.3381,17.38152 -9.6564,11.58767 -14.1626,32.50987 -14.1626,62.4447 v 158.36495 h -126.177 z"
   style="stroke-width:3.21879;fill:#ffffff" />
<path
   id="path64"
   class="st0"
   d="M 2141.7894,327.23103 H 1888.148 c 2.2532,20.27844 7.7252,35.4068 16.4159,45.38507 11.9095,14.16273 29.291,21.88784 47.9602,21.24408 12.5532,0 24.4628,-3.2188 35.4067,-9.33453 8.6908,-5.47194 16.094,-12.55331 21.8879,-20.92218 l 124.5676,11.58767 c -18.9911,33.15364 -42.1664,56.97275 -68.8824,71.45735 -26.7161,14.4846 -65.6635,21.56596 -115.8768,21.56596 -43.7757,0 -77.8949,-6.11573 -103.0016,-18.34716 -25.1067,-12.23143 -45.7069,-31.86611 -62.1227,-58.58216 -16.416,-26.71603 -24.7849,-58.26026 -24.7849,-94.63271 0,-51.50079 16.4159,-93.34518 49.5695,-125.2113 33.1537,-31.86612 78.5387,-47.96011 136.799,-47.63823 47.3164,0 84.3325,7.08135 112.0142,21.56595 26.7161,13.84084 48.604,35.4068 62.4448,62.12283 14.1627,27.03792 21.244,62.44472 21.5659,105.89851 v 13.84085 z M 2013.3593,266.3957 c -2.575,-24.46287 -9.0126,-41.84438 -19.6347,-52.46642 -10.622,-10.62204 -24.7847,-15.77213 -42.1662,-15.77213 -18.9909,-0.64375 -37.3381,8.36888 -48.282,23.81913 -7.7251,9.97827 -12.5533,24.78475 -14.4846,44.41942 z"
   style="stroke-width:3.21879;fill:#ffffff" />
<path
   id="path66"
   class="st0"
   d="m 2162.3898,130.88424 h 118.4518 v 54.07584 c 11.2657,-23.49723 23.1753,-39.59124 35.4069,-48.282 12.2313,-8.69076 27.0378,-13.19707 44.7411,-13.19707 18.6692,0 38.9476,5.79383 61.1573,17.38152 l -39.2694,90.12638 c -14.8064,-6.11572 -26.716,-9.33451 -35.4068,-9.33451 -15.7721,-0.64376 -30.2567,7.40323 -38.6256,20.60031 -13.1971,19.3128 -19.6346,55.36336 -19.6346,108.15168 v 110.7267 h -127.1426 z"
   style="stroke-width:3.21879;fill:#ffffff" />
<path
   id="path68"
   class="st0"
   d="m 2437.2753,130.88424 h 118.1298 v 48.28199 c 17.0597,-19.95655 34.1194,-34.44114 51.5008,-42.81002 17.3815,-8.36889 38.3038,-12.8752 62.7667,-12.55332 26.3942,0 47.3163,4.50631 62.4447,13.84083 16.094,10.30016 29.2911,24.46289 37.66,41.52251 19.9565,-21.56595 37.9817,-36.05054 54.3976,-44.09754 16.4159,-7.72513 36.3725,-11.58768 60.5135,-11.58768 35.4068,0 63.0885,10.62204 82.7232,31.54423 19.9565,20.9222 29.613,53.75395 29.613,98.49527 v 207.2907 h -126.8208 v -187.9779 c 0,-14.80648 -2.8969,-26.07228 -8.6908,-33.15364 -8.3688,-11.2658 -18.9909,-17.05963 -31.5442,-17.05963 -13.8409,-0.32189 -27.0379,5.47194 -36.0505,16.09399 -9.0128,10.62205 -13.519,28.00356 -13.519,51.82267 v 170.27451 h -126.8207 v -181.5403 c 0,-14.4846 -0.9656,-24.46288 -2.5751,-29.61295 -2.575,-8.047 -7.4032,-15.12837 -13.8407,-19.95656 -6.7596,-5.15008 -15.1285,-7.72512 -23.4973,-7.72512 -13.8409,-0.32188 -27.038,5.79383 -35.7287,16.41587 -9.3346,10.94393 -14.1627,28.96919 -14.1627,54.07583 v 168.34323 h -126.8207 z"
   style="stroke-width:3.21879;fill:#ffffff" />
<path
   id="path70"
   class="st0"
   d="m 3148.9518,237.74838 -120.705,-12.87519 c 4.5064,-20.9222 10.944,-37.65995 19.6347,-49.89139 9.9782,-13.19708 22.5317,-23.81911 37.0162,-31.54423 11.5877,-6.4376 27.6817,-11.26579 47.9601,-14.80648 21.8878,-3.54068 43.7757,-5.47196 65.9854,-5.15008 37.9818,0 68.2386,2.25316 91.4139,6.43759 21.2441,3.54069 41.2007,12.55333 57.6165,26.71604 10.6221,9.33452 19.3128,22.53159 25.4286,39.59123 5.7938,15.77213 9.0125,32.188 9.3345,48.92576 v 145.81163 c -0.322,12.23144 0.6438,24.46288 2.8969,36.37244 2.8969,11.58767 7.4033,22.85347 12.8752,33.79739 h -118.7737 c -3.5407,-6.11571 -6.7595,-12.55332 -9.3345,-19.3128 -1.9313,-6.75947 -3.5407,-13.84083 -4.1845,-20.9222 -14.1626,14.4846 -30.9005,26.07228 -49.2476,34.11929 -22.5317,9.01263 -48.282,13.51895 -77.895,13.51895 -39.2693,0 -69.2042,-9.01264 -89.4826,-27.3598 -19.6346,-16.73776 -30.9005,-41.52251 -30.5786,-67.27291 0,-25.10663 7.4032,-45.70694 22.2098,-61.80096 14.8064,-16.094 41.8443,-28.32544 81.4356,-36.05056 47.3163,-9.6564 78.2168,-16.09398 92.3795,-19.95655 15.1283,-4.18444 29.9348,-9.33452 44.7413,-15.12835 0,-15.45025 -3.2188,-26.39417 -9.6563,-32.50989 -6.4377,-6.11571 -17.7034,-9.33452 -33.7975,-9.6564 -20.6003,0 -36.3724,3.21881 -46.6726,9.97828 -9.0126,4.8282 -15.4502,14.4846 -20.6003,28.96919 z m 109.7611,66.30729 c -17.3816,6.11571 -35.4069,11.58767 -54.3978,16.41589 -25.7503,6.75947 -42.1662,13.51895 -48.9256,20.27843 -13.1972,12.23144 -14.1627,32.50987 -1.9313,45.70695 0.6437,0.64376 1.2874,1.28753 1.9313,1.93128 7.0813,6.43759 17.0595,9.33452 30.5785,9.33452 13.8409,0 27.3598,-3.54069 39.2693,-10.30016 10.944,-5.79384 19.9566,-14.4846 25.7504,-25.10664 5.1502,-9.97827 7.7252,-22.53159 7.7252,-38.30372 z"
   style="stroke-width:3.21879;fill:#ffffff" />
<path
   id="path72"
   class="st0"
   d="m 3420.6185,130.88424 h 118.4518 v 54.07584 c 11.2658,-23.49723 23.1753,-39.59124 35.4069,-48.282 12.2314,-8.69076 27.0378,-13.19707 44.7412,-13.19707 18.6691,0 38.9476,5.79383 61.1572,17.38152 l -39.2694,90.12638 c -14.8064,-6.11572 -26.716,-9.33451 -35.4067,-9.33451 -15.7722,-0.64376 -30.2568,7.40323 -38.6256,20.60031 -13.1971,19.3128 -19.6347,55.36336 -19.6347,108.15168 v 110.7267 h -127.1425 z"
   style="stroke-width:3.21879;fill:#ffffff" />
<path
   id="path74"
   class="st0"
   d="M 3683.9163,5.351068 H 3813.312 V 240.32343 l 94.3109,-109.43919 h 155.468 l -118.4518,115.55491 125.2113,214.37206 h -142.271 l -66.951,-132.29266 -47.6382,46.67259 v 85.62007 h -129.3958 z"
   style="stroke-width:3.21879;fill:#ffffff" />


<path
   id="path78_3_-3"
   inkscape:connector-curvature="0"
   class="st0"
   d="m 1343.2324,94.47273 h -123.8139 c 0,0 49.977,-28.696497 123.8139,-94.47273 z"
   style="fill:#ffffff;stroke-width:3.22434" /></svg>
