<?xml version="1.0" encoding="UTF-8" standalone="no"?>
<!-- Generator: Adobe Illustrator 23.1.0, SVG Export Plug-In . SVG Version: 6.00 Build 0)  -->

<svg
   version="1.1"
   id="Logo"
   x="0px"
   y="0px"
   viewBox="0 0 706.46765 456.9712"
   xml:space="preserve"
   sodipodi:docname="logo-just-glider-white.svg"
   inkscape:version="1.1.1 (3bf5ae0d25, 2021-09-20, custom)"
   width="706.46771"
   height="456.97122"
   xmlns:inkscape="http://www.inkscape.org/namespaces/inkscape"
   xmlns:sodipodi="http://sodipodi.sourceforge.net/DTD/sodipodi-0.dtd"
   xmlns="http://www.w3.org/2000/svg"
   xmlns:svg="http://www.w3.org/2000/svg"><defs
   id="defs46" />
<style
   type="text/css"
   id="style2">
	.st0{fill:#005E8A;}
	.st1{fill:#AAAAAA;}
</style>
<sodipodi:namedview
   bordercolor="#666666"
   borderopacity="1"
   gridtolerance="10"
   guidetolerance="10"
   id="namedview85"
   inkscape:current-layer="Logo"
   inkscape:cx="618.86915"
   inkscape:cy="269.81491"
   inkscape:pageopacity="0"
   inkscape:pageshadow="2"
   inkscape:window-height="984"
   inkscape:window-maximized="1"
   inkscape:window-width="1912"
   inkscape:window-x="1920"
   inkscape:window-y="0"
   inkscape:zoom="0.49848987"
   objecttolerance="10"
   pagecolor="#ffffff"
   showgrid="false"
   inkscape:pagecheckerboard="0"
   fit-margin-top="0"
   fit-margin-left="0"
   fit-margin-right="0"
   fit-margin-bottom="0">
	</sodipodi:namedview>






































<g
   id="g82"
   transform="matrix(1.0017166,0,0,1.0017166,-428.97806,-1.0136042)"
   style="fill:#ffffff"><path
     id="path78_2_"
     inkscape:connector-curvature="0"
     class="st0"
     d="M 477.42398,457.20001 C 516.37306,437.25857 586.8,353.6 615.7,301.5 c 0,0 -119.8,17.1 -183.4,1.3 -2.9,-0.7 -4.6,-3.7 -3.9,-6.5 0.2,-0.8 0.6,-1.6 1.2,-2.3 9.1,-10.2 28.2,-21.2 52.3,-31.1 v 0.2 c 1.7,9.2 4.3,25.2 48.1,14.8 l 65.7,-11.8 c 8.8,-1.6 16.1,-7.8 19.1,-16.2 l 4.6,-18.2 c 4.4,-0.2 8.8,-0.2 13,-0.1 L 664,107.1 c 13.7,-40.5 22.6,-52 38.3,-73.8 3.2,-4.4 5.4,-7.5 5.4,-7.5 1.3,-2.6 3,-4.8 5.1,-6.8 0.5,-0.4 0.8,-1 1.1,-1.5 7.9,-20 12.9,-16.2 12.9,-16.2 l -7.1,18.8 -17.3,48.7 v 0 c -7.2,27.5 -16.3,61.4 -18.9,127.4 l -0.8,37.9 c 0,0 65.9,14.6 338.7,-7.7 2.8,-0.2 5.2,-2.1 6.2,-4.7 l 34.7,-93.5 c 1.2,-0.4 -26.1,-12.3 -26.7,-14.9 -0.9,-4.5 26,-2.2 26,-2.2 l 36.1,11.3 16.3,-1.9 c 0.3,0 0.7,0.2 0.7,0.5 v 0.1 6.7 l 18.8,8.1 c -5.8,2.9 -12.6,3.6 -18.8,1.8 l 1.1,84 c 0,0.5 -0.3,0.9 -0.8,1.1 l -23.8,8.3 c -0.7,0.3 -1.5,0.4 -2.3,0.5 -3.3,0.4 -13.6,2.2 -18.3,9.6 -0.3,0.5 -0.8,0.8 -1.3,1 -1.5,0.4 -4.9,0.5 -9.9,-4.5 -0.4,-0.4 -0.9,-0.6 -1.4,-0.6 -18.3,1.3 -326.2,24.3 -374.9,46.4 0,0 -14,120.2 -48.1,173.7 H 529.8 Z"
     sodipodi:nodetypes="cccsccccccccccccccccscccccccccsccccccccccsccccc"
     style="fill:#ffffff" /></g><path
   id="path78_4_"
   inkscape:connector-curvature="0"
   class="st1"
   d="m 55.70158,262.51147 c 0,0.1 0,0.2 0,0.2 1.7,9.2 4.3,25.2 48.19997,14.8 l 65.8,-11.8 c 8.8,-1.6 16.1,-7.8 19.1,-16.2 l 4.6,-18.2 c -46.5,5 -92.09999,12.5 -137.69997,31.2 z"
   style="fill:#aaaaaa" /></svg>
