<?xml version="1.0" encoding="UTF-8" standalone="no"?>
<!-- Generator: Adobe Illustrator 23.1.0, SVG Export Plug-In . SVG Version: 6.00 Build 0)  -->

<svg
   version="1.1"
   id="Logo"
   x="0px"
   y="0px"
   viewBox="0 0 1264.4 576.91148"
   xml:space="preserve"
   sodipodi:docname="logo-rhmk.svg"
   inkscape:version="1.1.1 (3bf5ae0d25, 2021-09-20, custom)"
   width="1264.4"
   height="576.9115"
   xmlns:inkscape="http://www.inkscape.org/namespaces/inkscape"
   xmlns:sodipodi="http://sodipodi.sourceforge.net/DTD/sodipodi-0.dtd"
   xmlns="http://www.w3.org/2000/svg"
   xmlns:svg="http://www.w3.org/2000/svg"><defs
   id="defs46" />
<style
   type="text/css"
   id="style2">
	.st0{fill:#005E8A;}
	.st1{fill:#AAAAAA;}
</style>
<sodipodi:namedview
   bordercolor="#666666"
   borderopacity="1"
   gridtolerance="10"
   guidetolerance="10"
   id="namedview85"
   inkscape:current-layer="Logo"
   inkscape:cx="624.88732"
   inkscape:cy="486.46926"
   inkscape:pageopacity="0"
   inkscape:pageshadow="2"
   inkscape:window-height="984"
   inkscape:window-maximized="1"
   inkscape:window-width="1912"
   inkscape:window-x="1920"
   inkscape:window-y="0"
   inkscape:zoom="0.49848987"
   objecttolerance="10"
   pagecolor="#ffffff"
   showgrid="false"
   inkscape:pagecheckerboard="0"
   fit-margin-top="0"
   fit-margin-left="0"
   fit-margin-right="0"
   fit-margin-bottom="0">
	</sodipodi:namedview>

























<path
   id="path54"
   class="st0"
   d="m 0,574.51147 v -141.5 h 72.9 c 13.5,0 23.8,1.2 31,3.5 7,2.2 13.1,6.8 17.3,12.9 4.4,6.3 6.6,13.9 6.6,22.9 0,7.9 -1.7,14.6 -5,20.3 -3.4,5.7 -8.1,10.5 -13.8,13.8 -3.7,2.3 -8.9,4.1 -15.4,5.6 5.2,1.7 9,3.5 11.4,5.2 1.6,1.2 3.9,3.6 7,7.4 2.3,2.7 4.4,5.7 6.1,8.8 l 21.2,41 H 89.8 l -23.4,-43.2 c -3,-5.6 -5.6,-9.2 -7.9,-10.9 -3.1,-2.2 -6.9,-3.3 -10.7,-3.3 h -3.9 v 57.4 z m 44,-84.2 h 18.4 c 2,0 5.9,-0.6 11.6,-1.9 2.8,-0.5 5.4,-2.1 7.1,-4.4 1.8,-2.3 2.8,-5.2 2.8,-8.2 0,-4.6 -1.4,-8.1 -4.3,-10.5 -2.9,-2.4 -8.3,-3.7 -16.3,-3.7 H 44 Z" />
<path
   id="path56"
   class="st0"
   d="m 138.5,433.01147 h 39.3 v 52.1 c 5.3,-5.5 10.6,-9.5 15.9,-11.9 5.9,-2.5 12.3,-3.7 18.7,-3.5 10.7,0 19.1,3.2 25.2,9.7 6.1,6.5 9.2,16.4 9.2,29.9 v 65.2 h -39.5 v -56.4 c 0,-6.4 -1.2,-11 -3.6,-13.7 -2.4,-2.7 -5.7,-4 -10,-4 -4.5,-0.1 -8.8,1.9 -11.6,5.4 -3,3.6 -4.4,10.1 -4.4,19.4 v 49.2 h -39.3 v -141.4 z" />
<path
   id="path58"
   class="st0"
   d="m 372.1,533.01147 h -78.8 c 0.7,6.3 2.4,11 5.1,14.1 3.7,4.4 9.1,6.8 14.9,6.6 3.9,0 7.6,-1 11,-2.9 2.7,-1.7 5,-3.9 6.9,-6.5 l 38.7,3.6 c -5.9,10.3 -13.1,17.7 -21.4,22.2 -8.4,4.5 -20.4,6.7 -36,6.7 -13.6,0 -24.2,-1.9 -32,-5.7 -7.8,-3.8 -14.2,-9.9 -19.4,-18.2 -5.1,-8.3 -7.7,-18.1 -7.7,-29.4 0,-16 5.1,-29 15.4,-38.9 10.3,-9.9 24.4,-14.9 42.5,-14.8 14.7,0 26.2,2.2 34.8,6.7 8.3,4.3 15.1,11 19.4,19.3 4.4,8.4 6.7,19.4 6.7,32.9 v 4.3 z m -40,-18.9 c -0.8,-7.6 -2.8,-13 -6.1,-16.3 -3.3,-3.3 -7.7,-4.9 -13.1,-4.9 -5.9,-0.2 -11.6,2.6 -15,7.4 -2.4,3.1 -3.9,7.7 -4.5,13.8 z" />
<rect
   id="rect60"
   x="379.5"
   y="472.01147"
   class="st0"
   width="39.299999"
   height="102.5" />
<path
   id="path62"
   class="st0"
   d="m 431.9,472.01147 h 36.6 v 16.7 c 5.5,-6.8 11,-11.7 16.6,-14.6 5.6,-2.9 12.4,-4.4 20.4,-4.4 10.9,0 19.4,3.2 25.5,9.7 6.2,6.5 9.2,16.5 9.2,30 v 65.2 h -39.5 v -56.4 c 0,-6.4 -1.2,-11 -3.6,-13.7 -2.4,-2.7 -5.7,-4 -10,-4 -4.5,-0.1 -8.8,1.9 -11.6,5.4 -3,3.6 -4.4,10.1 -4.4,19.4 v 49.2 h -39.2 z" />
<path
   id="path64"
   class="st0"
   d="m 665.4,533.01147 h -78.8 c 0.7,6.3 2.4,11 5.1,14.1 3.7,4.4 9.1,6.8 14.9,6.6 3.9,0 7.6,-1 11,-2.9 2.7,-1.7 5,-3.9 6.8,-6.5 l 38.7,3.6 c -5.9,10.3 -13.1,17.7 -21.4,22.2 -8.3,4.5 -20.4,6.7 -36,6.7 -13.6,0 -24.2,-1.9 -32,-5.7 -7.8,-3.8 -14.2,-9.9 -19.3,-18.2 -5.1,-8.3 -7.7,-18.1 -7.7,-29.4 0,-16 5.1,-29 15.4,-38.9 10.3,-9.9 24.4,-14.9 42.5,-14.8 14.7,0 26.2,2.2 34.8,6.7 8.3,4.3 15.1,11 19.4,19.3 4.4,8.4 6.6,19.4 6.7,32.9 v 4.3 z m -39.9,-18.9 c -0.8,-7.6 -2.8,-13 -6.1,-16.3 -3.3,-3.3 -7.7,-4.9 -13.1,-4.9 -5.9,-0.2 -11.6,2.6 -15,7.4 -2.4,3.1 -3.9,7.7 -4.5,13.8 z" />
<path
   id="path66"
   class="st0"
   d="m 671.8,472.01147 h 36.8 v 16.8 c 3.5,-7.3 7.2,-12.3 11,-15 3.8,-2.7 8.4,-4.1 13.9,-4.1 5.8,0 12.1,1.8 19,5.4 l -12.2,28 c -4.6,-1.9 -8.3,-2.9 -11,-2.9 -4.9,-0.2 -9.4,2.3 -12,6.4 -4.1,6 -6.1,17.2 -6.1,33.6 v 34.4 h -39.5 z" />
<path
   id="path68"
   class="st0"
   d="m 757.2,472.01147 h 36.7 v 15 c 5.3,-6.2 10.6,-10.7 16,-13.3 5.4,-2.6 11.9,-4 19.5,-3.9 8.2,0 14.7,1.4 19.4,4.3 5,3.2 9.1,7.6 11.7,12.9 6.2,-6.7 11.8,-11.2 16.9,-13.7 5.1,-2.4 11.3,-3.6 18.8,-3.6 11,0 19.6,3.3 25.7,9.8 6.2,6.5 9.2,16.7 9.2,30.6 v 64.4 h -39.4 v -58.4 c 0,-4.6 -0.9,-8.1 -2.7,-10.3 -2.6,-3.5 -5.9,-5.3 -9.8,-5.3 -4.3,-0.1 -8.4,1.7 -11.2,5 -2.8,3.3 -4.2,8.7 -4.2,16.1 v 52.9 h -39.4 v -56.4 c 0,-4.5 -0.3,-7.6 -0.8,-9.2 -0.8,-2.5 -2.3,-4.7 -4.3,-6.2 -2.1,-1.6 -4.7,-2.4 -7.3,-2.4 -4.3,-0.1 -8.4,1.8 -11.1,5.1 -2.9,3.4 -4.4,9 -4.4,16.8 v 52.3 h -39.4 z" />
<path
   id="path70"
   class="st0"
   d="m 978.3,505.21147 -37.5,-4 c 1.4,-6.5 3.4,-11.7 6.1,-15.5 3.1,-4.1 7,-7.4 11.5,-9.8 3.6,-2 8.6,-3.5 14.9,-4.6 6.8,-1.1 13.6,-1.7 20.5,-1.6 11.8,0 21.2,0.7 28.4,2 6.6,1.1 12.8,3.9 17.9,8.3 3.3,2.9 6,7 7.9,12.3 1.8,4.9 2.8,10 2.9,15.2 v 45.3 c -0.1,3.8 0.2,7.6 0.9,11.3 0.9,3.6 2.3,7.1 4,10.5 h -36.9 c -1.1,-1.9 -2.1,-3.9 -2.9,-6 -0.6,-2.1 -1.1,-4.3 -1.3,-6.5 -4.4,4.5 -9.6,8.1 -15.3,10.6 -7,2.8 -15,4.2 -24.2,4.2 -12.2,0 -21.5,-2.8 -27.8,-8.5 -6.1,-5.2 -9.6,-12.9 -9.5,-20.9 0,-7.8 2.3,-14.2 6.9,-19.2 4.6,-5 13,-8.8 25.3,-11.2 14.7,-3 24.3,-5 28.7,-6.2 4.7,-1.3 9.3,-2.9 13.9,-4.7 0,-4.8 -1,-8.2 -3,-10.1 -2,-1.9 -5.5,-2.9 -10.5,-3 -6.4,0 -11.3,1 -14.5,3.1 -2.8,1.5 -4.8,4.5 -6.4,9 z m 34.1,20.6 c -5.4,1.9 -11,3.6 -16.9,5.1 -8,2.1 -13.1,4.2 -15.2,6.3 -4.1,3.8 -4.4,10.1 -0.6,14.2 0.2,0.2 0.4,0.4 0.6,0.6 2.2,2 5.3,2.9 9.5,2.9 4.3,0 8.5,-1.1 12.2,-3.2 3.4,-1.8 6.2,-4.5 8,-7.8 1.6,-3.1 2.4,-7 2.4,-11.9 z" />
<path
   id="path72"
   class="st0"
   d="m 1062.7,472.01147 h 36.8 v 16.8 c 3.5,-7.3 7.2,-12.3 11,-15 3.8,-2.7 8.4,-4.1 13.9,-4.1 5.8,0 12.1,1.8 19,5.4 l -12.2,28 c -4.6,-1.9 -8.3,-2.9 -11,-2.9 -4.9,-0.2 -9.4,2.3 -12,6.4 -4.1,6 -6.1,17.2 -6.1,33.6 v 34.4 h -39.5 z" />
<path
   id="path74"
   class="st0"
   d="m 1144.5,433.01147 h 40.2 v 73 l 29.3,-34 h 48.3 l -36.8,35.9 38.9,66.6 h -44.2 l -20.8,-41.1 -14.8,14.5 v 26.6 h -40.2 z" />
<g
   id="g82"
   transform="matrix(1.0017166,0,0,1.0017166,-98.77961,-1.0136042)">
	
	<path
   id="path78_2_"
   inkscape:connector-curvature="0"
   class="st0"
   d="m 529.8,415.7 c 25.5,-24.9 57,-62.1 85.9,-114.2 0,0 -119.8,17.1 -183.4,1.3 -2.9,-0.7 -4.6,-3.7 -3.9,-6.5 0.2,-0.8 0.6,-1.6 1.2,-2.3 9.1,-10.2 28.2,-21.2 52.3,-31.1 0,0.1 0,0.2 0,0.2 1.7,9.2 4.3,25.2 48.1,14.8 l 65.7,-11.8 c 8.8,-1.6 16.1,-7.8 19.1,-16.2 l 4.6,-18.2 c 4.4,-0.2 8.8,-0.2 13,-0.1 L 664,107.1 c 13.7,-40.5 22.6,-52 38.3,-73.8 3.2,-4.4 5.4,-7.5 5.4,-7.5 1.3,-2.6 3,-4.8 5.1,-6.8 0.5,-0.4 0.8,-1 1.1,-1.5 7.9,-20 12.9,-16.2 12.9,-16.2 l -7.1,18.8 -17.3,48.7 c 0,0 0,0 0,0 -7.2,27.5 -16.3,61.4 -18.9,127.4 l -0.8,37.9 c 0,0 65.9,14.6 338.7,-7.7 2.8,-0.2 5.2,-2.1 6.2,-4.7 l 34.7,-93.5 c 1.2,-0.4 -26.1,-12.3 -26.7,-14.9 -0.9,-4.5 26,-2.2 26,-2.2 l 36.1,11.3 16.3,-1.9 c 0.3,0 0.7,0.2 0.7,0.5 v 0.1 6.7 l 18.8,8.1 c -5.8,2.9 -12.6,3.6 -18.8,1.8 l 1.1,84 c 0,0.5 -0.3,0.9 -0.8,1.1 l -23.8,8.3 c -0.7,0.3 -1.5,0.4 -2.3,0.5 -3.3,0.4 -13.6,2.2 -18.3,9.6 -0.3,0.5 -0.8,0.8 -1.3,1 -1.5,0.4 -4.9,0.5 -9.9,-4.5 -0.4,-0.4 -0.9,-0.6 -1.4,-0.6 -18.3,1.3 -326.2,24.3 -374.9,46.4 0,0 -14,120.2 -48.1,173.7 H 529.8 Z" />
</g>
<path
   id="path78_4_"
   inkscape:connector-curvature="0"
   class="st1"
   d="m 383.9,262.51147 c 0,0.1 0,0.2 0,0.2 1.7,9.2 4.3,25.2 48.2,14.8 l 65.8,-11.8 c 8.8,-1.6 16.1,-7.8 19.1,-16.2 l 4.6,-18.2 c -46.5,5 -92.1,12.5 -137.7,31.2 z" />
<path
   id="path78_3_-3"
   inkscape:connector-curvature="0"
   class="st0"
   d="m 417.92984,456.97123 h -38.46592 c 0,0 15.52661,-8.91528 38.46592,-29.3503 z"
   style="fill:#005e8a;stroke-width:1.00172" /></svg>
