<?xml version="1.0" encoding="utf-8"?>
<!-- Generator: Adobe Illustrator 23.1.0, SVG Export Plug-In . SVG Version: 6.00 Build 0)  -->
<svg version="1.1"
	 id="svg2" xmlns:cc="http://creativecommons.org/ns#" xmlns:dc="http://purl.org/dc/elements/1.1/" xmlns:inkscape="http://www.inkscape.org/namespaces/inkscape" xmlns:rdf="http://www.w3.org/1999/02/22-rdf-syntax-ns#" xmlns:sodipodi="http://sodipodi.sourceforge.net/DTD/sodipodi-0.dtd" xmlns:svg="http://www.w3.org/2000/svg"
	 xmlns="http://www.w3.org/2000/svg" xmlns:xlink="http://www.w3.org/1999/xlink" x="0px" y="0px" viewBox="0 0 512 512"
	 style="enable-background:new 0 0 512 512;" xml:space="preserve">
<style type="text/css">
	.st0{fill:#FFFFFF;}
</style>
<g id="layer1" transform="translate(0,-540.3622)">
	<path id="path3766-1" class="st0" d="M171.7,705.5c-3.3,0.1-6.5,1.4-8.8,3.7l-36,36c-2.4,2.4-3.7,5.7-3.7,9c0,3.3,1.4,6.7,3.7,9
		L247,883.5c2.4,2.4,5.7,3.7,9,3.7c3.3,0,6.7-1.4,9-3.7l120.1-120.1c2.4-2.4,3.7-5.7,3.7-9c0-3.3-1.4-6.7-3.7-9l-36-36
		c-2.4-2.4-5.7-3.7-9-3.7s-6.6,1.4-9,3.7L256,784.3l-75.1-75.1C178.5,706.9,175.1,705.5,171.7,705.5z"/>
</g>
</svg>
