<?xml version="1.0" encoding="utf-8"?>
<!-- Generator: Adobe Illustrator 22.0.1, SVG Export Plug-In . SVG Version: 6.00 Build 0)  -->
<svg version="1.1" id="Ebene_1" xmlns="http://www.w3.org/2000/svg" xmlns:xlink="http://www.w3.org/1999/xlink" x="0px" y="0px"
	 viewBox="0 0 32 32" style="enable-background:new 0 0 32 32;" xml:space="preserve">
<style type="text/css">
	.st0{fill:#FFFFFF;}
</style>
<path class="st0" d="M22.1,7.9H9.9c-1.1,0-2,0.9-2,2v12.1c0,1.1,0.9,2,2,2h12.1c1.1,0,2-0.9,2-2V9.9C24.1,8.8,23.2,7.9,22.1,7.9z
	 M16,12.8c1.8,0,3.2,1.4,3.2,3.1s-1.5,3.1-3.2,3.1c-1.8,0-3.2-1.4-3.2-3.1C12.8,14.2,14.2,12.8,16,12.8z M22.1,21.6
	c0,0.4-0.2,0.5-0.5,0.5H10.4c-0.4,0-0.5-0.2-0.5-0.5v-7.1l1.3,0.3c-0.1,0.4-0.2,0.9-0.2,1.4c0,2.7,2.2,4.9,5,4.9c2.8,0,5-2.2,5-4.9
	c0-0.5-0.1-0.9-0.2-1.4l1.2-0.3L22.1,21.6L22.1,21.6z M22.1,12.5c0,0.3-0.2,0.5-0.5,0.5h-2c-0.3,0-0.5-0.2-0.5-0.5v-2
	c0-0.3,0.2-0.5,0.5-0.5h2c0.3,0,0.5,0.2,0.5,0.5C22.1,10.4,22.1,12.5,22.1,12.5z"/>
</svg>
