<?xml version="1.0" encoding="utf-8"?>
<!-- Generator: Adobe Illustrator 22.0.1, SVG Export Plug-In . SVG Version: 6.00 Build 0)  -->
<svg version="1.1" id="Ebene_1" xmlns="http://www.w3.org/2000/svg" xmlns:xlink="http://www.w3.org/1999/xlink" x="0px" y="0px"
	 viewBox="0 0 32 32" style="enable-background:new 0 0 32 32;" xml:space="preserve">
<style type="text/css">
	.st0{fill:#FFFFFF;}
</style>
<path class="st0" d="M16,5.5c-3.7,0-6.8,3-6.8,6.8c0,0.6,0.1,1.2,0.2,1.8c0.1,0.2,0.1,0.5,0.2,0.7l0.2,0.5L16,26.5l6.1-11.2l0.2-0.4
	c0.1-0.2,0.2-0.5,0.2-0.7c0.2-0.6,0.2-1.2,0.2-1.8C22.8,8.6,19.7,5.5,16,5.5z M16,15.2c-1.6,0-3-1.3-3-3s1.3-3,3-3s3,1.3,3,3
	C19,13.9,17.6,15.2,16,15.2z"/>
</svg>
