<?xml version="1.0" encoding="utf-8"?>
<!-- Generator: Adobe Illustrator 23.1.0, SVG Export Plug-In . SVG Version: 6.00 Build 0)  -->
<svg version="1.1" id="Ebene_1" xmlns="http://www.w3.org/2000/svg" xmlns:xlink="http://www.w3.org/1999/xlink" x="0px" y="0px"
	 viewBox="0 0 24 24" style="enable-background:new 0 0 24 24;" xml:space="preserve">
<style type="text/css">
	.st0{fill:#FFFFFF;}
</style>
<path class="st0" d="M14.5,11.5c1.7,0,3-1.3,3-3s-1.3-3-3-3c-0.3,0-0.6,0.1-0.9,0.1c0.6,0.9,0.9,1.8,0.9,2.9s-0.3,2-0.9,2.9
	C13.9,11.5,14.2,11.5,14.5,11.5z M9.5,11.5c1.7,0,3-1.3,3-3s-1.3-3-3-3s-3,1.3-3,3S7.8,11.5,9.5,11.5z M16.1,13.7
	c0.8,0.7,1.4,1.7,1.4,2.8v2h3v-2C20.5,15,18.1,14,16.1,13.7z M9.5,13.5c-2,0-6,1-6,3v2h12v-2C15.5,14.5,11.5,13.5,9.5,13.5z"/>
</svg>
