<?xml version="1.0" encoding="utf-8"?>
<!-- Generator: Adobe Illustrator 22.0.1, SVG Export Plug-In . SVG Version: 6.00 Build 0)  -->
<svg version="1.1" id="Ebene_1" xmlns="http://www.w3.org/2000/svg" xmlns:xlink="http://www.w3.org/1999/xlink" x="0px" y="0px"
	 viewBox="0 0 32 32" style="enable-background:new 0 0 32 32;" xml:space="preserve">
<style type="text/css">
	.st0{fill:#FFFFFF;}
</style>
<path class="st0" d="M18.2,8.9c-1.6,0.6-2.6,2.1-2.5,3.7l0,0.6l-0.6-0.1c-2.3-0.3-4.3-1.3-6.1-3L8.3,9.3L8,9.9
	c-0.5,1.4-0.2,2.8,0.8,3.8c0.5,0.5,0.4,0.6-0.5,0.3c-0.3-0.1-0.6-0.2-0.6-0.1C7.7,14,8,15.2,8.2,15.6c0.3,0.6,1,1.3,1.7,1.6l0.6,0.3
	l-0.7,0c-0.7,0-0.7,0-0.7,0.3c0.3,0.8,1.3,1.7,2.4,2.1l0.8,0.3l-0.7,0.4c-1,0.6-2.2,0.9-3.4,1c-0.6,0-1,0.1-1,0.1
	c0,0.1,1.6,0.8,2.5,1.1c2.7,0.8,5.9,0.5,8.3-1c1.7-1,3.4-3,4.2-5c0.4-1,0.9-2.9,0.9-3.9c0-0.6,0-0.7,0.8-1.4c0.4-0.4,0.8-0.9,0.9-1
	c0.1-0.2,0.1-0.2-0.5,0C23.1,11,23,11,23.5,10.4c0.4-0.4,0.9-1.2,0.9-1.4c0,0-0.2,0-0.4,0.1c-0.2,0.1-0.7,0.3-1.1,0.4l-0.7,0.2
	l-0.6-0.4c-0.3-0.2-0.8-0.5-1.1-0.6C19.8,8.7,18.8,8.7,18.2,8.9z"/>
</svg>
