<?xml version="1.0" encoding="utf-8"?>
<!-- Generator: Adobe Illustrator 23.1.0, SVG Export Plug-In . SVG Version: 6.00 Build 0)  -->
<svg version="1.1" id="Ebene_1" xmlns="http://www.w3.org/2000/svg" xmlns:xlink="http://www.w3.org/1999/xlink" x="0px" y="0px"
	 viewBox="0 0 500 500" style="enable-background:new 0 0 500 500;" xml:space="preserve">
<style type="text/css">
	.st0{fill:#FC9555;}
</style>
<g>
	<path class="st0" d="M146.3,112.4v4.6l-57.5,46.7h-7.6v-14.6H50.4v281.5h30.8V177H88l57.3,35.6l-0.1,0.6
		c50.5-5.2,57.9,25.5,112,40.7c29,8,61.6,10.3,85.5,5.2c30.3-6.7,56-11.4,72-6.2c16,5.2,47.2,17.1,47.2,17.1l20.2-61.7
		c0,0-50.6-44.1-124.4-39.7c-28.5,0.5-46,0.7-60.5-2.9c-22.6-5.7-28.8-20.9-50.6-35.2C227.4,117.6,191.9,116.6,146.3,112.4
		L146.3,112.4z M146.1,126.4l-0.8,77.9l-53.2-33.1v-1L146.1,126.4L146.1,126.4z"/>
</g>
</svg>
