<svg xmlns="http://www.w3.org/2000/svg" viewBox="0 0 24 24"><path d="M12 4.3c2.5 0 2.8 0 3.8.1 2.5.1 3.7 1.3 3.8 3.8 0 1 .1 1.3.1 3.8s0 2.8-.1 3.8c-.1 2.5-1.3 3.7-3.8 3.8-1 0-1.3.1-3.8.1s-2.8 0-3.8-.1c-2.6-.1-3.7-1.3-3.8-3.9 0-1-.1-1.3-.1-3.8s0-2.8.1-3.8c.1-2.5 1.3-3.7 3.8-3.8H12zm0-1.7c-2.6 0-2.9 0-3.9.1-3.4.2-5.3 2-5.5 5.5 0 1-.1 1.3-.1 3.9s0 2.9.1 3.9c.2 3.4 2 5.3 5.5 5.5 1 0 1.3.1 3.9.1s2.9 0 3.9-.1c3.4-.2 5.3-2 5.5-5.5 0-1 .1-1.3.1-3.9s0-2.9-.1-3.9c-.2-3.4-2-5.3-5.5-5.5-1-.1-1.3-.1-3.9-.1zm0 4.6c-2.7 0-4.8 2.2-4.8 4.8s2.2 4.8 4.8 4.8 4.8-2.2 4.8-4.8c0-2.7-2.1-4.8-4.8-4.8zm0 7.9c-1.7 0-3.1-1.4-3.1-3.1 0-1.7 1.4-3.1 3.1-3.1s3.1 1.4 3.1 3.1c0 1.7-1.4 3.1-3.1 3.1zm5-9.2c-.6 0-1.1.5-1.1 1.1s.5 1.1 1.1 1.1c.6 0 1.1-.5 1.1-1.1s-.5-1.1-1.1-1.1z" fill="#fff"/></svg>