<?xml version="1.0" encoding="utf-8"?>
<!-- Generator: Adobe Illustrator 25.2.1, SVG Export Plug-In . SVG Version: 6.00 Build 0)  -->
<svg version="1.1" id="Ebene_1" xmlns="http://www.w3.org/2000/svg" xmlns:xlink="http://www.w3.org/1999/xlink" x="0px" y="0px"
	 width="1338px" height="386px" viewBox="0 0 1338 386" style="enable-background:new 0 0 1338 386;" xml:space="preserve">
<style type="text/css">
	.st0{fill:#006A8C;}
</style>
<g>
	<path class="st0" d="M1254.2,105.3v31.5h11v-4.1h-6.6v-10.4h4.4v-4.1h-4.4v-8.8h6.2v-4.1H1254.2z M1196.1,105.3v31.5h4.4v-12.8h0.6
		c2.6,0,4.5-0.7,5.7-2c1.3-1.5,1.7-3.1,1.7-7.6c0-3.4-0.3-4.6-1.3-6.3c-1.2-2.2-2.7-2.7-7-2.7H1196.1z M1200.5,120v-10.6h0.6
		c2.3,0,3,0.8,3,3.5l0.1,1.8l-0.1,1.8c0,2.6-0.7,3.4-3,3.4H1200.5z M1138.1,105.3v31.5h4.5v-12.8h0.6c2.6,0,4.5-0.7,5.7-2
		c1.3-1.5,1.7-3.1,1.7-7.6c0-3.4-0.3-4.6-1.3-6.3c-1.2-2.2-2.7-2.7-7-2.7H1138.1z M1142.5,120v-10.6h0.6c2.3,0,3,0.8,3,3.5l0.1,1.8
		l-0.1,1.8c0,2.6-0.7,3.4-3,3.4H1142.5z M1083.8,105.3h-4.4v23.6c0,3.9,0,4.4,1,5.9c1,1.6,3,2.5,5.3,2.6c2.2,0,4.2-0.9,5.2-2.6
		c0.9-1.4,1-1.9,1-5.9v-23.5h-4.5v25.4c0,1.8-0.5,2.6-1.8,2.6c-1.3,0-1.8-0.8-1.8-2.6V105.3z M1020.8,105.3v31.5h4.4v-13.4
		c0.7,0,0.9,0,1.6-0.1l2.6,13.5h4.7l-3.1-15.1c1.8-2.3,2.2-3.7,2.2-7.6c0-2.7-0.4-4.5-1.2-6c-1.2-2.2-2.9-2.9-6.9-2.9H1020.8z
		 M1025.2,119.1v-9.7h0.6c2.4,0,3.1,0.9,3.1,4v0.1v2.1c0,2.6-0.8,3.4-3.1,3.4H1025.2z M974.9,120.9h-6.3v3.7h1.9v4.6
		c0,3.3-0.4,4.1-1.9,4.1c-1.2,0-1.8-0.9-1.8-2.9l0-1.3v-16.7c0-2.7,0.3-3.5,1.8-3.5c1.5,0,1.9,0.9,1.9,4.5c0,0.6,0,1.1-0.1,2.1h4.4
		c0.1-1.2,0.1-1.8,0.1-2.5c0-5.4-2.1-8.2-6.3-8.2c-4.1,0-6.2,2.6-6.2,7.5v16.8c0,2.8,0.2,4,0.9,5.4c0.9,1.7,2.7,2.8,4.5,2.8
		c1.5,0,2.8-0.8,4.1-2.6l0.7,2.1h2.4V120.9z M908.6,136.9h4.4v-27.4h4.3v-4.1h-12.8v4.1h4.1V136.9z M846.9,105.3v31.5h4.4v-13.4
		c0.7,0,0.9,0,1.6-0.1l2.6,13.5h4.7l-3.1-15.1c1.8-2.3,2.2-3.7,2.2-7.6c0-2.7-0.4-4.5-1.2-6c-1.2-2.2-2.9-2.9-6.9-2.9H846.9z
		 M851.3,119.1v-9.7h0.6c2.4,0,3.1,0.9,3.1,4v0.1v2.1c0,2.6-0.8,3.4-3.1,3.4H851.3z M788.3,128.8c0,3.9,0,4.5,1,6
		c1,1.6,3,2.5,5.3,2.6c2.2,0,4.2-0.9,5.2-2.6c0.9-1.4,1-1.9,1-6v-15.5c0-3.9-0.1-4.5-1-5.9c-1-1.6-3-2.6-5.2-2.6
		c-2.2,0-4.2,0.9-5.3,2.6c-0.9,1.4-1,1.9-1,5.9V128.8z M796.4,130.7c0,1.8-0.5,2.6-1.8,2.6c-1.3,0-1.8-0.8-1.8-2.6v-19.1
		c0-1.8,0.5-2.6,1.8-2.6c1.3,0,1.8,0.8,1.8,2.6V130.7z M730.4,105.3v31.5h4.4v-12.8h0.6c2.6,0,4.5-0.7,5.7-2
		c1.3-1.5,1.7-3.1,1.7-7.6c0-3.4-0.3-4.6-1.3-6.3c-1.2-2.2-2.7-2.7-7-2.7H730.4z M734.8,120v-10.6h0.6c2.3,0,3,0.8,3,3.5l0.1,1.8
		l-0.1,1.8c0,2.6-0.7,3.4-3,3.4H734.8z M671.6,127.8c0,0.8,0,1,0,1.8c0,2.7,0.3,4,1.4,5.4c1.2,1.6,2.9,2.4,5.3,2.4
		c4.1,0,6.4-2.3,6.4-6.6c0-2.7-1.1-5.9-3.2-8.8l-2.2-3.3l-1.1-1.7c-1.6-2.4-2-3.4-2-5.1c0-1.9,0.6-3,1.8-3c1.6,0,1.9,1,1.9,4.9
		l4.3-0.4v-0.9c0-5.2-2-7.7-6-7.7c-3.9,0-6.5,2.6-6.5,6.8c0,2.7,0.9,5,3.6,9l2.2,3.3l1,1.3c1,1.4,1.7,3.3,1.7,4.9
		c0,2.1-0.7,3.1-2,3.1c-1.7,0-2.2-1-2.2-4.3v-1.4L671.6,127.8z M617.9,136.9h4.5v-27.4h4.3v-4.1h-12.8v4.1h4.1V136.9z M558.3,105.3
		v31.5h4.4v-14.5h4.4v-4.1h-4.4v-8.8h6.2v-4.1H558.3z M504,105.3h-4.4v23.6c0,3.9,0,4.4,1,5.9c1,1.6,3,2.5,5.3,2.6
		c2.2,0,4.2-0.9,5.2-2.6c0.9-1.4,1-1.9,1-5.9v-23.5h-4.4v25.4c0,1.8-0.5,2.6-1.8,2.6c-1.3,0-1.8-0.8-1.8-2.6V105.3z M443.5,136.9
		h10.6v-4.1h-6.2v-27.4h-4.4V136.9z"/>
	<path class="st0" d="M1300.2,258.9h-31.5v18.5h9.5v23c0,16.3-1.9,20.6-9.5,20.6c-5.9,0-9-4.7-9-14.4l0.2-6.4v-83.5
		c0-13.7,1.7-17.3,9-17.3c7.6,0,9.7,4.7,9.7,22.7c0,3.1,0,5.4-0.5,10.4h22c0.5-6.1,0.5-9,0.5-12.5c0-27.2-10.6-40.9-31.7-40.9
		c-20.6,0-31.2,12.8-31.2,37.6v83.8c0,14.2,0.9,20.1,4.5,27c4.3,8.3,13.5,14,22.5,14c7.6,0,14.2-4,20.3-13l3.3,10.6h11.8V258.9z
		 M1146.5,181.3v157.6h22v-67c3.3,0,4.3,0,7.8-0.7l12.8,67.7h23.7l-15.4-75.3c9-11.6,11.1-18.7,11.1-38.1c0-13.5-1.9-22.2-6.2-29.8
		c-6.2-11.1-14.4-14.4-34.3-14.4H1146.5z M1168.5,249.9v-48.3h3.1c12.1,0,15.4,4.3,15.4,19.9v0.7v10.6c-0.2,12.8-4,17-15.4,17
		H1168.5z M1074.6,181.3h-22v117.8c0,19.4,0.2,22,5,29.3c5,7.8,15.1,12.5,26.3,12.8c10.9,0,20.8-4.7,26-12.8
		c4.7-6.9,5.2-9.5,5.2-29.6V181.3h-22.2v126.8c0,9-2.6,12.8-9,12.8c-6.6,0-9.2-4-9.2-13V181.3z M1005.4,255.8
		c10.9-6.9,14.2-14.9,14.2-35c0-14.2-2.8-23-9.9-30.3c-7.6-7.8-12.3-9.2-32.2-9.2h-19.9v157.6h22c17.5,0,27-3.1,34.5-11.1
		c6.2-6.9,8.3-15.9,8.3-35.7C1022.5,269.8,1018.2,260.8,1005.4,255.8 M979.6,318.5v-51.3h2.1c15.1,0,18.5,4.5,18.5,25.6
		c0,21.3-3.3,25.8-18.5,25.8H979.6z M979.6,246.6v-45h3.1c11.6,0,15.4,4.7,15.4,18.2c0,23.7-1.9,26.7-15.4,26.7H979.6z M863.1,293.4
		c-0.2,3.8-0.2,5.2-0.2,8.8c0,13.5,1.7,19.9,6.9,27.2c5.9,8,14.4,11.8,26.5,11.8c20.6,0,31.9-11.6,31.9-32.9
		c0-13.5-5.7-29.6-15.9-44.2l-11.1-16.3l-5.4-8.3c-8-12.1-9.9-17-9.9-25.3c0-9.7,3.1-14.9,9.2-14.9c7.8,0,9.7,5,9.7,24.4l21.5-2.1
		v-4.3c0-25.8-9.9-38.3-30.1-38.3c-19.6,0-32.4,13.2-32.4,34.1c0,13.7,4.5,25.1,18,45l10.9,16.3l5,6.6c5.2,7.1,8.5,16.6,8.5,24.4
		c0,10.4-3.6,15.6-10.2,15.6c-8.3,0-11.1-5.2-11.1-21.5v-7.1L863.1,293.4z M833.4,181.3h-22.2v44l0.5,15.4l0.7,16.1l2.8,32.9h-0.9
		l-8.3-30.5l-4.5-15.6l-3.3-11.6l-15.9-50.6h-18.9v157.6h22v-43.8c0-17.3-1.2-35.3-3.3-55.4h0.7l6.2,24.8l3.3,12.1l3.1,11.4
		l16.1,50.9h22V181.3z M679.8,181.3v157.6h54.9v-20.6h-32.9v-51.8h21.8v-20.6h-21.8v-44.3h31v-20.3H679.8z M628.9,338.9l23-157.6
		h-21.1l-7.1,54.2c-1.7,13-2.1,16.6-2.8,27.9l-2.1,28.2h-0.9c-1.9-29.6-2.6-36.2-5.4-56.1l-7.3-54.2h-21.8l24.1,157.6H628.9z
		 M523.6,303.4h19.9l4,35.5h21.5l-20.6-157.6h-28.4l-21.5,157.6h21.3L523.6,303.4z M541.1,283H526l2.4-23c0.5-3.8,1.2-12.3,2.4-26.3
		c0.5-5.7,1.4-14.4,2.6-26h0.7c2.1,25.1,3.1,35.3,4.7,52.3L541.1,283z M406.4,181.3v157.6h22v-67c3.3,0,4.3,0,7.8-0.7l12.8,67.7
		h23.7l-15.4-75.3c9-11.6,11.1-18.7,11.1-38.1c0-13.5-1.9-22.2-6.2-29.8c-6.2-11.1-14.4-14.4-34.3-14.4H406.4z M428.4,249.9v-48.3
		h3.1c12.1,0,15.4,4.3,15.4,19.9v0.7v10.6c-0.2,12.8-4,17-15.4,17H428.4z"/>
	<path class="st0" d="M306.6,136.2L241.8,23.8l-222.4,0c0,21.3,17.4,38.5,38.5,38.5h161.6l22.2,38.5H63.9
		c0,21.1,17.2,38.3,38.1,38.5h162l20.4,35.3l-1.9,3.2H108.3c0,21.1,17.2,38.3,38.2,38.5h113.8l-86.7,150.9h44.1L416,23.8
		c-18.3-10.6-41.8-4.2-52.5,13.8L306.6,136.2z"/>
</g>
</svg>
