<?xml version="1.0" encoding="utf-8"?>
<!-- Generator: Adobe Illustrator 23.1.0, SVG Export Plug-In . SVG Version: 6.00 Build 0)  -->
<svg version="1.1"
	 id="Logo" xmlns:cc="http://creativecommons.org/ns#" xmlns:dc="http://purl.org/dc/elements/1.1/" xmlns:inkscape="http://www.inkscape.org/namespaces/inkscape" xmlns:rdf="http://www.w3.org/1999/02/22-rdf-syntax-ns#" xmlns:sodipodi="http://sodipodi.sourceforge.net/DTD/sodipodi-0.dtd" xmlns:svg="http://www.w3.org/2000/svg"
	 xmlns="http://www.w3.org/2000/svg" xmlns:xlink="http://www.w3.org/1999/xlink" x="0px" y="0px" viewBox="0 0 1265.3 660.9"
	 style="enable-background:new 0 0 1265.3 660.9;" xml:space="preserve">
<style type="text/css">
	.st0{fill:#005E8A;}
	.st1{fill:#AAAAAA;}
</style>
<sodipodi:namedview  bordercolor="#666666" borderopacity="1" gridtolerance="10" guidetolerance="10" id="namedview85" inkscape:current-layer="Logo" inkscape:cx="243.40062" inkscape:cy="341.00539" inkscape:pageopacity="0" inkscape:pageshadow="2" inkscape:window-height="1312" inkscape:window-maximized="1" inkscape:window-width="2552" inkscape:window-x="0" inkscape:window-y="0" inkscape:zoom="0.99697973" objecttolerance="10" pagecolor="#ffffff" showgrid="false">
	</sodipodi:namedview>
<path id="path4" class="st0" d="M0,595.4h19.9V644H51v15.8H0V595.4z"/>
<path id="path6" class="st0" d="M51.1,638.5l19-1.2c0.2,2.5,1.1,4.9,2.5,7c2.1,2.6,5,3.9,8.8,3.9c2.4,0.2,4.7-0.6,6.6-2
	c1.4-1.1,2.3-2.8,2.3-4.6c0-1.7-0.8-3.4-2.2-4.5c-1.5-1.3-4.9-2.6-10.2-3.7c-8.7-2-15-4.6-18.7-7.8c-3.7-3.1-5.7-7.7-5.6-12.5
	c0-3.3,1-6.6,2.9-9.4c2.1-3.1,5.1-5.6,8.7-7c3.9-1.7,9.1-2.5,15.8-2.5c8.2,0,14.5,1.5,18.8,4.6s6.9,7.9,7.7,14.6l-18.8,1.1
	c-0.5-2.9-1.5-5-3.1-6.3c-1.9-1.4-4.2-2.1-6.6-2c-1.9-0.1-3.7,0.4-5.2,1.5c-1.1,0.9-1.8,2.2-1.8,3.6c0,1.1,0.6,2.1,1.4,2.8
	c0.9,0.9,3.2,1.6,6.7,2.4c8.7,1.9,14.9,3.8,18.7,5.7c3.4,1.6,6.2,4,8.2,7.1c1.7,2.9,2.6,6.2,2.6,9.5c0,4.1-1.2,8-3.4,11.4
	c-2.3,3.5-5.7,6.3-9.6,7.9c-4.1,1.8-9.3,2.7-15.5,2.7c-11,0-18.6-2.1-22.8-6.3C54,650.2,51.5,644.5,51.1,638.5z"/>
<path id="path8" class="st0" d="M107.8,595.4h20.8l14.5,46.4l14.3-46.4h20.2l-23.9,64.4h-21.6L107.8,595.4z"/>
<path id="path10" class="st0" d="M203.4,659.8v-64.4h33.2c6.1,0,10.8,0.5,14.1,1.6c3.2,1,6,3.1,7.9,5.9c5.7,8.3,3.7,19.6-4.6,25.3
	c-0.3,0.2-0.7,0.5-1,0.7c-2.2,1.2-4.5,2.1-7,2.5c1.8,0.5,3.6,1.3,5.2,2.4c1.2,1,2.3,2.1,3.2,3.4c1.1,1.2,2,2.6,2.8,4l9.6,18.6h-22.5
	l-10.6-19.7c-1.3-2.5-2.5-4.2-3.6-5c-1.4-1-3.1-1.5-4.9-1.5h-1.8v26.2H203.4z M223.4,621.5h8.4c1.8-0.1,3.5-0.4,5.3-0.9
	c1.3-0.2,2.4-1,3.2-2c1.9-2.6,1.6-6.3-0.7-8.5c-1.3-1.1-3.8-1.7-7.4-1.7h-8.8V621.5z"/>
<path id="path12" class="st0" d="M314.1,659.8h-16.7v-7.6c-2,2.7-4.6,5-7.5,6.6c-2.9,1.4-6.1,2.1-9.3,2c-4.9,0-8.8-1.5-11.6-4.4
	s-4.2-7.5-4.2-13.6v-29.7h18v25.7c0,2.9,0.5,5,1.6,6.2c1.2,1.3,2.8,1.9,4.6,1.8c2,0,4-0.9,5.2-2.5c1.4-1.6,2-4.6,2-8.8v-22.4h17.9
	V659.8z"/>
<path id="path14" class="st0" d="M319.5,595.4h17.9v23.7c2.1-2.2,4.5-4.1,7.2-5.4c2.7-1.1,5.6-1.7,8.5-1.6c4.9,0,8.7,1.5,11.5,4.4
	s4.2,7.5,4.2,13.6v29.6h-18V634c0-2.9-0.5-5-1.6-6.2c-1.2-1.3-2.9-1.9-4.6-1.8c-2-0.1-4,0.9-5.3,2.5c-1.4,1.7-2,4.6-2,8.8v22.4
	h-17.9L319.5,595.4L319.5,595.4z"/>
<path id="path16" class="st0" d="M374.2,613.1H391v7.7c1.6-3.3,3.3-5.6,5-6.8c1.9-1.3,4.1-1.9,6.4-1.9c3,0.1,6,1,8.7,2.5l-5.5,12.8
	c-1.6-0.7-3.3-1.2-5-1.3c-2.2-0.1-4.3,1-5.5,2.9c-1.9,2.7-2.8,7.8-2.8,15.3v15.6h-18v-46.8H374.2z"/>
<path id="path18" class="st0" d="M405.1,629.4h26v13.8h-26V629.4z"/>
<path id="path20" class="st0" d="M434.2,595.4h19.9V644h31.1v15.8h-51V595.4z"/>
<path id="path22" class="st0" d="M539.4,640.9h-35.9c0.1,2.3,0.9,4.6,2.3,6.4c1.7,2,4.2,3.1,6.8,3c1.8,0,3.5-0.5,5-1.3
	c1.2-0.8,2.3-1.8,3.1-3l17.6,1.6c-2.2,4.2-5.6,7.7-9.8,10.1c-3.8,2-9.3,3.1-16.4,3.1c-6.2,0-11.1-0.9-14.6-2.6
	c-3.7-1.9-6.7-4.7-8.8-8.3c-2.4-4-3.6-8.7-3.5-13.4c0-7.3,2.3-13.2,7-17.7s11.1-6.8,19.4-6.8c6.7,0,11.9,1,15.8,3
	c3.8,1.9,6.9,5,8.8,8.8c2,3.8,3,8.8,3,15L539.4,640.9z M521.2,632.4c-0.3-3.5-1.3-5.9-2.8-7.4c-3.6-3.2-9.1-3-12.3,0.6
	c-0.1,0.2-0.3,0.3-0.4,0.5c-1.2,1.9-2,4-2.1,6.3L521.2,632.4z"/>
<path id="path24" class="st0" d="M542.1,613.1h16.7v7.7c2-2.7,4.6-5,7.6-6.7c2.9-1.4,6.1-2.1,9.3-2c5,0,8.8,1.5,11.6,4.4
	s4.2,7.5,4.2,13.7v29.6h-18v-25.7c0-2.9-0.5-5-1.6-6.2c-1.2-1.3-2.9-1.9-4.6-1.8c-2-0.1-4,0.9-5.3,2.5c-1.3,1.7-2,4.6-2,8.8v22.4
	h-17.9V613.1z"/>
<path id="path26" class="st0" d="M596.7,613.1h16.7v7.7c2-2.7,4.6-5,7.6-6.7c2.9-1.4,6.1-2.1,9.3-2c5,0,8.8,1.5,11.6,4.4
	s4.2,7.5,4.2,13.7v29.6h-18v-25.7c0-2.9-0.5-5-1.6-6.2c-1.2-1.3-2.9-1.9-4.6-1.8c-2-0.1-4,0.9-5.3,2.5c-1.3,1.7-2,4.6-2,8.8v22.4
	h-17.9V613.1z"/>
<path id="path28" class="st0" d="M703.1,640.9h-35.9c0.3,2.9,1.1,5,2.3,6.4c1.7,2,4.2,3.1,6.8,3c1.8,0,3.5-0.5,5-1.3
	c1.2-0.8,2.3-1.8,3.1-3l17.6,1.6c-2.2,4.2-5.6,7.7-9.8,10.1c-3.8,2-9.3,3.1-16.4,3.1c-6.2,0-11.1-0.9-14.6-2.6
	c-3.7-1.9-6.7-4.7-8.8-8.3c-2.4-4-3.6-8.7-3.5-13.4c0-7.3,2.3-13.2,7-17.7s11.1-6.8,19.4-6.8c6.7,0,11.9,1,15.8,3
	c3.8,1.9,6.9,5,8.8,8.8c2,3.8,3,8.8,3,15L703.1,640.9z M684.9,632.4c-0.4-3.5-1.3-5.9-2.8-7.4c-3.6-3.2-9.1-2.9-12.4,0.7
	c-0.1,0.2-0.3,0.3-0.4,0.5c-1.2,1.9-2,4-2.1,6.3L684.9,632.4z"/>
<path id="path30" class="st0" d="M732.3,595.4h20v64.4h-20V595.4z"/>
<path id="path32" class="st0" d="M756.7,646.9l17.8-1.7c0.5,1.8,1.6,3.4,3.1,4.5c1.6,1,3.4,1.5,5.3,1.4c2,0.1,3.9-0.4,5.6-1.5
	c1-0.6,1.5-1.7,1.5-2.9c0-1.3-0.8-2.5-2-3c-1-0.5-3.5-1.1-7.7-1.8c-4.4-0.6-8.7-1.6-12.9-3c-2.4-0.9-4.6-2.6-6.1-4.7
	c-1.6-2.2-2.5-4.8-2.5-7.5c-0.1-2.9,0.9-5.7,2.7-8c1.9-2.3,4.5-4.1,7.4-5c4.1-1.2,8.4-1.8,12.6-1.7c5.6,0,9.7,0.4,12.3,1.3
	c2.5,0.8,4.8,2.1,6.6,4c2,2.1,3.5,4.6,4.4,7.2l-17,1.7c-0.3-1.3-1.1-2.5-2.2-3.3c-1.5-1-3.3-1.5-5.1-1.4c-1.6-0.1-3.1,0.3-4.4,1.1
	c-0.9,0.6-1.4,1.6-1.4,2.6c0,1.1,0.7,2.2,1.8,2.6c1.2,0.6,3.7,1.1,7.7,1.6c5.9,0.7,10.4,1.6,13.3,2.8c2.7,1,5,2.8,6.7,5.1
	c1.5,2.1,2.3,4.7,2.3,7.3c0,2.8-0.9,5.5-2.4,7.9c-1.9,2.8-4.6,4.9-7.7,6.1c-3.5,1.5-8.3,2.3-14.3,2.3c-8.5,0-14.6-1.2-18.2-3.7
	C760.1,654.8,757.6,651.1,756.7,646.9z"/>
<path id="path34" class="st0" d="M861.2,640.9h-35.9c0.1,2.3,0.9,4.6,2.3,6.4c1.7,2,4.2,3.1,6.8,3c1.8,0,3.5-0.5,5-1.3
	c1.2-0.8,2.3-1.8,3.1-3l17.6,1.6c-2.7,4.7-6,8-9.8,10.1s-9.3,3.1-16.4,3.1c-6.2,0-11-0.9-14.6-2.6c-3.7-1.9-6.7-4.7-8.8-8.3
	c-2.4-4-3.6-8.7-3.5-13.4c0-7.3,2.3-13.2,7-17.7s11.1-6.8,19.4-6.8c6.7,0,11.9,1,15.8,3c3.8,1.9,6.9,5,8.8,8.8c2,3.8,3,8.8,3,15
	L861.2,640.9z M843,632.4c-0.3-3.5-1.3-5.9-2.8-7.4c-3.6-3.2-9.1-3-12.3,0.6c-0.1,0.2-0.3,0.3-0.4,0.5c-1.2,1.9-2,4-2.1,6.3
	L843,632.4z"/>
<path id="path36" class="st0" d="M864.1,613.1h16.8v7.7c1.6-3.3,3.3-5.6,5-6.8c1.9-1.3,4.1-1.9,6.3-1.9c3,0.1,6,1,8.7,2.5l-5.5,12.8
	c-1.6-0.7-3.3-1.2-5-1.3c-2.2-0.1-4.3,1-5.5,2.9c-1.8,2.7-2.8,7.8-2.8,15.3v15.6h-18V613.1z"/>
<path id="path38" class="st0" d="M902,595.4h18v64.4h-18V595.4z"/>
<path id="path40" class="st0" d="M923.7,636.6c-0.2-6.6,2.4-13,7.2-17.6s11.3-6.9,19.5-6.9c9.3,0,16.4,2.7,21.2,8.1
	c3.9,4.5,5.9,10.2,5.8,16.1c0,7.2-2.4,13.1-7.2,17.6c-4.8,4.6-11.4,6.9-19.8,6.9c-7.5,0-13.6-1.9-18.2-5.7
	C926.6,650.7,923.5,643.8,923.7,636.6z M941.6,636.6c0,4.2,0.8,7.2,2.5,9.2c2.9,3.5,8.1,4,11.6,1.1c0.4-0.3,0.7-0.7,1.1-1.1
	c1.7-2,2.5-5.1,2.5-9.5c0-4.1-0.8-7.1-2.5-9c-1.5-1.9-3.8-3-6.2-3c-2.5-0.1-4.9,1.1-6.5,3C942.5,629.4,941.6,632.5,941.6,636.6
	L941.6,636.6z"/>
<path id="path42" class="st0" d="M980.4,595.4h17.9v23.7c2.1-2.2,4.5-4.1,7.3-5.4c2.7-1.1,5.6-1.7,8.5-1.6c4.9,0,8.7,1.5,11.5,4.4
	c2.8,3,4.2,7.5,4.2,13.6v29.6h-18V634c0-2.9-0.5-5-1.6-6.2c-1.2-1.3-2.9-1.9-4.6-1.8c-2-0.1-4,0.9-5.3,2.5c-1.3,1.7-2,4.6-2,8.8
	v22.4h-17.9L980.4,595.4L980.4,595.4z"/>
<path id="path44" class="st0" d="M1035,613.1h16.7v7.7c2-2.7,4.6-5,7.6-6.7c2.9-1.4,6.1-2.1,9.3-2c4.9,0,8.8,1.5,11.6,4.4
	c2.8,2.9,4.2,7.5,4.2,13.7v29.6h-18v-25.7c0-2.9-0.5-5-1.6-6.2c-1.2-1.3-2.9-1.9-4.6-1.8c-2-0.1-4,0.9-5.3,2.5c-1.3,1.7-2,4.6-2,8.8
	v22.4H1035V613.1z"/>
<path id="path46" class="st0" d="M1165.9,640.9H1130c0.1,2.3,0.9,4.6,2.3,6.4c1.7,2,4.2,3.1,6.8,3c1.8,0,3.5-0.5,5-1.3
	c1.2-0.8,2.3-1.8,3.1-3l17.6,1.6c-2.2,4.2-5.6,7.7-9.8,10.1c-3.8,2-9.3,3.1-16.4,3.1c-6.2,0-11.1-0.9-14.6-2.6
	c-3.7-1.9-6.7-4.7-8.8-8.3c-2.4-4-3.6-8.7-3.5-13.4c0-7.3,2.3-13.2,7-17.7s11.1-6.8,19.4-6.8c6.7,0,11.9,1,15.8,3
	c3.8,1.9,6.9,5,8.8,8.8c2,3.8,3,8.8,3,15L1165.9,640.9z M1147.7,632.4c-0.3-3.5-1.3-5.9-2.8-7.4c-3.6-3.2-9.1-3-12.3,0.6
	c-0.1,0.2-0.3,0.3-0.4,0.5c-1.2,1.9-2,4-2.1,6.3L1147.7,632.4z"/>
<path id="path48" class="st0" d="M1168.7,641.9h19.1v17.9h-19.1V641.9z"/>
<path id="path50" class="st0" d="M1188,595.4h20.8l14.5,46.4l14.3-46.4h20.2l-23.9,64.4h-21.6L1188,595.4z"/>
<path id="path52" class="st0" d="M1246.2,641.9h19.1v17.9h-19.1V641.9z"/>
<path id="path54" class="st0" d="M0.1,582.6V441.1H73c13.5,0,23.8,1.2,31,3.5c7,2.2,13.1,6.8,17.3,12.9c4.4,6.3,6.6,13.9,6.6,22.9
	c0,7.9-1.7,14.6-5,20.3c-3.4,5.7-8.1,10.5-13.8,13.8c-3.7,2.3-8.9,4.1-15.4,5.6c5.2,1.7,9,3.5,11.4,5.2c1.6,1.2,3.9,3.6,7,7.4
	c2.3,2.7,4.4,5.7,6.1,8.8l21.2,41H89.9l-23.4-43.2c-3-5.6-5.6-9.2-7.9-10.9c-3.1-2.2-6.9-3.3-10.7-3.3H44v57.4L0.1,582.6z
	 M44.1,498.4h18.4c2,0,5.9-0.6,11.6-1.9c2.8-0.5,5.4-2.1,7.1-4.4c1.8-2.3,2.8-5.2,2.8-8.2c0-4.6-1.4-8.1-4.3-10.5s-8.3-3.7-16.3-3.7
	H44.1V498.4z"/>
<path id="path56" class="st0" d="M138.6,441.1h39.3v52.1c5.3-5.5,10.6-9.5,15.9-11.9c5.9-2.5,12.3-3.7,18.7-3.5
	c10.7,0,19.1,3.2,25.2,9.7s9.2,16.4,9.2,29.9v65.2h-39.5v-56.4c0-6.4-1.2-11-3.6-13.7c-2.4-2.7-5.7-4-10-4
	c-4.5-0.1-8.8,1.9-11.6,5.4c-3,3.6-4.4,10.1-4.4,19.4v49.2h-39.3V441.1H138.6z"/>
<path id="path58" class="st0" d="M372.2,541.1h-78.8c0.7,6.3,2.4,11,5.1,14.1c3.7,4.4,9.1,6.8,14.9,6.6c3.9,0,7.6-1,11-2.9
	c2.7-1.7,5-3.9,6.9-6.5L370,556c-5.9,10.3-13.1,17.7-21.4,22.2c-8.4,4.5-20.4,6.7-36,6.7c-13.6,0-24.2-1.9-32-5.7
	s-14.2-9.9-19.4-18.2c-5.1-8.3-7.7-18.1-7.7-29.4c0-16,5.1-29,15.4-38.9c10.3-9.9,24.4-14.9,42.5-14.8c14.7,0,26.2,2.2,34.8,6.7
	c8.3,4.3,15.1,11,19.4,19.3c4.4,8.4,6.7,19.4,6.7,32.9v4.3H372.2z M332.2,522.2c-0.8-7.6-2.8-13-6.1-16.3s-7.7-4.9-13.1-4.9
	c-5.9-0.2-11.6,2.6-15,7.4c-2.4,3.1-3.9,7.7-4.5,13.8H332.2z"/>
<rect id="rect60" x="379.6" y="480.1" class="st0" width="39.3" height="102.5"/>
<path id="path62" class="st0" d="M432,480.1h36.6v16.7c5.5-6.8,11-11.7,16.6-14.6s12.4-4.4,20.4-4.4c10.9,0,19.4,3.2,25.5,9.7
	c6.2,6.5,9.2,16.5,9.2,30v65.2h-39.5v-56.4c0-6.4-1.2-11-3.6-13.7s-5.7-4-10-4c-4.5-0.1-8.8,1.9-11.6,5.4c-3,3.6-4.4,10.1-4.4,19.4
	v49.2H432V480.1z"/>
<path id="path64" class="st0" d="M665.5,541.1h-78.8c0.7,6.3,2.4,11,5.1,14.1c3.7,4.4,9.1,6.8,14.9,6.6c3.9,0,7.6-1,11-2.9
	c2.7-1.7,5-3.9,6.8-6.5l38.7,3.6c-5.9,10.3-13.1,17.7-21.4,22.2s-20.4,6.7-36,6.7c-13.6,0-24.2-1.9-32-5.7s-14.2-9.9-19.3-18.2
	s-7.7-18.1-7.7-29.4c0-16,5.1-29,15.4-38.9c10.3-9.9,24.4-14.9,42.5-14.8c14.7,0,26.2,2.2,34.8,6.7c8.3,4.3,15.1,11,19.4,19.3
	c4.4,8.4,6.6,19.4,6.7,32.9v4.3L665.5,541.1L665.5,541.1z M625.6,522.2c-0.8-7.6-2.8-13-6.1-16.3s-7.7-4.9-13.1-4.9
	c-5.9-0.2-11.6,2.6-15,7.4c-2.4,3.1-3.9,7.7-4.5,13.8H625.6z"/>
<path id="path66" class="st0" d="M671.9,480.1h36.8v16.8c3.5-7.3,7.2-12.3,11-15s8.4-4.1,13.9-4.1c5.8,0,12.1,1.8,19,5.4l-12.2,28
	c-4.6-1.9-8.3-2.9-11-2.9c-4.9-0.2-9.4,2.3-12,6.4c-4.1,6-6.1,17.2-6.1,33.6v34.4h-39.5L671.9,480.1L671.9,480.1z"/>
<path id="path68" class="st0" d="M757.3,480.1H794v15c5.3-6.2,10.6-10.7,16-13.3s11.9-4,19.5-3.9c8.2,0,14.7,1.4,19.4,4.3
	c5,3.2,9.1,7.6,11.7,12.9c6.2-6.7,11.8-11.2,16.9-13.7c5.1-2.4,11.3-3.6,18.8-3.6c11,0,19.6,3.3,25.7,9.8c6.2,6.5,9.2,16.7,9.2,30.6
	v64.4h-39.4v-58.4c0-4.6-0.9-8.1-2.7-10.3c-2.6-3.5-5.9-5.3-9.8-5.3c-4.3-0.1-8.4,1.7-11.2,5s-4.2,8.7-4.2,16.1v52.9h-39.4v-56.4
	c0-4.5-0.3-7.6-0.8-9.2c-0.8-2.5-2.3-4.7-4.3-6.2c-2.1-1.6-4.7-2.4-7.3-2.4c-4.3-0.1-8.4,1.8-11.1,5.1c-2.9,3.4-4.4,9-4.4,16.8v52.3
	h-39.4L757.3,480.1L757.3,480.1z"/>
<path id="path70" class="st0" d="M978.4,513.3l-37.5-4c1.4-6.5,3.4-11.7,6.1-15.5c3.1-4.1,7-7.4,11.5-9.8c3.6-2,8.6-3.5,14.9-4.6
	c6.8-1.1,13.6-1.7,20.5-1.6c11.8,0,21.2,0.7,28.4,2c6.6,1.1,12.8,3.9,17.9,8.3c3.3,2.9,6,7,7.9,12.3c1.8,4.9,2.8,10,2.9,15.2v45.3
	c-0.1,3.8,0.2,7.6,0.9,11.3c0.9,3.6,2.3,7.1,4,10.5H1019c-1.1-1.9-2.1-3.9-2.9-6c-0.6-2.1-1.1-4.3-1.3-6.5
	c-4.4,4.5-9.6,8.1-15.3,10.6c-7,2.8-15,4.2-24.2,4.2c-12.2,0-21.5-2.8-27.8-8.5c-6.1-5.2-9.6-12.9-9.5-20.9c0-7.8,2.3-14.2,6.9-19.2
	s13-8.8,25.3-11.2c14.7-3,24.3-5,28.7-6.2c4.7-1.3,9.3-2.9,13.9-4.7c0-4.8-1-8.2-3-10.1s-5.5-2.9-10.5-3c-6.4,0-11.3,1-14.5,3.1
	C982,505.8,980,508.8,978.4,513.3z M1012.5,533.9c-5.4,1.9-11,3.6-16.9,5.1c-8,2.1-13.1,4.2-15.2,6.3c-4.1,3.8-4.4,10.1-0.6,14.2
	c0.2,0.2,0.4,0.4,0.6,0.6c2.2,2,5.3,2.9,9.5,2.9c4.3,0,8.5-1.1,12.2-3.2c3.4-1.8,6.2-4.5,8-7.8c1.6-3.1,2.4-7,2.4-11.9V533.9z"/>
<path id="path72" class="st0" d="M1062.8,480.1h36.8v16.8c3.5-7.3,7.2-12.3,11-15s8.4-4.1,13.9-4.1c5.8,0,12.1,1.8,19,5.4l-12.2,28
	c-4.6-1.9-8.3-2.9-11-2.9c-4.9-0.2-9.4,2.3-12,6.4c-4.1,6-6.1,17.2-6.1,33.6v34.4h-39.5L1062.8,480.1z"/>
<path id="path74" class="st0" d="M1144.6,441.1h40.2v73l29.3-34h48.3l-36.8,35.9l38.9,66.6h-44.2l-20.8-41.1l-14.8,14.5v26.6h-40.2
	L1144.6,441.1z"/>
<g id="g82" transform="matrix(1.0017166,0,0,1.0017166,-98.67961,7.074926)">
	<path id="path78_3_" inkscape:connector-curvature="0" class="st0" d="M516.7,457.2h-38.4c0,0,15.5-8.9,38.4-29.3V457.2z"/>
	<path id="path78_2_" inkscape:connector-curvature="0" class="st0" d="M529.8,415.7c25.5-24.9,57-62.1,85.9-114.2
		c0,0-119.8,17.1-183.4,1.3c-2.9-0.7-4.6-3.7-3.9-6.5c0.2-0.8,0.6-1.6,1.2-2.3c9.1-10.2,28.2-21.2,52.3-31.1c0,0.1,0,0.2,0,0.2
		c1.7,9.2,4.3,25.2,48.1,14.8l65.7-11.8c8.8-1.6,16.1-7.8,19.1-16.2l4.6-18.2c4.4-0.2,8.8-0.2,13-0.1L664,107.1
		c13.7-40.5,22.6-52,38.3-73.8c3.2-4.4,5.4-7.5,5.4-7.5c1.3-2.6,3-4.8,5.1-6.8c0.5-0.4,0.8-1,1.1-1.5c7.9-20,12.9-16.2,12.9-16.2
		l-7.1,18.8l-17.3,48.7c0,0,0,0,0,0c-7.2,27.5-16.3,61.4-18.9,127.4l-0.8,37.9c0,0,65.9,14.6,338.7-7.7c2.8-0.2,5.2-2.1,6.2-4.7
		l34.7-93.5c1.2-0.4-26.1-12.3-26.7-14.9c-0.9-4.5,26-2.2,26-2.2l36.1,11.3l16.3-1.9c0.3,0,0.7,0.2,0.7,0.5v0.1v6.7l18.8,8.1
		c-5.8,2.9-12.6,3.6-18.8,1.8l1.1,84c0,0.5-0.3,0.9-0.8,1.1l-23.8,8.3c-0.7,0.3-1.5,0.4-2.3,0.5c-3.3,0.4-13.6,2.2-18.3,9.6
		c-0.3,0.5-0.8,0.8-1.3,1c-1.5,0.4-4.9,0.5-9.9-4.5c-0.4-0.4-0.9-0.6-1.4-0.6c-18.3,1.3-326.2,24.3-374.9,46.4
		c0,0-14,120.2-48.1,173.7H529.8V415.7z"/>
</g>
<path id="path78_4_" inkscape:connector-curvature="0" class="st1" d="M384,270.6c0,0.1,0,0.2,0,0.2c1.7,9.2,4.3,25.2,48.2,14.8
	l65.8-11.8c8.8-1.6,16.1-7.8,19.1-16.2l4.6-18.2C475.2,244.4,429.6,251.9,384,270.6z"/>
</svg>
