<?xml version="1.0" encoding="UTF-8" standalone="no"?>
<!-- Generator: Adobe Illustrator 23.1.0, SVG Export Plug-In . SVG Version: 6.00 Build 0)  -->

<svg
   version="1.1"
   id="Logo"
   x="0px"
   y="0px"
   viewBox="0 0 1336.0149 458.92368"
   xml:space="preserve"
   sodipodi:docname="logo-wide-white.svg"
   inkscape:version="1.1.1 (3bf5ae0d25, 2021-09-20, custom)"
   width="1336.015"
   height="458.92371"
   xmlns:inkscape="http://www.inkscape.org/namespaces/inkscape"
   xmlns:sodipodi="http://sodipodi.sourceforge.net/DTD/sodipodi-0.dtd"
   xmlns="http://www.w3.org/2000/svg"
   xmlns:svg="http://www.w3.org/2000/svg"><defs
   id="defs46" />
<style
   type="text/css"
   id="style2">
	.st0{fill:#005E8A;}
	.st1{fill:#AAAAAA;}
</style>
<sodipodi:namedview
   bordercolor="#666666"
   borderopacity="1"
   gridtolerance="10"
   guidetolerance="10"
   id="namedview85"
   inkscape:current-layer="Logo"
   inkscape:cx="618.86915"
   inkscape:cy="751.26903"
   inkscape:pageopacity="0"
   inkscape:pageshadow="2"
   inkscape:window-height="1056"
   inkscape:window-maximized="1"
   inkscape:window-width="2040"
   inkscape:window-x="0"
   inkscape:window-y="0"
   inkscape:zoom="0.49848987"
   objecttolerance="10"
   pagecolor="#ffffff"
   showgrid="false"
   inkscape:pagecheckerboard="0"
   fit-margin-top="0"
   fit-margin-left="0"
   fit-margin-right="0"
   fit-margin-bottom="0">
	</sodipodi:namedview>

























<path
   id="path54"
   class="st0"
   d="M 367.51947,399.60308 V 291.29509 h 55.79966 c 10.33328,0 18.21718,0.91851 23.72826,2.67899 5.35799,1.68394 10.0271,5.20491 13.24189,9.87402 3.36789,4.82219 5.05183,10.63944 5.05183,17.52829 0,6.04688 -1.30123,11.17524 -3.82714,15.53818 -2.60246,4.36294 -6.19996,8.03699 -10.5629,10.5629 -2.83208,1.76048 -6.81231,3.13825 -11.78759,4.28639 3.98023,1.30123 6.88885,2.679 8.72588,3.98023 1.22468,0.91851 2.98517,2.75554 5.35799,5.66416 1.76048,2.06665 3.36788,4.36294 4.66911,6.73576 l 16.22706,31.38253 h -37.88866 l -17.91101,-33.06647 c -2.29628,-4.28639 -4.28639,-7.04193 -6.04687,-8.34316 -2.37283,-1.68394 -5.28145,-2.52591 -8.19008,-2.52591 h -2.98516 v 43.93554 z m 33.67881,-64.44899 h 14.08386 c 1.53086,0 4.51603,-0.45926 8.87896,-1.45432 2.1432,-0.38271 4.13331,-1.60739 5.43454,-3.36788 1.37777,-1.76048 2.1432,-3.98022 2.1432,-6.2765 0,-3.52097 -1.0716,-6.19997 -3.29134,-8.03699 -2.21974,-1.83703 -6.35305,-2.83208 -12.47647,-2.83208 h -14.77275 z"
   style="stroke-width:0.765428;fill:#ffffff" />
<path
   id="path56"
   class="st0"
   d="m 473.53118,291.29509 h 30.0813 v 39.87877 c 4.05677,-4.20985 8.11353,-7.27156 12.1703,-9.10859 4.51602,-1.91356 9.41476,-2.83208 14.3135,-2.67899 8.19007,0 14.61966,2.44937 19.28874,7.42465 4.66911,4.97527 7.04193,12.55301 7.04193,22.88628 v 49.90587 h -30.23436 v -43.17011 c 0,-4.89874 -0.91851,-8.4197 -2.75553,-10.48636 -1.83703,-2.06665 -4.36294,-3.06171 -7.65428,-3.06171 -3.44442,-0.0765 -6.73576,1.45432 -8.87896,4.13331 -2.29628,2.75554 -3.36788,7.73082 -3.36788,14.8493 v 37.65903 h -30.0813 V 291.29509 Z"
   style="stroke-width:0.765428;fill:#ffffff" />
<path
   id="path58"
   class="st0"
   d="m 652.33502,367.83784 h -60.31569 c 0.5358,4.82219 1.83703,8.4197 3.90368,10.79253 2.83208,3.36788 6.96539,5.20491 11.40487,5.05182 2.98517,0 5.81725,-0.76543 8.41971,-2.21974 2.06665,-1.30123 3.82713,-2.98517 5.28145,-4.97528 l 29.62204,2.75554 c -4.51602,7.88391 -10.0271,13.54807 -16.38015,16.99249 -6.42959,3.44443 -15.61472,5.12837 -27.55539,5.12837 -10.40981,0 -18.52335,-1.45431 -24.49368,-4.36294 -5.97033,-2.90862 -10.86907,-7.57773 -14.84929,-13.93078 -3.90368,-6.35305 -5.8938,-13.85424 -5.8938,-22.50357 0,-12.24684 3.90368,-22.1974 11.78759,-29.77513 7.8839,-7.57773 18.67643,-11.40487 32.53067,-11.32833 11.25178,0 20.0542,1.68394 26.63688,5.12837 6.35305,3.29133 11.55795,8.4197 14.84929,14.77275 3.36788,6.42959 5.12837,14.84929 5.12837,25.18256 v 3.29134 z m -30.6171,-14.46658 c -0.61234,-5.81725 -2.1432,-9.95056 -4.66911,-12.47647 -2.52591,-2.52591 -5.89379,-3.75059 -10.0271,-3.75059 -4.51602,-0.15309 -8.87896,1.99011 -11.48141,5.66416 -1.83703,2.37283 -2.98517,5.89379 -3.44442,10.5629 z"
   style="stroke-width:0.765428;fill:#ffffff" />
<rect
   id="rect60"
   x="657.99921"
   y="321.14676"
   class="st0"
   width="30.081301"
   height="78.456322"
   style="stroke-width:0.765428;fill:#ffffff" />
<path
   id="path62"
   class="st0"
   d="m 698.10759,321.14676 h 28.01468 v 12.78264 c 4.20985,-5.20491 8.4197,-8.9555 12.70609,-11.17524 4.2864,-2.21974 9.49131,-3.36788 15.61473,-3.36788 8.34323,0 14.84937,2.44937 19.51848,7.42465 4.74565,4.97527 7.04193,12.62955 7.04193,22.96282 v 49.90588 h -30.23447 v -43.17012 c 0,-4.89873 -0.91851,-8.4197 -2.75553,-10.48635 -1.83703,-2.06666 -4.36294,-3.06171 -7.65428,-3.06171 -3.44442,-0.0765 -6.73576,1.45431 -8.87896,4.13331 -2.29628,2.75553 -3.36788,7.73081 -3.36788,14.84929 v 37.65903 h -30.00479 z"
   style="stroke-width:0.765428;fill:#ffffff" />
<path
   id="path64"
   class="st0"
   d="m 876.83507,367.83784 h -60.3157 c 0.5358,4.82219 1.837,8.4197 3.9036,10.79253 2.8321,3.36788 6.9654,5.20491 11.4049,5.05182 2.9852,0 5.8173,-0.76543 8.4197,-2.21974 2.0667,-1.30123 3.8272,-2.98517 5.2049,-4.97528 l 29.6221,2.75554 c -4.516,7.88391 -10.0271,13.54807 -16.3802,16.99249 -6.353,3.44443 -15.6147,5.12837 -27.5554,5.12837 -10.4098,0 -18.5233,-1.45431 -24.4936,-4.36294 -5.9704,-2.90862 -10.8691,-7.57773 -14.7728,-13.93078 -3.9037,-6.35305 -5.8938,-13.85424 -5.8938,-22.50357 0,-12.24684 3.9037,-22.1974 11.7876,-29.77513 7.8839,-7.57773 18.6764,-11.40487 32.5307,-11.32833 11.2517,0 20.0542,1.68394 26.6368,5.12837 6.3531,3.29133 11.558,8.4197 14.8493,14.77275 3.3679,6.42959 5.0519,14.84929 5.1284,25.18256 v 3.29134 z m -30.5406,-14.46658 c -0.6123,-5.81725 -2.1432,-9.95056 -4.6691,-12.47647 -2.5259,-2.52591 -5.8938,-3.75059 -10.0271,-3.75059 -4.516,-0.15309 -8.879,1.99011 -11.4814,5.66416 -1.8371,2.37283 -2.9852,5.89379 -3.4444,10.5629 z"
   style="stroke-width:0.765428;fill:#ffffff" />
<path
   id="path66"
   class="st0"
   d="m 881.73377,321.14676 h 28.1677 v 12.85918 c 2.679,-5.58762 5.5111,-9.41475 8.4197,-11.48141 2.9086,-2.06665 6.4296,-3.13825 10.6395,-3.13825 4.4394,0 9.2616,1.37777 14.5431,4.13331 l -9.3382,21.43197 c -3.521,-1.45431 -6.3531,-2.21974 -8.4197,-2.21974 -3.7506,-0.15309 -7.1951,1.76048 -9.1852,4.89873 -3.1382,4.59257 -4.6691,13.16536 -4.6691,25.71837 v 26.33071 h -30.2344 z"
   style="stroke-width:0.765428;fill:#ffffff" />
<path
   id="path68"
   class="st0"
   d="m 947.10127,321.14676 h 28.0912 v 11.48141 c 4.0568,-4.74565 8.1135,-8.19007 12.2468,-10.18018 4.1333,-1.99011 9.1086,-3.06171 14.92593,-2.98517 6.2764,0 11.2516,1.0716 14.8492,3.29134 3.8271,2.44937 6.9653,5.81725 8.9555,9.87401 4.7456,-5.12836 9.032,-8.57278 12.9357,-10.48635 3.9037,-1.83703 8.6493,-2.75554 14.39,-2.75554 8.4197,0 15.0024,2.52591 19.6715,7.50119 4.7457,4.97528 7.0419,12.78264 7.0419,23.42208 v 49.29353 h -30.1578 v -44.70096 c 0,-3.52097 -0.6889,-6.19997 -2.0667,-7.88391 -1.9901,-2.67899 -4.516,-4.05676 -7.5011,-4.05676 -3.2914,-0.0765 -6.4296,1.30122 -8.5728,3.82713 -2.1432,2.52592 -3.2148,6.65922 -3.2148,12.32339 v 40.49111 h -30.15783 v -43.17011 c 0,-3.44442 -0.2296,-5.81725 -0.6123,-7.04193 -0.6124,-1.91357 -1.7605,-3.59751 -3.2914,-4.74565 -1.6074,-1.22469 -3.5975,-1.83703 -5.5876,-1.83703 -3.2913,-0.0765 -6.4296,1.37777 -8.4962,3.90368 -2.2198,2.60246 -3.3679,6.88885 -3.3679,12.85918 v 40.03186 h -30.1578 z"
   style="stroke-width:0.765428;fill:#ffffff" />
<path
   id="path70"
   class="st0"
   d="m 1116.3372,346.55896 -28.7035,-3.06171 c 1.0716,-4.97528 2.6024,-8.95551 4.6691,-11.86413 2.3728,-3.13825 5.358,-5.66416 8.8024,-7.50119 2.7556,-1.53086 6.5827,-2.679 11.4049,-3.52097 5.2049,-0.84197 10.4098,-1.30122 15.6913,-1.22468 9.032,0 16.227,0.5358 21.7381,1.53085 5.0518,0.84197 9.7975,2.98517 13.7011,6.35305 2.526,2.21974 4.5926,5.35799 6.0469,9.41476 1.3778,3.7506 2.1432,7.65428 2.2198,11.6345 v 34.67387 c -0.077,2.90862 0.153,5.81725 0.6888,8.64933 0.6889,2.75554 1.7605,5.43453 3.0618,8.03699 h -28.2443 c -0.842,-1.45432 -1.6074,-2.98517 -2.2198,-4.59257 -0.4592,-1.6074 -0.8419,-3.29134 -0.995,-4.97528 -3.3679,3.44443 -7.3481,6.19997 -11.7111,8.11353 -5.3579,2.1432 -11.4814,3.2148 -18.5233,3.2148 -9.3382,0 -16.4567,-2.1432 -21.2789,-6.50613 -4.6691,-3.98023 -7.3481,-9.87402 -7.2715,-15.99744 0,-5.97033 1.7604,-10.86907 5.2814,-14.69621 3.521,-3.82714 9.9506,-6.73576 19.3653,-8.57279 11.2518,-2.29628 18.5999,-3.82713 21.9678,-4.74565 3.5975,-0.99505 7.1185,-2.21974 10.6394,-3.59751 0,-3.67405 -0.7654,-6.2765 -2.2963,-7.73081 -1.5308,-1.45432 -4.2098,-2.21974 -8.0369,-2.29629 -4.8988,0 -8.6494,0.76543 -11.0987,2.37283 -2.1432,1.14814 -3.6741,3.44442 -4.8988,6.88885 z m 26.1011,15.7678 c -4.1333,1.45432 -8.4197,2.75554 -12.9357,3.90368 -6.1234,1.6074 -10.0271,3.2148 -11.6345,4.8222 -3.1383,2.90862 -3.3679,7.73082 -0.4593,10.86907 0.1531,0.15308 0.3062,0.30617 0.4593,0.45925 1.6839,1.53086 4.0567,2.21974 7.2715,2.21974 3.2914,0 6.5062,-0.84197 9.3383,-2.44936 2.6024,-1.37777 4.7456,-3.44443 6.1234,-5.97034 1.2247,-2.37282 1.837,-5.35799 1.837,-9.10859 z"
   style="stroke-width:0.765428;fill:#ffffff" />
<path
   id="path72"
   class="st0"
   d="m 1180.9393,321.14676 h 28.1677 v 12.85918 c 2.679,-5.58762 5.5111,-9.41475 8.4197,-11.48141 2.9087,-2.06665 6.4296,-3.13825 10.6395,-3.13825 4.4395,0 9.2617,1.37777 14.5431,4.13331 l -9.3382,21.43197 c -3.521,-1.45431 -6.3531,-2.21974 -8.4197,-2.21974 -3.7506,-0.15309 -7.195,1.76048 -9.1851,4.89873 -3.1383,4.59257 -4.6691,13.16536 -4.6691,25.71837 v 26.33071 h -30.2344 z"
   style="stroke-width:0.765428;fill:#ffffff" />
<path
   id="path74"
   class="st0"
   d="m 1243.5513,291.29509 h 30.7702 v 55.87621 l 22.427,-26.02454 h 36.9701 l -28.1677,27.47885 29.7751,50.97747 h -33.8319 l -15.9208,-31.45907 -11.3284,11.0987 v 20.36037 h -30.7702 z"
   style="stroke-width:0.765428;fill:#ffffff" />


<path
   id="path78_3_-3"
   inkscape:connector-curvature="0"
   class="st0"
   d="m 687.41449,309.63455 h -29.44286 c 0,0 11.88449,-6.824 29.44286,-22.46553 z"
   style="fill:#ffffff;stroke-width:0.766744" /><g
   id="g82"
   transform="matrix(1.0017166,0,0,1.0017166,-428.97806,-1.0136042)"
   style="fill:#ffffff"><path
     id="path78_2_"
     inkscape:connector-curvature="0"
     class="st0"
     d="M 477.42398,457.20001 C 516.37306,437.25857 586.8,353.6 615.7,301.5 c 0,0 -119.8,17.1 -183.4,1.3 -2.9,-0.7 -4.6,-3.7 -3.9,-6.5 0.2,-0.8 0.6,-1.6 1.2,-2.3 9.1,-10.2 28.2,-21.2 52.3,-31.1 v 0.2 c 1.7,9.2 4.3,25.2 48.1,14.8 l 65.7,-11.8 c 8.8,-1.6 16.1,-7.8 19.1,-16.2 l 4.6,-18.2 c 4.4,-0.2 8.8,-0.2 13,-0.1 L 664,107.1 c 13.7,-40.5 22.6,-52 38.3,-73.8 3.2,-4.4 5.4,-7.5 5.4,-7.5 1.3,-2.6 3,-4.8 5.1,-6.8 0.5,-0.4 0.8,-1 1.1,-1.5 7.9,-20 12.9,-16.2 12.9,-16.2 l -7.1,18.8 -17.3,48.7 v 0 c -7.2,27.5 -16.3,61.4 -18.9,127.4 l -0.8,37.9 c 0,0 65.9,14.6 338.7,-7.7 2.8,-0.2 5.2,-2.1 6.2,-4.7 l 34.7,-93.5 c 1.2,-0.4 -26.1,-12.3 -26.7,-14.9 -0.9,-4.5 26,-2.2 26,-2.2 l 36.1,11.3 16.3,-1.9 c 0.3,0 0.7,0.2 0.7,0.5 v 0.1 6.7 l 18.8,8.1 c -5.8,2.9 -12.6,3.6 -18.8,1.8 l 1.1,84 c 0,0.5 -0.3,0.9 -0.8,1.1 l -23.8,8.3 c -0.7,0.3 -1.5,0.4 -2.3,0.5 -3.3,0.4 -13.6,2.2 -18.3,9.6 -0.3,0.5 -0.8,0.8 -1.3,1 -1.5,0.4 -4.9,0.5 -9.9,-4.5 -0.4,-0.4 -0.9,-0.6 -1.4,-0.6 -18.3,1.3 -326.2,24.3 -374.9,46.4 0,0 -14,120.2 -48.1,173.7 H 529.8 Z"
     sodipodi:nodetypes="cccsccccccccccccccccscccccccccsccccccccccsccccc"
     style="fill:#ffffff" /></g><path
   id="path78_4_"
   inkscape:connector-curvature="0"
   class="st1"
   d="m 55.701575,262.51147 c 0,0.1 0,0.2 0,0.2 1.7,9.2 4.3,25.2 48.199975,14.8 l 65.8,-11.8 c 8.8,-1.6 16.1,-7.8 19.1,-16.2 l 4.6,-18.2 c -46.5,5 -92.09999,12.5 -137.699975,31.2 z"
   style="fill:#aaaaaa" /><path
   id="path4"
   class="st0"
   d="m 367.51947,408.78821 h 15.232 v 37.19978 h 23.8048 v 12.09376 h -39.0368 z"
   style="fill:#ffffff;stroke-width:0.765428" /><path
   id="path6"
   class="st0"
   d="m 406.63281,441.77814 14.54313,-0.91851 c 0.15308,1.91357 0.84197,3.75059 1.91357,5.35799 1.60739,1.99011 3.82713,2.98517 6.73576,2.98517 1.83702,0.15308 3.59751,-0.45926 5.05182,-1.53086 1.0716,-0.84197 1.76048,-2.14319 1.76048,-3.52096 0,-1.30123 -0.61234,-2.60246 -1.68394,-3.44443 -1.14814,-0.99505 -3.75059,-1.99011 -7.80736,-2.83208 -6.65922,-1.53085 -11.48141,-3.52097 -14.31349,-5.97033 -2.83209,-2.37283 -4.36294,-5.8938 -4.2864,-9.56785 0,-2.52591 0.76543,-5.05182 2.21974,-7.19502 1.6074,-2.37282 3.90368,-4.28639 6.65922,-5.35799 2.98517,-1.30123 6.96539,-1.91357 12.09376,-1.91357 6.2765,0 11.0987,1.14814 14.39003,3.52097 3.29134,2.37282 5.28145,6.04688 5.8938,11.17524 l -14.39004,0.84197 c -0.38271,-2.21974 -1.14814,-3.82714 -2.37283,-4.82219 -1.45431,-1.0716 -3.21479,-1.6074 -5.05182,-1.53086 -1.45431,-0.0765 -2.83208,0.30617 -3.98022,1.14814 -0.84197,0.68889 -1.37777,1.68394 -1.37777,2.75554 0,0.84197 0.45926,1.6074 1.0716,2.1432 0.68888,0.68888 2.44937,1.22468 5.12836,1.83703 6.65922,1.45431 11.40487,2.90862 14.3135,4.36293 2.60245,1.22469 4.74565,3.06171 6.2765,5.43454 1.30123,2.21974 1.99011,4.74565 1.99011,7.27156 0,3.13825 -0.91851,6.12342 -2.60245,8.72587 -1.76048,2.679 -4.36294,4.8222 -7.3481,6.04688 -3.13826,1.37777 -7.11848,2.06666 -11.86413,2.06666 -8.4197,0 -14.23695,-1.6074 -17.45175,-4.8222 -3.29134,-3.29134 -5.20491,-7.65427 -5.51108,-12.24684 z"
   style="fill:#ffffff;stroke-width:0.765428" /><path
   id="path8"
   class="st0"
   d="m 450.03256,408.78821 h 15.92089 l 11.0987,35.51584 10.94561,-35.51584 h 15.46164 l -18.29372,49.29354 h -16.53324 z"
   style="fill:#ffffff;stroke-width:0.765428" /><path
   id="path10"
   class="st0"
   d="m 523.20743,458.08175 v -49.29354 h 25.41223 c 4.66903,0 8.26654,0.38272 10.79245,1.22469 2.44937,0.76543 4.59257,2.37282 6.04688,4.51602 4.36294,6.35305 2.83208,15.00238 -3.52097,19.36532 -0.22963,0.15308 -0.5358,0.38271 -0.76542,0.5358 -1.68395,0.91851 -3.44443,1.6074 -5.358,1.91357 1.37777,0.38271 2.75554,0.99505 3.98023,1.83702 0.91851,0.76543 1.76048,1.6074 2.44936,2.60246 0.84197,0.91851 1.53086,1.99011 2.1432,3.06171 l 7.34811,14.23695 h -17.22212 l -8.11346,-15.07892 c -0.99506,-1.91357 -1.91357,-3.2148 -2.75554,-3.82714 -1.0716,-0.76543 -2.37282,-1.14814 -3.75059,-1.14814 h -1.37777 v 20.0542 z m 15.30851,-29.31588 h 6.42959 c 1.37777,-0.0765 2.679,-0.30617 4.05677,-0.68888 0.99505,-0.15309 1.83702,-0.76543 2.44937,-1.53086 1.45431,-1.99011 1.22468,-4.82219 -0.5358,-6.50613 -0.99506,-0.84197 -2.90863,-1.30123 -5.66417,-1.30123 h -6.73576 z"
   style="fill:#ffffff;stroke-width:0.765428" /><path
   id="path12"
   class="st0"
   d="m 607.94022,458.08175 h -12.78264 v -5.81725 c -1.53086,2.06665 -3.52097,3.82714 -5.74071,5.05182 -2.21974,1.0716 -4.66911,1.6074 -7.11847,1.53086 -3.7506,0 -6.73577,-1.14815 -8.87896,-3.36789 -2.1432,-2.21974 -3.2148,-5.7407 -3.2148,-10.40981 v -22.7332 h 13.7777 v 19.67149 c 0,2.21974 0.38271,3.82714 1.22468,4.74565 0.91851,0.99506 2.1432,1.45431 3.52097,1.37777 1.53085,0 3.06171,-0.68888 3.98022,-1.91357 1.0716,-1.22468 1.53085,-3.52097 1.53085,-6.73576 v -17.14558 h 13.70116 z"
   style="fill:#ffffff;stroke-width:0.765428" /><path
   id="path14"
   class="st0"
   d="m 612.07353,408.78821 h 13.70115 v 18.14064 c 1.6074,-1.68394 3.44442,-3.13826 5.51108,-4.13331 2.06665,-0.84197 4.28639,-1.30123 6.50613,-1.22469 3.7506,0 6.65922,1.14815 8.80242,3.36789 2.1432,2.21974 3.21479,5.7407 3.21479,10.40981 v 22.65666 h -13.77769 v -19.67149 c 0,-2.21974 -0.38272,-3.82714 -1.22469,-4.74565 -0.91851,-0.99506 -2.21974,-1.45432 -3.52096,-1.37777 -1.53086,-0.0765 -3.06171,0.68888 -4.05677,1.91357 -1.0716,1.30122 -1.53085,3.52096 -1.53085,6.73576 v 17.14558 h -13.70116 z"
   style="fill:#ffffff;stroke-width:0.765428" /><path
   id="path16"
   class="st0"
   d="m 653.94241,422.33628 h 12.85919 v 5.89379 c 1.22468,-2.52591 2.52591,-4.28639 3.82713,-5.2049 1.45432,-0.99506 3.13826,-1.45432 4.89874,-1.45432 2.29628,0.0765 4.59256,0.76543 6.65922,1.91357 l -4.20985,9.79748 c -1.22469,-0.5358 -2.52591,-0.91852 -3.82714,-0.99506 -1.68394,-0.0765 -3.29134,0.76543 -4.20985,2.21974 -1.45431,2.06665 -2.1432,5.97033 -2.1432,11.71104 v 11.94067 h -13.77769 v -35.82201 z"
   style="fill:#ffffff;stroke-width:0.765428" /><path
   id="path18"
   class="st0"
   d="m 677.59412,434.81275 h 19.90112 v 10.5629 h -19.90112 z"
   style="fill:#ffffff;stroke-width:0.765428" /><path
   id="path20"
   class="st0"
   d="m 699.86806,408.78821 h 15.23209 v 37.19978 h 23.80472 v 12.09376 h -39.03681 z"
   style="fill:#ffffff;stroke-width:0.765428" /><path
   id="path22"
   class="st0"
   d="m 780.39112,443.61517 h -27.47885 c 0.0765,1.76048 0.68888,3.52096 1.76041,4.89873 1.3013,1.53086 3.21487,2.37283 5.20498,2.29629 1.37769,0 2.679,-0.38272 3.82714,-0.99506 0.91859,-0.61234 1.76048,-1.37777 2.37282,-2.29628 l 13.47153,1.22468 c -1.68394,3.2148 -4.2864,5.89379 -7.50119,7.73082 -2.90863,1.53086 -7.11848,2.37283 -12.55309,2.37283 -4.74565,0 -8.49625,-0.68889 -11.17524,-1.99012 -2.83208,-1.45431 -5.12837,-3.59751 -6.73576,-6.35304 -1.83703,-3.06171 -2.75547,-6.65922 -2.679,-10.25673 0,-5.58762 1.76048,-10.10365 5.35799,-13.54807 3.59751,-3.44442 8.49625,-5.20491 14.84937,-5.20491 5.12844,0 9.10859,0.76543 12.09376,2.29628 2.90862,1.45432 5.28152,3.82714 6.73576,6.73577 1.53086,2.90862 2.29628,6.73576 2.29628,11.48141 z m -13.93071,-6.50614 c -0.2297,-2.67899 -0.99513,-4.51602 -2.14327,-5.66416 -2.75546,-2.44937 -6.96547,-2.29628 -9.41476,0.45926 -0.0765,0.15308 -0.22963,0.22962 -0.30625,0.38271 -0.91843,1.45431 -1.53085,3.06171 -1.60732,4.82219 z"
   style="fill:#ffffff;stroke-width:0.765428" /><path
   id="path24"
   class="st0"
   d="m 782.45787,422.33628 h 12.7826 v 5.89379 c 1.5309,-2.06665 3.5209,-3.82713 5.8172,-5.12836 2.2198,-1.0716 4.6691,-1.6074 7.1185,-1.53086 3.8272,0 6.7357,1.14815 8.879,3.36789 2.1431,2.21974 3.2147,5.7407 3.2147,10.48635 v 22.65666 h -13.7777 v -19.67149 c 0,-2.21974 -0.3827,-3.82714 -1.2247,-4.74565 -0.9184,-0.99506 -2.2197,-1.45431 -3.5208,-1.37777 -1.5309,-0.0765 -3.0618,0.68888 -4.0568,1.91357 -0.9951,1.30123 -1.5309,3.52097 -1.5309,6.73576 v 17.14558 h -13.7011 z"
   style="fill:#ffffff;stroke-width:0.765428" /><path
   id="path26"
   class="st0"
   d="m 824.25017,422.33628 h 12.7826 v 5.89379 c 1.5308,-2.06665 3.521,-3.82713 5.8172,-5.12836 2.2198,-1.0716 4.6691,-1.6074 7.1186,-1.53086 3.8271,0 6.7357,1.14815 8.8789,3.36789 2.1432,2.21974 3.2148,5.7407 3.2148,10.48635 v 22.65666 h -13.7777 v -19.67149 c 0,-2.21974 -0.3827,-3.82714 -1.2247,-4.74565 -0.9184,-0.99506 -2.2198,-1.45431 -3.521,-1.37777 -1.5308,-0.0765 -3.0617,0.68888 -4.0567,1.91357 -0.995,1.30123 -1.5308,3.52097 -1.5308,6.73576 v 17.14558 h -13.7012 z"
   style="fill:#ffffff;stroke-width:0.765428" /><path
   id="path28"
   class="st0"
   d="m 905.69167,443.61517 h -27.4788 c 0.2295,2.21974 0.8419,3.82714 1.7604,4.89873 1.3013,1.53086 3.2148,2.37283 5.205,2.29629 1.3776,0 2.679,-0.38272 3.8271,-0.99506 0.9184,-0.61234 1.7604,-1.37777 2.3727,-2.29628 l 13.4716,1.22468 c -1.684,3.2148 -4.2864,5.89379 -7.5012,7.73082 -2.9086,1.53086 -7.1185,2.37283 -12.553,2.37283 -4.7457,0 -8.4963,-0.68889 -11.1753,-1.99012 -2.8321,-1.45431 -5.1283,-3.59751 -6.7357,-6.35304 -1.8371,-3.06171 -2.7555,-6.65922 -2.679,-10.25673 0,-5.58762 1.7604,-10.10365 5.358,-13.54807 3.5975,-3.44442 8.4962,-5.20491 14.8493,-5.20491 5.1283,0 9.1086,0.76543 12.0937,2.29628 2.9086,1.45432 5.2815,3.82714 6.7358,6.73577 1.5308,2.90862 2.2963,6.73576 2.2963,11.48141 z m -13.9308,-6.50614 c -0.3062,-2.67899 -0.995,-4.51602 -2.1432,-5.66416 -2.7555,-2.44937 -6.9654,-2.21974 -9.4913,0.5358 -0.076,0.15308 -0.2297,0.22963 -0.3061,0.38271 -0.9186,1.45432 -1.5309,3.06171 -1.6074,4.8222 z"
   style="fill:#ffffff;stroke-width:0.765428" /><path
   id="path30"
   class="st0"
   d="m 928.04217,408.78821 h 15.3086 v 49.29354 h -15.3086 z"
   style="fill:#ffffff;stroke-width:0.765428" /><path
   id="path32"
   class="st0"
   d="m 946.71867,448.20773 13.6245,-1.30122 c 0.3827,1.37777 1.2247,2.60245 2.3728,3.44442 1.2247,0.76543 2.6025,1.14814 4.0568,1.0716 1.5308,0.0765 2.9852,-0.30617 4.2864,-1.14814 0.7654,-0.45926 1.1481,-1.30123 1.1481,-2.21974 0,-0.99506 -0.6123,-1.91357 -1.5308,-2.29629 -0.7655,-0.38271 -2.679,-0.84197 -5.8938,-1.37776 -3.3679,-0.45926 -6.6592,-1.22469 -9.874,-2.29629 -1.8371,-0.68888 -3.521,-1.99011 -4.6692,-3.59751 -1.2246,-1.68394 -1.9135,-3.67405 -1.9135,-5.7407 -0.077,-2.21974 0.6889,-4.36294 2.0666,-6.12342 1.4543,-1.76049 3.4445,-3.13826 5.6642,-3.82714 3.1383,-0.91851 6.4297,-1.37777 9.6444,-1.30123 4.2864,0 7.4246,0.30617 9.4147,0.99506 1.9136,0.61234 3.6741,1.6074 5.0519,3.06171 1.5308,1.6074 2.679,3.52096 3.3678,5.51108 l -13.0122,1.30122 c -0.2296,-0.99505 -0.842,-1.91357 -1.684,-2.52591 -1.1481,-0.76543 -2.5259,-1.14814 -3.9036,-1.0716 -1.2247,-0.0765 -2.3729,0.22963 -3.3679,0.84197 -0.6889,0.45926 -1.0716,1.22469 -1.0716,1.99012 0,0.84197 0.5358,1.68394 1.3777,1.99011 0.9186,0.45925 2.8321,0.84197 5.8938,1.22468 4.5161,0.5358 7.9605,1.22469 10.1802,2.1432 2.0667,0.76543 3.8272,2.1432 5.1284,3.90368 1.1481,1.6074 1.7605,3.59751 1.7605,5.58762 0,2.1432 -0.6889,4.20985 -1.8371,6.04688 -1.4543,2.14319 -3.5209,3.75059 -5.8937,4.66911 -2.679,1.14814 -6.3531,1.76048 -10.9457,1.76048 -6.5061,0 -11.1752,-0.91851 -13.9307,-2.83208 -2.9087,-1.83703 -4.8222,-4.66911 -5.511,-7.88391 z"
   style="fill:#ffffff;stroke-width:0.765428" /><path
   id="path34"
   class="st0"
   d="m 1026.7057,443.61517 h -27.47873 c 0.077,1.76048 0.6889,3.52096 1.76043,4.89873 1.3013,1.53086 3.2149,2.37283 5.2048,2.29629 1.3778,0 2.679,-0.38272 3.8271,-0.99506 0.9186,-0.61234 1.7605,-1.37777 2.3729,-2.29628 l 13.4715,1.22468 c -2.0667,3.59751 -4.5926,6.12342 -7.5012,7.73082 -2.9086,1.6074 -7.1185,2.37283 -12.5529,2.37283 -4.7457,0 -8.41973,-0.68889 -11.17533,-1.99012 -2.832,-1.45431 -5.1283,-3.59751 -6.7357,-6.35304 -1.837,-3.06171 -2.7556,-6.65922 -2.679,-10.25673 0,-5.58762 1.7605,-10.10365 5.358,-13.54807 3.5975,-3.44442 8.4962,-5.20491 14.84933,-5.20491 5.1282,0 9.1085,0.76543 12.0936,2.29628 2.9087,1.45432 5.2815,3.82714 6.7358,6.73577 1.5308,2.90862 2.2963,6.73576 2.2963,11.48141 z m -13.9308,-6.50614 c -0.2296,-2.67899 -0.995,-4.51602 -2.1431,-5.66416 -2.7556,-2.44937 -6.9653,-2.29628 -9.4148,0.45926 -0.076,0.15308 -0.2295,0.22962 -0.3061,0.38271 -0.91853,1.45431 -1.53093,3.06171 -1.60743,4.82219 z"
   style="fill:#ffffff;stroke-width:0.765428" /><path
   id="path36"
   class="st0"
   d="m 1028.9255,422.33628 h 12.8591 v 5.89379 c 1.2247,-2.52591 2.526,-4.28639 3.8271,-5.2049 1.4544,-0.99506 3.1383,-1.45432 4.8223,-1.45432 2.2963,0.0765 4.5926,0.76543 6.6591,1.91357 l -4.2098,9.79748 c -1.2246,-0.5358 -2.5259,-0.91852 -3.8272,-0.99506 -1.6838,-0.0765 -3.2912,0.76543 -4.2098,2.21974 -1.3777,2.06665 -2.1431,5.97033 -2.1431,11.71104 v 11.94067 h -13.7777 z"
   style="fill:#ffffff;stroke-width:0.765428" /><path
   id="path38"
   class="st0"
   d="m 1057.9352,408.78821 h 13.7777 v 49.29354 h -13.7777 z"
   style="fill:#ffffff;stroke-width:0.765428" /><path
   id="path40"
   class="st0"
   d="m 1074.545,440.32383 c -0.1532,-5.05182 1.837,-9.95056 5.511,-13.47153 3.6741,-3.52096 8.6494,-5.28145 14.9258,-5.28145 7.1185,0 12.5531,2.06666 16.2271,6.19997 2.9852,3.44442 4.5161,7.80736 4.4394,12.32338 0,5.51108 -1.837,10.0271 -5.511,13.47153 -3.6741,3.52096 -8.7258,5.28145 -15.1555,5.28145 -5.7407,0 -10.4097,-1.45432 -13.9307,-4.36294 -4.2864,-3.36788 -6.6593,-8.64933 -6.5061,-14.16041 z m 13.7011,0 c 0,3.21479 0.6123,5.51108 1.9136,7.04193 2.2197,2.679 6.1999,3.06171 8.8789,0.84197 0.3062,-0.22963 0.5358,-0.5358 0.842,-0.84197 1.3012,-1.53085 1.9136,-3.90368 1.9136,-7.27156 0,-3.13825 -0.6124,-5.43453 -1.9136,-6.88885 -1.1481,-1.45431 -2.9087,-2.29628 -4.7457,-2.29628 -1.9136,-0.0765 -3.7506,0.84197 -4.9753,2.29628 -1.2247,1.6074 -1.9136,3.98023 -1.9135,7.11848 z"
   style="fill:#ffffff;stroke-width:0.765428" /><path
   id="path42"
   class="st0"
   d="m 1117.9446,408.78821 h 13.7013 v 18.14064 c 1.6073,-1.68394 3.4444,-3.13826 5.5876,-4.13331 2.0666,-0.84197 4.2864,-1.30123 6.5061,-1.22469 3.7506,0 6.6592,1.14815 8.8024,3.36789 2.1431,2.29628 3.2148,5.7407 3.2148,10.40981 v 22.65666 h -13.7777 v -19.67149 c 0,-2.21974 -0.3827,-3.82714 -1.2247,-4.74565 -0.9185,-0.99506 -2.2197,-1.45432 -3.5209,-1.37777 -1.5309,-0.0765 -3.0617,0.68888 -4.0568,1.91357 -0.995,1.30122 -1.5308,3.52096 -1.5308,6.73576 v 17.14558 h -13.7012 z"
   style="fill:#ffffff;stroke-width:0.765428" /><path
   id="path44"
   class="st0"
   d="m 1159.737,422.33628 h 12.7827 v 5.89379 c 1.5308,-2.06665 3.5209,-3.82713 5.8172,-5.12836 2.2198,-1.0716 4.6691,-1.6074 7.1185,-1.53086 3.7506,0 6.7357,1.14815 8.879,3.36789 2.1431,2.21974 3.2147,5.7407 3.2147,10.48635 v 22.65666 h -13.7777 v -19.67149 c 0,-2.21974 -0.3827,-3.82714 -1.2246,-4.74565 -0.9185,-0.99506 -2.2198,-1.45431 -3.521,-1.37777 -1.5308,-0.0765 -3.0617,0.68888 -4.0567,1.91357 -0.9951,1.30123 -1.5309,3.52097 -1.5309,6.73576 v 17.14558 h -13.7012 z"
   style="fill:#ffffff;stroke-width:0.765428" /><path
   id="path46"
   class="st0"
   d="m 1259.9314,443.61517 h -27.4788 c 0.076,1.76048 0.6889,3.52096 1.7605,4.89873 1.3012,1.53086 3.2148,2.37283 5.2049,2.29629 1.3777,0 2.679,-0.38272 3.8271,-0.99506 0.9186,-0.61234 1.7605,-1.37777 2.3728,-2.29628 l 13.4716,1.22468 c -1.684,3.2148 -4.2864,5.89379 -7.5012,7.73082 -2.9087,1.53086 -7.1185,2.37283 -12.553,2.37283 -4.7457,0 -8.4963,-0.68889 -11.1753,-1.99012 -2.8321,-1.45431 -5.1283,-3.59751 -6.7357,-6.35304 -1.8371,-3.06171 -2.7556,-6.65922 -2.679,-10.25673 0,-5.58762 1.7604,-10.10365 5.358,-13.54807 3.5975,-3.44442 8.4962,-5.20491 14.8492,-5.20491 5.1285,0 9.1086,0.76543 12.0938,2.29628 2.9086,1.45432 5.2815,3.82714 6.7358,6.73577 1.5308,2.90862 2.2962,6.73576 2.2962,11.48141 z m -13.9307,-6.50614 c -0.2297,-2.67899 -0.9951,-4.51602 -2.1432,-5.66416 -2.7555,-2.44937 -6.9654,-2.29628 -9.4147,0.45926 -0.077,0.15308 -0.2297,0.22962 -0.3062,0.38271 -0.9186,1.45431 -1.5309,3.06171 -1.6074,4.82219 z"
   style="fill:#ffffff;stroke-width:0.765428" /><path
   id="path48"
   class="st0"
   d="m 1262.0747,444.3806 h 14.6197 v 13.70115 h -14.6197 z"
   style="fill:#ffffff;stroke-width:0.765428" /><path
   id="path50"
   class="st0"
   d="m 1276.8475,408.78821 h 15.9208 l 11.0987,35.51584 10.9457,-35.51584 h 15.4616 l -18.2938,49.29354 h -16.5332 z"
   style="fill:#ffffff;stroke-width:0.765428" /><path
   id="path52"
   class="st0"
   d="m 1321.3953,444.3806 h 14.6197 v 13.70115 h -14.6197 z"
   style="fill:#ffffff;stroke-width:0.765428" /></svg>
