<?xml version="1.0" encoding="UTF-8" standalone="no"?>
<svg
   viewBox="0 0 685.38385 186.58793"
   height="186.58794"
   width="685.38385"
   xml:space="preserve"
   id="svg2"
   version="1.1"
   sodipodi:docname="logo.svg"
   inkscape:version="1.2.2 (b0a8486541, 2022-12-01)"
   xmlns:inkscape="http://www.inkscape.org/namespaces/inkscape"
   xmlns:sodipodi="http://sodipodi.sourceforge.net/DTD/sodipodi-0.dtd"
   xmlns="http://www.w3.org/2000/svg"
   xmlns:svg="http://www.w3.org/2000/svg"
   xmlns:rdf="http://www.w3.org/1999/02/22-rdf-syntax-ns#"
   xmlns:cc="http://creativecommons.org/ns#"
   xmlns:dc="http://purl.org/dc/elements/1.1/"><sodipodi:namedview
     id="namedview16"
     pagecolor="#ffffff"
     bordercolor="#666666"
     borderopacity="1.0"
     inkscape:showpageshadow="2"
     inkscape:pageopacity="0.0"
     inkscape:pagecheckerboard="0"
     inkscape:deskcolor="#d1d1d1"
     showgrid="false"
     inkscape:zoom="0.21024124"
     inkscape:cx="-137.93678"
     inkscape:cy="111.77636"
     inkscape:window-width="1920"
     inkscape:window-height="997"
     inkscape:window-x="0"
     inkscape:window-y="0"
     inkscape:window-maximized="1"
     inkscape:current-layer="svg2" /><metadata
     id="metadata8"><rdf:RDF><cc:Work
         rdf:about=""><dc:format>image/svg+xml</dc:format><dc:type
           rdf:resource="http://purl.org/dc/dcmitype/StillImage" /></cc:Work></rdf:RDF></metadata><defs
     id="defs6"><clipPath
       id="clipPath18"
       clipPathUnits="userSpaceOnUse"><path
         id="path16"
         d="M 0,0 H 595.276 V 841.89 H 0 Z" /></clipPath></defs><g
     transform="matrix(1.3333333,0,0,-1.3333333,-52.913065,672.75578)"
     id="g10"><g
       id="g12"><g
         clip-path="url(#clipPath18)"
         id="g14"><g
           transform="translate(201.8781,455.0108)"
           id="g20"><path
             id="path22"
             style="fill:#08638f;fill-opacity:1;fill-rule:nonzero;stroke:none"
             d="M 0,0 H 4.256 V 1.797 H 1.767 V 13.919 H 0 Z M 25.975,13.919 H 24.208 V 3.511 c 0,-1.714 0.019,-1.943 0.399,-2.591 0.399,-0.69 1.216,-1.108 2.109,-1.129 0.874,0 1.672,0.418 2.09,1.129 0.38,0.606 0.418,0.836 0.418,2.612 V 13.919 H 27.438 V 2.717 c 0,-0.794 -0.209,-1.129 -0.722,-1.129 -0.532,0 -0.741,0.356 -0.741,1.15 z m 23.493,0 V 0 h 1.767 v 6.395 h 1.748 v 1.819 h -1.748 v 3.908 h 2.489 v 1.797 z M 75.086,0 h 1.786 v 12.122 h 1.71 v 1.797 h -5.149 v -1.797 h 1.653 z M 98.372,4.013 C 98.353,3.678 98.353,3.553 98.353,3.24 c 0,-1.192 0.133,-1.756 0.551,-2.404 0.475,-0.711 1.159,-1.045 2.128,-1.045 1.653,0 2.565,1.024 2.565,2.905 0,1.191 -0.456,2.613 -1.273,3.908 l -0.893,1.443 -0.437,0.731 c -0.646,1.066 -0.798,1.505 -0.798,2.236 0,0.857 0.247,1.317 0.741,1.317 0.627,0 0.779,-0.439 0.779,-2.153 l 1.729,0.188 v 0.377 c 0,2.278 -0.798,3.385 -2.413,3.385 -1.577,0 -2.603,-1.17 -2.603,-3.009 0,-1.212 0.361,-2.216 1.444,-3.971 l 0.874,-1.442 0.399,-0.585 c 0.418,-0.628 0.684,-1.463 0.684,-2.153 0,-0.92 -0.285,-1.38 -0.817,-1.38 -0.665,0 -0.893,0.46 -0.893,1.902 v 0.627 z m 27.075,3.448 v 4.661 h 0.247 c 0.931,0 1.197,-0.334 1.216,-1.526 l 0.038,-0.815 -0.038,-0.815 c -0.019,-1.17 -0.285,-1.505 -1.216,-1.505 z m -1.767,6.458 V 0 h 1.786 v 5.643 h 0.228 c 1.045,0 1.805,0.293 2.299,0.899 0.513,0.669 0.665,1.358 0.665,3.365 0,1.484 -0.114,2.048 -0.513,2.8 -0.494,0.962 -1.083,1.212 -2.793,1.212 z M 151.84,2.717 c 0,-0.773 -0.209,-1.129 -0.722,-1.129 -0.532,0 -0.741,0.335 -0.741,1.15 v 8.443 c 0,0.795 0.209,1.129 0.741,1.15 0.513,0 0.722,-0.334 0.722,-1.15 z m -3.23,0.836 c 0,-1.735 0.019,-1.985 0.399,-2.633 0.399,-0.69 1.216,-1.108 2.109,-1.129 0.874,0 1.672,0.418 2.09,1.129 0.38,0.627 0.418,0.856 0.418,2.633 v 6.834 c 0,1.735 -0.038,1.965 -0.418,2.613 -0.399,0.69 -1.216,1.128 -2.09,1.128 -0.893,0 -1.691,-0.418 -2.109,-1.128 -0.38,-0.627 -0.399,-0.857 -0.399,-2.613 z m 26.987,4.305 v 4.264 h 0.247 c 0.969,0 1.235,-0.376 1.235,-1.756 V 10.304 9.363 C 177.06,8.235 176.756,7.858 175.844,7.858 Z m -1.767,6.061 V 0 h 1.767 v 5.915 c 0.266,0 0.342,0 0.627,0.062 L 177.25,0 h 1.9 l -1.235,6.646 c 0.722,1.024 0.893,1.651 0.893,3.365 0,1.191 -0.152,1.965 -0.494,2.634 -0.494,0.982 -1.159,1.274 -2.755,1.274 z M 200.307,0 h 1.786 v 12.122 h 1.71 v 1.797 h -5.149 v -1.797 h 1.653 z m 26.881,0 1.843,13.919 H 227.34 L 226.77,9.133 C 226.637,7.984 226.599,7.67 226.542,6.667 L 226.371,4.18 h -0.076 c -0.152,2.613 -0.209,3.198 -0.437,4.953 l -0.589,4.786 h -1.748 L 225.459,0 Z m 21.804,13.919 V 0 h 4.408 v 1.818 h -2.641 v 4.577 h 1.748 v 1.819 h -1.748 v 3.908 h 2.489 v 1.797 z m 26.191,-6.061 v 4.264 h 0.247 c 0.969,0 1.235,-0.376 1.235,-1.756 V 10.304 9.363 C 276.646,8.235 276.342,7.858 275.43,7.858 Z m -1.767,6.061 V 0 h 1.767 v 5.915 c 0.266,0 0.342,0 0.627,0.062 L 276.836,0 h 1.9 l -1.235,6.646 c 0.722,1.024 0.893,1.651 0.893,3.365 0,1.191 -0.152,1.965 -0.494,2.634 -0.494,0.982 -1.159,1.274 -2.755,1.274 z m 25.346,0 V 0 h 4.408 v 1.818 h -2.641 v 4.577 h 1.748 v 1.819 h -1.748 v 3.908 h 2.489 v 1.797 z m 26.191,0 h -1.767 V 0 h 1.767 z m 25.854,0 h -1.786 v -3.887 l 0.038,-1.359 0.057,-1.421 0.228,-2.905 h -0.076 l -0.665,2.696 -0.361,1.38 -0.266,1.024 -1.273,4.472 h -1.52 V 0 h 1.767 v 3.866 c 0,1.526 -0.095,3.115 -0.266,4.891 h 0.057 l 0.494,-2.194 0.266,-1.066 0.247,-1.004 L 349.04,0 h 1.767 z" /></g><g
           transform="translate(195.3717,398.567)"
           id="g24"><path
             id="path26"
             style="fill:#08638f;fill-opacity:1;fill-rule:nonzero;stroke:none"
             d="m 0,0 c 0,-2.96 -0.96,-4.32 -3.12,-4.32 -2.16,0 -3.04,1.28 -3.04,4.4 V 32.4 c 0,3.04 0.88,4.32 3.04,4.4 2.16,0 3.12,-1.28 3.12,-4.4 z m 7.44,29.36 c 0,6.64 -0.16,7.52 -1.68,10 -1.68,2.64 -5.12,4.32 -8.88,4.32 -3.76,0 -7.04,-1.6 -8.88,-4.32 -1.52,-2.4 -1.68,-3.28 -1.68,-10 V 3.2 c 0,-6.64 0.16,-7.6 1.76,-10.08 1.6,-2.64 5.12,-4.24 8.8,-4.32 3.76,0 7.12,1.6 8.88,4.32 1.52,2.4 1.68,3.28 1.68,10.08 z M 24.951,20.8 V 36 h 1.04 c 3.92,0 5.2,-1.6 5.2,-6.16 0,-8 -0.64,-9.04 -5.2,-9.04 z m 0,-24.32 v 17.36 h 0.72 c 5.12,0 6.24,-1.52 6.24,-8.64 0,-7.2 -1.12,-8.72 -6.24,-8.72 z m 8.72,21.2 c 3.68,2.32 4.8,5.04 4.8,11.84 0,4.8 -0.96,7.76 -3.36,10.24 -2.56,2.64 -4.16,3.12 -10.88,3.12 h -6.72 V -10.4 h 7.44 c 5.92,0 9.12,1.04 11.68,3.76 2.08,2.32 2.8,5.36 2.8,12.08 0,7.52 -1.44,10.56 -5.76,12.24 M 49.63,42.88 V -10.4 h 18.56 v 6.96 H 57.07 v 17.52 h 7.36 v 6.96 H 57.07 V 36 h 10.48 v 6.88 z M 85.317,19.68 V 36 h 1.04 c 4.08,0 5.2,-1.44 5.2,-6.72 v -0.24 -3.6 c -0.08,-4.32 -1.36,-5.76 -5.2,-5.76 z m -7.44,23.2 V -10.4 h 7.44 v 22.64 c 1.12,0 1.44,0 2.64,0.24 l 4.32,-22.88 h 8 l -5.2,25.44 c 3.04,3.92 3.76,6.32 3.76,12.88 0,4.56 -0.64,7.52 -2.08,10.08 -2.08,3.76 -4.88,4.88 -11.6,4.88 z M 108.709,4.96 c -0.08,-1.28 -0.08,-1.76 -0.08,-2.96 0,-4.56 0.56,-6.72 2.32,-9.2 2,-2.72 4.88,-4 8.96,-4 6.96,0 10.8,3.92 10.8,11.12 0,4.56 -1.92,10 -5.36,14.96 l -3.76,5.52 -1.84,2.8 c -2.72,4.08 -3.36,5.76 -3.36,8.56 0,3.28 1.04,5.04 3.12,5.04 2.64,0 3.28,-1.68 3.28,-8.24 l 7.28,0.72 v 1.44 c 0,8.72 -3.36,12.96 -10.16,12.96 -6.64,0 -10.96,-4.48 -10.96,-11.52 0,-4.64 1.52,-8.48 6.08,-15.2 l 3.68,-5.52 1.68,-2.24 c 1.76,-2.4 2.88,-5.6 2.88,-8.24 0,-3.52 -1.2,-5.28 -3.44,-5.28 -2.8,0 -3.76,1.76 -3.76,7.28 v 2.4 z m 45.127,3.52 c 0.16,-2.88 0.16,-4 0.16,-5.52 0,-5.68 -0.72,-7.28 -3.28,-7.28 -2.48,0 -3.04,1.2 -3.04,5.92 v 29.36 c 0,4.64 0.56,5.84 3.04,5.84 2.56,0 3.28,-1.6 3.28,-7.68 0,-1.04 0,-1.84 -0.16,-3.52 h 7.44 c 0.16,2.08 0.16,3.04 0.16,4.24 0,9.2 -3.6,13.84 -10.72,13.84 -6.96,0 -10.56,-4.32 -10.56,-12.72 V 1.52 c 0,-8.48 3.6,-12.72 10.56,-12.72 7.2,0 10.72,4.64 10.72,14.08 0,1.52 0,2.48 -0.16,5.6 z m 31.023,5.6 V -10.4 h 7.52 v 53.28 h -7.52 V 20.96 h -6 v 21.92 h -7.44 V -10.4 h 7.44 v 24.48 z m 23.799,-24.48 h 6.56 l 1.92,14.88 c 0.4,3.2 0.48,4.56 0.8,9.44 l 0.72,9.44 h 0.24 c 0.8,-10 1.28,-15.2 1.76,-18.88 l 2.08,-14.88 h 6.4 l 6.8,53.28 h -6.8 l -1.44,-12 c -0.08,-1.04 -0.24,-2.8 -0.48,-5.28 -0.88,-8.48 -0.96,-9.76 -1.44,-20.08 h -0.24 c -0.72,9.92 -1.04,14.08 -1.68,20.16 l -0.64,5.2 -1.36,12 h -5.84 l -1.44,-12 c -0.72,-6.08 -1.04,-11.12 -1.84,-25.36 h -0.32 c -0.48,6.08 -0.8,10.56 -1.12,13.6 -0.4,5.12 -0.88,9.76 -1.12,11.76 l -1.52,12 h -6.8 z m 46.727,18.88 h -5.12 l 0.8,7.76 c 0.16,1.28 0.4,4.16 0.8,8.88 0.16,1.92 0.48,4.88 0.88,8.8 h 0.24 c 0.72,-8.48 1.04,-11.92 1.6,-17.68 z m -5.92,-6.88 h 6.72 l 1.36,-12 h 7.28 l -6.96,53.28 h -9.6 l -7.28,-53.28 h 7.2 z m 32.279,19.2 V 36 h 1.04 c 3.92,0 5.2,-1.6 5.2,-6.16 0,-8 -0.64,-9.04 -5.2,-9.04 z m 0,-24.32 v 17.36 h 0.72 c 5.12,0 6.24,-1.52 6.24,-8.64 0,-7.2 -1.12,-8.72 -6.24,-8.72 z m 8.72,21.2 c 3.68,2.32 4.8,5.04 4.8,11.84 0,4.8 -0.96,7.76 -3.36,10.24 -2.56,2.64 -4.16,3.12 -10.88,3.12 h -6.72 V -10.4 h 7.44 c 5.92,0 9.12,1.04 11.68,3.76 2.08,2.32 2.8,5.36 2.8,12.08 0,7.52 -1.44,10.56 -5.76,12.24 m 15.959,25.2 V -10.4 h 18.56 v 6.96 h -11.12 v 17.52 h 7.36 v 6.96 h -7.36 V 36 h 10.48 v 6.88 z m 51.928,0 h -7.52 V 28 l 0.16,-5.2 0.24,-5.44 0.96,-11.12 h -0.32 l -2.8,10.32 -1.52,5.28 -1.12,3.92 -5.36,17.12 h -6.4 V -10.4 h 7.44 V 4.4 c 0,5.84 -0.4,11.92 -1.12,18.72 h 0.24 l 2.08,-8.4 1.12,-4.08 1.04,-3.84 5.44,-17.2 h 7.44 z" /></g><g
           transform="translate(155.0048,457.4119)"
           id="g28"><path
             id="path30"
             style="fill:#08638f;fill-opacity:1;fill-rule:nonzero;stroke:none"
             d="m 0,0 -26.035,45.094 -89.285,10e-4 c 0,-8.543 6.997,-15.465 15.465,-15.465 h 64.891 l 8.929,-15.464 -71.428,-0.001 c 0,-8.481 6.904,-15.381 15.311,-15.463 h 65.044 l 8.179,-14.167 -0.749,-1.297 -69.928,-0.001 c 0,-8.49 6.917,-15.393 15.333,-15.464 h 45.667 l -34.807,-60.559 h 17.699 L 43.893,45.095 C 36.54,49.339 27.103,46.8 22.834,39.548 Z" /></g></g></g></g></svg>
