<?xml version="1.0" encoding="UTF-8" standalone="no"?>
<!-- Generator: Adobe Illustrator 25.4.1, SVG Export Plug-In . SVG Version: 6.00 Build 0)  -->

<svg
   version="1.1"
   id="Ebene_1"
   inkscape:version="1.1.2 (0a00cf5339, 2022-02-04, custom)"
   sodipodi:docname="sticker.svg"
   x="0px"
   y="0px"
   viewBox="0 0 1782.9784 636.3498"
   xml:space="preserve"
   width="1782.9785"
   height="636.34979"
   inkscape:export-filename="/home/neo/Phorward/www/rheinermark/assets/logo/sticker/sticker.png"
   inkscape:export-xdpi="144"
   inkscape:export-ydpi="144"
   xmlns:inkscape="http://www.inkscape.org/namespaces/inkscape"
   xmlns:sodipodi="http://sodipodi.sourceforge.net/DTD/sodipodi-0.dtd"
   xmlns="http://www.w3.org/2000/svg"
   xmlns:svg="http://www.w3.org/2000/svg"><defs
   id="defs46" />
<style
   type="text/css"
   id="style2">
	.st0{fill:#020203;}
	.st1{enable-background:new    ;}
	.st2{stroke:#000000;stroke-width:1.0032;stroke-miterlimit:4.013;}
</style>
<sodipodi:namedview
   bordercolor="#666666"
   borderopacity="1.0"
   fit-margin-bottom="0"
   fit-margin-left="0"
   fit-margin-right="0"
   fit-margin-top="0"
   id="namedview60"
   inkscape:current-layer="Ebene_1"
   inkscape:cx="462.009"
   inkscape:cy="744.10795"
   inkscape:document-units="cm"
   inkscape:pagecheckerboard="0"
   inkscape:pageopacity="0.0"
   inkscape:pageshadow="2"
   inkscape:window-height="997"
   inkscape:window-maximized="1"
   inkscape:window-width="1920"
   inkscape:window-x="0"
   inkscape:window-y="0"
   inkscape:zoom="0.34739583"
   pagecolor="#ffffff"
   showgrid="false"
   units="cm">
	</sodipodi:namedview>
<g
   id="g57"
   transform="translate(234.57012,-53.272915)">
	<g
   id="g54">
		<g
   id="g18">
			
			
			
			
			
			
			
			
			
			
			
			<g
   id="g82_2_"
   transform="matrix(1.0017166,0,0,1.0017166,-98.77961,-1.0136042)">
				<path
   id="path78_9_"
   class="st0"
   d="m 614.3,531.2 h -40.1 c 0,0 16.2,-9.3 40.1,-30.6 z" />
				<path
   id="path78_8_"
   class="st0"
   d="m 628,487.7 c 26.6,-26 59.6,-64.9 89.8,-119.4 0,0 -125.2,17.8 -191.8,1.4 -3,-0.8 -4.8,-3.9 -4.1,-6.8 0.2,-0.8 0.6,-1.7 1.3,-2.4 9.5,-10.6 28.5,-21.3 53.7,-31.6 0,0.1 0,0 0,0 1.8,9.6 5.5,27.7 51.3,16.8 l 68.7,-12.3 c 9.2,-1.6 17.8,-10.2 20.9,-18.9 l 4.8,-19 c 4.6,-0.2 8.2,-0.2 12.6,-0.1 l 33.1,-130.2 c 14.3,-42.4 23.6,-54.4 40,-77.2 3.4,-4.6 5.6,-7.9 5.6,-7.9 1.4,-2.7 3.1,-5 5.3,-7.1 0.5,-0.5 0.8,-1.1 1.1,-1.6 8.2,-20.9 13.5,-16.9 13.5,-16.9 l -7.3,19.5 -18.1,51 v 0 c -7.5,28.7 -17,64.2 -19.7,133.2 l -0.8,39.6 c 0,0 68.9,15.3 354.1,-8 2.9,-0.2 5.4,-2.2 6.4,-4.9 l 36.3,-97.7 c 1.3,-0.4 -27.3,-12.8 -27.9,-15.6 -1,-4.7 27.2,-2.3 27.2,-2.3 l 37.7,11.8 17,-1.9 c 0.3,0 0.8,0.2 0.8,0.5 v 0.1 7 l 19.6,8.5 c -6.1,3 -13.2,3.8 -19.6,1.9 l 1.1,87.8 c 0,0.5 -0.3,1 -0.8,1.1 l -24.9,8.7 c -0.8,0.3 -1.6,0.5 -2.4,0.5 -3.4,0.5 -14.2,2.3 -19.1,10 -0.3,0.5 -0.8,0.8 -1.3,1 -1.6,0.5 -5.1,0.5 -10.3,-4.7 -0.5,-0.5 -1,-0.6 -1.5,-0.6 -19.1,1.4 -341,25.4 -391.9,48.5 0,0 -14.6,125.7 -50.3,181.6 H 628 Z" />
			</g>
		</g>
		<g
   id="g52"
   class="st1">
		</g>
	</g>
	<path
   id="path78_7_"
   class="st0"
   d="m 484.6,326.3 0.1,0.4 c 1.8,9.8 5.6,23 47.5,13.3 l 65.6,-12.8 c 8.9,-1.6 14.1,-5.8 17.1,-14.1 l 4.6,-18 c -46.1,5.1 -87.8,12.3 -134.9,31.2 z" />
</g>
<g
   id="text6786"
   transform="matrix(2.7493254,0,0,2.7493254,-708.18968,-1363.7888)">
	
	
	
	
	<path
   id="path14594"
   class="st2"
   d="m 258.2,701.4 14.2,-1.3 c 0.6,1.7 1.4,2.9 2.5,3.6 1.1,0.7 2.5,1.1 4.2,1.1 1.9,0 3.4,-0.4 4.5,-1.2 0.8,-0.6 1.2,-1.4 1.2,-2.3 0,-1 -0.5,-1.8 -1.6,-2.4 -0.8,-0.4 -2.8,-0.9 -6.2,-1.5 -5,-0.9 -8.4,-1.7 -10.4,-2.4 -1.9,-0.8 -3.6,-2 -4.9,-3.8 -1.3,-1.8 -2,-3.8 -2,-6 0,-2.5 0.7,-4.6 2.1,-6.4 1.4,-1.8 3.4,-3.1 5.9,-4 2.5,-0.9 5.9,-1.3 10.1,-1.3 4.5,0 7.7,0.3 9.8,1 2.1,0.7 3.9,1.7 5.3,3.2 1.4,1.4 2.6,3.4 3.6,5.8 l -13.6,1.3 c -0.4,-1.2 -0.9,-2.1 -1.8,-2.6 -1.1,-0.8 -2.5,-1.1 -4.1,-1.1 -1.6,0 -2.8,0.3 -3.6,0.9 -0.7,0.6 -1.1,1.3 -1.1,2.1 0,0.9 0.5,1.6 1.4,2.1 0.9,0.5 3,0.9 6.1,1.3 4.8,0.5 8.3,1.3 10.6,2.2 2.3,1 4.1,2.3 5.3,4.1 1.2,1.8 1.9,3.7 1.9,5.9 0,2.2 -0.7,4.3 -2,6.3 -1.3,2 -3.3,3.7 -6.2,4.9 -2.8,1.2 -6.6,1.8 -11.4,1.8 -6.8,0 -11.7,-1 -14.6,-2.9 -2.5,-2.1 -4.4,-4.8 -5.2,-8.4 z" />
	<path
   id="path14596"
   class="st2"
   d="M 344.7,696.6 H 316 c 0.3,2.3 0.9,4 1.9,5.1 1.4,1.6 3.2,2.4 5.4,2.4 1.4,0 2.7,-0.4 4,-1.1 0.8,-0.4 1.6,-1.2 2.5,-2.4 l 14.1,1.3 c -2.2,3.7 -4.8,6.4 -7.8,8.1 -3,1.6 -7.4,2.4 -13.1,2.4 -4.9,0 -8.8,-0.7 -11.7,-2.1 -2.8,-1.4 -5.2,-3.6 -7.1,-6.6 -1.9,-3 -2.8,-6.6 -2.8,-10.7 0,-5.8 1.9,-10.6 5.6,-14.2 3.8,-3.6 8.9,-5.4 15.5,-5.4 5.3,0 9.6,0.8 12.7,2.4 3.1,1.6 5.4,4 7.1,7 1.6,3.1 2.4,7.1 2.4,12 z m -14.6,-6.8 c -0.3,-2.8 -1,-4.7 -2.2,-5.9 -1.2,-1.2 -2.8,-1.8 -4.7,-1.8 -2.3,0 -4.1,0.9 -5.4,2.7 -0.9,1.1 -1.4,2.8 -1.7,5 z" />
	<path
   id="path14598"
   class="st2"
   d="m 377.5,674.4 h 13.4 v 35.3 1.7 c 0,2.3 -0.5,4.6 -1.5,6.7 -1,2.1 -2.3,3.9 -4,5.2 -1.6,1.3 -3.7,2.3 -6.3,2.8 -2.5,0.6 -5.4,0.9 -8.7,0.9 -7.5,0 -12.7,-1.1 -15.5,-3.4 -2.8,-2.3 -4.2,-5.3 -4.2,-9 0,-0.5 0,-1.1 0.1,-1.9 l 13.9,1.6 c 0.4,1.3 0.9,2.2 1.6,2.7 1.1,0.7 2.4,1.1 4,1.1 2.1,0 3.6,-0.6 4.6,-1.7 1,-1.1 1.5,-3 1.5,-5.8 v -5.7 c -1.4,1.7 -2.8,2.9 -4.2,3.6 -2.2,1.2 -4.6,1.8 -7.1,1.8 -5,0 -9,-2.2 -12.1,-6.5 -2.2,-3.1 -3.3,-7.2 -3.3,-12.3 0,-5.8 1.4,-10.2 4.2,-13.3 2.8,-3 6.5,-4.6 11,-4.6 2.9,0 5.3,0.5 7.2,1.5 1.9,1 3.7,2.6 5.3,4.9 z m -13.4,18.1 c 0,2.7 0.6,4.7 1.7,6 1.1,1.3 2.7,1.9 4.5,1.9 1.8,0 3.3,-0.7 4.5,-2 1.2,-1.4 1.8,-3.4 1.8,-6.1 0,-2.7 -0.6,-4.8 -1.9,-6.2 -1.3,-1.5 -2.8,-2.2 -4.6,-2.2 -1.8,0 -3.3,0.7 -4.4,2 -1.1,1.3 -1.6,3.5 -1.6,6.6 z" />
	<path
   id="path14600"
   class="st2"
   d="m 439.5,696.6 h -28.7 c 0.3,2.3 0.9,4 1.9,5.1 1.4,1.6 3.2,2.4 5.4,2.4 1.4,0 2.7,-0.4 4,-1.1 0.8,-0.4 1.6,-1.2 2.5,-2.4 l 14.1,1.3 c -2.2,3.7 -4.8,6.4 -7.8,8.1 -3,1.6 -7.4,2.4 -13.1,2.4 -4.9,0 -8.8,-0.7 -11.7,-2.1 -2.8,-1.4 -5.2,-3.6 -7.1,-6.6 -1.9,-3 -2.8,-6.6 -2.8,-10.7 0,-5.8 1.9,-10.6 5.6,-14.2 3.8,-3.6 8.9,-5.4 15.5,-5.4 5.3,0 9.6,0.8 12.7,2.4 3.1,1.6 5.4,4 7.1,7 1.6,3.1 2.4,7.1 2.4,12 z M 425,689.8 c -0.3,-2.8 -1,-4.7 -2.2,-5.9 -1.2,-1.2 -2.8,-1.8 -4.7,-1.8 -2.3,0 -4.1,0.9 -5.4,2.7 -0.9,1.1 -1.4,2.8 -1.7,5 z" />
	<path
   id="path14602"
   class="st2"
   d="m 445.1,660.2 h 14.3 v 51.5 h -14.3 z" />
	<path
   id="path14604"
   class="st2"
   d="m 483,674.4 h 6.8 v 10.5 H 483 v 26.9 h -14.3 v -26.9 h -5.3 v -10.5 h 5.3 v -1.7 c 0,-1.5 0.2,-3.2 0.5,-5 0.3,-1.8 0.9,-3.3 1.8,-4.5 0.9,-1.2 2.2,-2.1 3.8,-2.8 1.6,-0.7 4,-1.1 7.2,-1.1 2.5,0 6.2,0.3 10.9,0.9 l -1.6,8.6 c -1.7,-0.3 -3.1,-0.4 -4.1,-0.4 -1.3,0 -2.2,0.2 -2.8,0.7 -0.6,0.4 -1,1.1 -1.2,2 -0.2,0.5 -0.2,1.6 -0.2,3.3 z" />
	<path
   id="path14606"
   class="st2"
   d="m 494.1,660.2 h 14.3 v 51.5 h -14.3 z" />
	<path
   id="path14608"
   class="st2"
   d="m 516.6,674.4 h 14.3 v 37.3 h -14.3 z"
   sodipodi:nodetypes="ccccc" />
	<path
   id="path14610"
   class="st2"
   d="m 580,696.6 h -28.7 c 0.3,2.3 0.9,4 1.9,5.1 1.4,1.6 3.2,2.4 5.4,2.4 1.4,0 2.7,-0.4 4,-1.1 0.8,-0.4 1.6,-1.2 2.5,-2.4 l 14.1,1.3 c -2.2,3.7 -4.8,6.4 -7.8,8.1 -3,1.6 -7.4,2.4 -13.1,2.4 -4.9,0 -8.8,-0.7 -11.7,-2.1 -2.8,-1.4 -5.2,-3.6 -7.1,-6.6 -1.9,-3 -2.8,-6.6 -2.8,-10.7 0,-5.8 1.9,-10.6 5.6,-14.2 3.8,-3.6 8.9,-5.4 15.5,-5.4 5.3,0 9.6,0.8 12.7,2.4 3.1,1.6 5.4,4 7.1,7 1.6,3.1 2.4,7.1 2.4,12 z m -14.6,-6.8 c -0.3,-2.8 -1,-4.7 -2.2,-5.9 -1.2,-1.2 -2.8,-1.8 -4.7,-1.8 -2.3,0 -4.1,0.9 -5.4,2.7 -0.9,1.1 -1.4,2.8 -1.7,5 z" />
	<path
   id="path14612"
   class="st2"
   d="m 612.8,674.4 h 13.4 v 35.3 1.7 c 0,2.3 -0.5,4.6 -1.5,6.7 -1,2.1 -2.3,3.9 -4,5.2 -1.6,1.3 -3.7,2.3 -6.3,2.8 -2.5,0.6 -5.4,0.9 -8.7,0.9 -7.5,0 -12.7,-1.1 -15.5,-3.4 -2.8,-2.3 -4.2,-5.3 -4.2,-9 0,-0.5 0,-1.1 0.1,-1.9 l 13.9,1.6 c 0.4,1.3 0.9,2.2 1.6,2.7 1.1,0.7 2.4,1.1 4,1.1 2.1,0 3.6,-0.6 4.6,-1.7 1,-1.1 1.5,-3 1.5,-5.8 v -5.7 c -1.4,1.7 -2.8,2.9 -4.2,3.6 -2.2,1.2 -4.6,1.8 -7.1,1.8 -5,0 -9,-2.2 -12.1,-6.5 -2.2,-3.1 -3.3,-7.2 -3.3,-12.3 0,-5.8 1.4,-10.2 4.2,-13.3 2.8,-3 6.5,-4.6 11,-4.6 2.9,0 5.3,0.5 7.2,1.5 1.9,1 3.7,2.6 5.3,4.9 z m -13.4,18.1 c 0,2.7 0.6,4.7 1.7,6 1.1,1.3 2.7,1.9 4.5,1.9 1.8,0 3.3,-0.7 4.5,-2 1.2,-1.4 1.8,-3.4 1.8,-6.1 0,-2.7 -0.6,-4.8 -1.9,-6.2 -1.3,-1.5 -2.8,-2.2 -4.6,-2.2 -1.8,0 -3.3,0.7 -4.4,2 -1.1,1.3 -1.6,3.5 -1.6,6.6 z" />
	<path
   id="path14614"
   class="st2"
   d="m 674.8,696.6 h -28.7 c 0.3,2.3 0.9,4 1.9,5.1 1.4,1.6 3.2,2.4 5.4,2.4 1.4,0 2.7,-0.4 4,-1.1 0.8,-0.4 1.6,-1.2 2.5,-2.4 l 14.1,1.3 c -2.2,3.7 -4.8,6.4 -7.8,8.1 -3,1.6 -7.4,2.4 -13.1,2.4 -4.9,0 -8.8,-0.7 -11.7,-2.1 -2.8,-1.4 -5.2,-3.6 -7.1,-6.6 -1.9,-3 -2.8,-6.6 -2.8,-10.7 0,-5.8 1.9,-10.6 5.6,-14.2 3.8,-3.6 8.9,-5.4 15.5,-5.4 5.3,0 9.6,0.8 12.7,2.4 3.1,1.6 5.4,4 7.1,7 1.6,3.1 2.4,7.1 2.4,12 z m -14.5,-6.8 c -0.3,-2.8 -1,-4.7 -2.2,-5.9 -1.2,-1.2 -2.8,-1.8 -4.7,-1.8 -2.3,0 -4.1,0.9 -5.4,2.7 -0.9,1.1 -1.4,2.8 -1.7,5 z" />
	<path
   id="path14616"
   class="st2"
   d="m 679.9,674.4 h 13.3 v 6.1 c 2,-2.5 4,-4.3 6,-5.3 2,-1.1 4.5,-1.6 7.5,-1.6 4,0 7.1,1.2 9.3,3.6 2.2,2.3 3.4,6 3.4,10.9 v 23.7 H 705 v -20.5 c 0,-2.3 -0.4,-4 -1.3,-5 -0.9,-1 -2.1,-1.5 -3.7,-1.5 -1.7,0 -3.1,0.7 -4.2,2 -1.1,1.3 -1.6,3.7 -1.6,7.1 v 17.9 h -14.3 z" />
	<path
   id="path14618"
   class="st2"
   d="m 726.5,697.4 h 15.3 v 14.3 h -15.3 z" />
	<path
   id="path14620"
   class="st2"
   d="m 776.7,697.1 13.6,1.5 c -0.8,2.8 -2,5.3 -3.7,7.4 -1.7,2.1 -3.9,3.7 -6.6,4.8 -2.6,1.1 -6,1.7 -10.1,1.7 -4,0 -7.3,-0.4 -9.9,-1.1 -2.6,-0.8 -4.9,-1.9 -6.8,-3.6 -1.9,-1.7 -3.4,-3.6 -4.5,-5.8 -1.1,-2.2 -1.6,-5.2 -1.6,-8.9 0,-3.8 0.7,-7 2,-9.6 1,-1.9 2.3,-3.6 3.9,-5 1.7,-1.5 3.4,-2.6 5.1,-3.3 2.8,-1.1 6.4,-1.7 10.7,-1.7 6.1,0 10.7,1.1 13.9,3.3 3.2,2.2 5.5,5.4 6.8,9.6 l -13.5,1.8 c -0.4,-1.6 -1.2,-2.8 -2.3,-3.6 -1.1,-0.8 -2.6,-1.2 -4.5,-1.2 -2.4,0 -4.3,0.9 -5.8,2.6 -1.5,1.7 -2.2,4.3 -2.2,7.7 0,3.1 0.7,5.4 2.2,7 1.5,1.6 3.3,2.4 5.6,2.4 1.9,0 3.4,-0.5 4.7,-1.4 1.4,-1.1 2.4,-2.6 3,-4.6 z" />
	<path
   id="path14622"
   class="st2"
   d="m 793.7,693.2 c 0,-5.7 1.9,-10.4 5.8,-14.1 3.8,-3.7 9,-5.6 15.6,-5.6 7.5,0 13.1,2.2 16.9,6.5 3.1,3.5 4.6,7.8 4.6,12.9 0,5.7 -1.9,10.5 -5.7,14.1 -3.8,3.7 -9.1,5.5 -15.8,5.5 -6,0 -10.9,-1.5 -14.6,-4.6 -4.6,-3.7 -6.8,-8.6 -6.8,-14.7 z m 14.3,-0.1 c 0,3.3 0.7,5.8 2,7.4 1.4,1.6 3.1,2.4 5.1,2.4 2.1,0 3.8,-0.8 5.1,-2.4 1.3,-1.6 2,-4.1 2,-7.6 0,-3.2 -0.7,-5.6 -2,-7.2 -1.3,-1.6 -3,-2.4 -5,-2.4 -2.1,0 -3.8,0.8 -5.2,2.4 -1.3,1.7 -2,4.1 -2,7.4 z" />
	<path
   id="path14624"
   class="st2"
   d="m 842,674.4 h 13.4 v 5.4 c 1.9,-2.3 3.9,-3.9 5.8,-4.9 2,-1 4.3,-1.4 7.1,-1.4 3,0 5.3,0.5 7.1,1.6 1.7,1.1 3.2,2.6 4.3,4.7 2.2,-2.4 4.3,-4.1 6.2,-5 1.9,-0.9 4.1,-1.3 6.9,-1.3 4,0 7.1,1.2 9.4,3.6 2.2,2.4 3.4,6.1 3.4,11.1 v 23.4 h -14.3 v -21.3 c 0,-1.7 -0.3,-2.9 -1,-3.8 -1,-1.3 -2.2,-1.9 -3.6,-1.9 -1.7,0 -3,0.6 -4.1,1.8 -1,1.2 -1.5,3.2 -1.5,5.9 v 19.3 H 866.8 V 691 c 0,-1.6 -0.1,-2.8 -0.3,-3.3 -0.3,-0.9 -0.8,-1.7 -1.6,-2.2 -0.8,-0.6 -1.6,-0.9 -2.6,-0.9 -1.6,0 -3,0.6 -4,1.9 -1.1,1.2 -1.6,3.3 -1.6,6.1 v 19.1 H 842 Z" />
</g>
</svg>
