<?xml version="1.0" encoding="UTF-8" standalone="no"?>
<!-- Generator: Adobe Illustrator 23.1.0, SVG Export Plug-In . SVG Version: 6.00 Build 0)  -->

<svg
   version="1.1"
   id="Ebene_1"
   x="0px"
   y="0px"
   viewBox="0 0 2500 200"
   xml:space="preserve"
   sodipodi:docname="fusszeile.svg"
   width="2500"
   height="200"
   inkscape:export-filename="/home/neo/Phorward/www/rheinermark/deploy/static/img/fusszeile.png"
   inkscape:export-xdpi="96"
   inkscape:export-ydpi="96"
   inkscape:version="1.1.1 (3bf5ae0d25, 2021-09-20, custom)"
   xmlns:inkscape="http://www.inkscape.org/namespaces/inkscape"
   xmlns:sodipodi="http://sodipodi.sourceforge.net/DTD/sodipodi-0.dtd"
   xmlns="http://www.w3.org/2000/svg"
   xmlns:svg="http://www.w3.org/2000/svg"><defs
   id="defs289" /><sodipodi:namedview
   id="namedview287"
   pagecolor="#ffffff"
   bordercolor="#666666"
   borderopacity="1.0"
   inkscape:pageshadow="2"
   inkscape:pageopacity="1"
   inkscape:pagecheckerboard="0"
   showgrid="false"
   inkscape:zoom="0.23579016"
   inkscape:cx="1465.2859"
   inkscape:cy="396.53902"
   inkscape:window-width="2040"
   inkscape:window-height="1056"
   inkscape:window-x="0"
   inkscape:window-y="0"
   inkscape:window-maximized="1"
   inkscape:current-layer="Ebene_1" />
<style
   type="text/css"
   id="style280">
	.st0{fill:#005E8A;}
</style>
<g
   id="g284"
   transform="matrix(0.27998309,0,0,0.27998309,735.4545,23.984591)">
	<path
   class="st0"
   d="M 146.3,112.4 V 117 L 88.8,163.7 H 81.2 V 149.1 H 50.4 V 430.6 H 81.2 V 177 H 88 l 57.3,35.6 -0.1,0.6 c 50.5,-5.2 57.9,25.5 112,40.7 29,8 61.6,10.3 85.5,5.2 30.3,-6.7 56,-11.4 72,-6.2 16,5.2 47.2,17.1 47.2,17.1 l 20.2,-61.7 c 0,0 -50.6,-44.1 -124.4,-39.7 -28.5,0.5 -46,0.7 -60.5,-2.9 -22.6,-5.7 -28.8,-20.9 -50.6,-35.2 -19.2,-12.9 -54.7,-13.9 -100.3,-18.1 z m -0.2,14 -0.8,77.9 -53.2,-33.1 v -1 z"
   id="path282" />
</g>
<g
   id="text6786"
   transform="matrix(1.0478688,0,0,1.0478688,874.14848,-626.33026)"
   style="fill:#005e8a;fill-opacity:1"><path
     id="path14586"
     class="st2"
     d="m 40.8,674.4 h 13.9 l 6,23.5 7.6,-23.5 h 12.9 l 7.9,23.5 6,-23.5 h 13.7 L 95,711.7 H 82.3 l -7.6,-22.5 -7.3,22.5 H 54.6 Z"
     style="fill:#005e8a;fill-opacity:1" /><path
     id="path14588"
     class="st2"
     d="m 107.2,674.4 h 13.9 l 6,23.5 7.6,-23.5 h 12.9 l 7.9,23.5 6,-23.5 h 13.7 l -13.7,37.3 h -12.7 l -7.6,-22.5 -7.3,22.5 h -12.8 z"
     style="fill:#005e8a;fill-opacity:1" /><path
     id="path14590"
     class="st2"
     d="m 173.7,674.4 h 13.9 l 6,23.5 7.6,-23.5 h 12.9 l 7.9,23.5 6,-23.5 h 13.7 L 228,711.7 h -12.7 l -7.6,-22.5 -7.3,22.5 h -12.8 z"
     style="fill:#005e8a;fill-opacity:1" /><path
     id="path14592"
     class="st2"
     d="m 238.3,697.4 h 15.3 v 14.3 h -15.3 z"
     style="fill:#005e8a;fill-opacity:1" /><path
     id="path14594"
     class="st2"
     d="m 258.2,701.4 14.2,-1.3 c 0.6,1.7 1.4,2.9 2.5,3.6 1.1,0.7 2.5,1.1 4.2,1.1 1.9,0 3.4,-0.4 4.5,-1.2 0.8,-0.6 1.2,-1.4 1.2,-2.3 0,-1 -0.5,-1.8 -1.6,-2.4 -0.8,-0.4 -2.8,-0.9 -6.2,-1.5 -5,-0.9 -8.4,-1.7 -10.4,-2.4 -1.9,-0.8 -3.6,-2 -4.9,-3.8 -1.3,-1.8 -2,-3.8 -2,-6 0,-2.5 0.7,-4.6 2.1,-6.4 1.4,-1.8 3.4,-3.1 5.9,-4 2.5,-0.9 5.9,-1.3 10.1,-1.3 4.5,0 7.7,0.3 9.8,1 2.1,0.7 3.9,1.7 5.3,3.2 1.4,1.4 2.6,3.4 3.6,5.8 l -13.6,1.3 c -0.4,-1.2 -0.9,-2.1 -1.8,-2.6 -1.1,-0.8 -2.5,-1.1 -4.1,-1.1 -1.6,0 -2.8,0.3 -3.6,0.9 -0.7,0.6 -1.1,1.3 -1.1,2.1 0,0.9 0.5,1.6 1.4,2.1 0.9,0.5 3,0.9 6.1,1.3 4.8,0.5 8.3,1.3 10.6,2.2 2.3,1 4.1,2.3 5.3,4.1 1.2,1.8 1.9,3.7 1.9,5.9 0,2.2 -0.7,4.3 -2,6.3 -1.3,2 -3.3,3.7 -6.2,4.9 -2.8,1.2 -6.6,1.8 -11.4,1.8 -6.8,0 -11.7,-1 -14.6,-2.9 -2.5,-2.1 -4.4,-4.8 -5.2,-8.4 z"
     style="fill:#005e8a;fill-opacity:1" /><path
     id="path14596"
     class="st2"
     d="M 344.7,696.6 H 316 c 0.3,2.3 0.9,4 1.9,5.1 1.4,1.6 3.2,2.4 5.4,2.4 1.4,0 2.7,-0.4 4,-1.1 0.8,-0.4 1.6,-1.2 2.5,-2.4 l 14.1,1.3 c -2.2,3.7 -4.8,6.4 -7.8,8.1 -3,1.6 -7.4,2.4 -13.1,2.4 -4.9,0 -8.8,-0.7 -11.7,-2.1 -2.8,-1.4 -5.2,-3.6 -7.1,-6.6 -1.9,-3 -2.8,-6.6 -2.8,-10.7 0,-5.8 1.9,-10.6 5.6,-14.2 3.8,-3.6 8.9,-5.4 15.5,-5.4 5.3,0 9.6,0.8 12.7,2.4 3.1,1.6 5.4,4 7.1,7 1.6,3.1 2.4,7.1 2.4,12 z m -14.6,-6.8 c -0.3,-2.8 -1,-4.7 -2.2,-5.9 -1.2,-1.2 -2.8,-1.8 -4.7,-1.8 -2.3,0 -4.1,0.9 -5.4,2.7 -0.9,1.1 -1.4,2.8 -1.7,5 z"
     style="fill:#005e8a;fill-opacity:1" /><path
     id="path14598"
     class="st2"
     d="m 377.5,674.4 h 13.4 v 35.3 1.7 c 0,2.3 -0.5,4.6 -1.5,6.7 -1,2.1 -2.3,3.9 -4,5.2 -1.6,1.3 -3.7,2.3 -6.3,2.8 -2.5,0.6 -5.4,0.9 -8.7,0.9 -7.5,0 -12.7,-1.1 -15.5,-3.4 -2.8,-2.3 -4.2,-5.3 -4.2,-9 0,-0.5 0,-1.1 0.1,-1.9 l 13.9,1.6 c 0.4,1.3 0.9,2.2 1.6,2.7 1.1,0.7 2.4,1.1 4,1.1 2.1,0 3.6,-0.6 4.6,-1.7 1,-1.1 1.5,-3 1.5,-5.8 v -5.7 c -1.4,1.7 -2.8,2.9 -4.2,3.6 -2.2,1.2 -4.6,1.8 -7.1,1.8 -5,0 -9,-2.2 -12.1,-6.5 -2.2,-3.1 -3.3,-7.2 -3.3,-12.3 0,-5.8 1.4,-10.2 4.2,-13.3 2.8,-3 6.5,-4.6 11,-4.6 2.9,0 5.3,0.5 7.2,1.5 1.9,1 3.7,2.6 5.3,4.9 z m -13.4,18.1 c 0,2.7 0.6,4.7 1.7,6 1.1,1.3 2.7,1.9 4.5,1.9 1.8,0 3.3,-0.7 4.5,-2 1.2,-1.4 1.8,-3.4 1.8,-6.1 0,-2.7 -0.6,-4.8 -1.9,-6.2 -1.3,-1.5 -2.8,-2.2 -4.6,-2.2 -1.8,0 -3.3,0.7 -4.4,2 -1.1,1.3 -1.6,3.5 -1.6,6.6 z"
     style="fill:#005e8a;fill-opacity:1" /><path
     id="path14600"
     class="st2"
     d="m 439.5,696.6 h -28.7 c 0.3,2.3 0.9,4 1.9,5.1 1.4,1.6 3.2,2.4 5.4,2.4 1.4,0 2.7,-0.4 4,-1.1 0.8,-0.4 1.6,-1.2 2.5,-2.4 l 14.1,1.3 c -2.2,3.7 -4.8,6.4 -7.8,8.1 -3,1.6 -7.4,2.4 -13.1,2.4 -4.9,0 -8.8,-0.7 -11.7,-2.1 -2.8,-1.4 -5.2,-3.6 -7.1,-6.6 -1.9,-3 -2.8,-6.6 -2.8,-10.7 0,-5.8 1.9,-10.6 5.6,-14.2 3.8,-3.6 8.9,-5.4 15.5,-5.4 5.3,0 9.6,0.8 12.7,2.4 3.1,1.6 5.4,4 7.1,7 1.6,3.1 2.4,7.1 2.4,12 z M 425,689.8 c -0.3,-2.8 -1,-4.7 -2.2,-5.9 -1.2,-1.2 -2.8,-1.8 -4.7,-1.8 -2.3,0 -4.1,0.9 -5.4,2.7 -0.9,1.1 -1.4,2.8 -1.7,5 z"
     style="fill:#005e8a;fill-opacity:1" /><path
     id="path14602"
     class="st2"
     d="m 445.1,660.2 h 14.3 v 51.5 h -14.3 z"
     style="fill:#005e8a;fill-opacity:1" /><path
     id="path14604"
     class="st2"
     d="m 483,674.4 h 6.8 v 10.5 H 483 v 26.9 h -14.3 v -26.9 h -5.3 v -10.5 h 5.3 v -1.7 c 0,-1.5 0.2,-3.2 0.5,-5 0.3,-1.8 0.9,-3.3 1.8,-4.5 0.9,-1.2 2.2,-2.1 3.8,-2.8 1.6,-0.7 4,-1.1 7.2,-1.1 2.5,0 6.2,0.3 10.9,0.9 l -1.6,8.6 c -1.7,-0.3 -3.1,-0.4 -4.1,-0.4 -1.3,0 -2.2,0.2 -2.8,0.7 -0.6,0.4 -1,1.1 -1.2,2 -0.2,0.5 -0.2,1.6 -0.2,3.3 z"
     style="fill:#005e8a;fill-opacity:1" /><path
     id="path14606"
     class="st2"
     d="m 494.1,660.2 h 14.3 v 51.5 h -14.3 z"
     style="fill:#005e8a;fill-opacity:1" /><path
     id="path14608"
     class="st2"
     d="m 516.6,660.2 h 14.3 v 9.7 h -14.3 z m 0,14.2 h 14.3 v 37.3 h -14.3 z"
     style="fill:#005e8a;fill-opacity:1" /><path
     id="path14610"
     class="st2"
     d="m 580,696.6 h -28.7 c 0.3,2.3 0.9,4 1.9,5.1 1.4,1.6 3.2,2.4 5.4,2.4 1.4,0 2.7,-0.4 4,-1.1 0.8,-0.4 1.6,-1.2 2.5,-2.4 l 14.1,1.3 c -2.2,3.7 -4.8,6.4 -7.8,8.1 -3,1.6 -7.4,2.4 -13.1,2.4 -4.9,0 -8.8,-0.7 -11.7,-2.1 -2.8,-1.4 -5.2,-3.6 -7.1,-6.6 -1.9,-3 -2.8,-6.6 -2.8,-10.7 0,-5.8 1.9,-10.6 5.6,-14.2 3.8,-3.6 8.9,-5.4 15.5,-5.4 5.3,0 9.6,0.8 12.7,2.4 3.1,1.6 5.4,4 7.1,7 1.6,3.1 2.4,7.1 2.4,12 z m -14.6,-6.8 c -0.3,-2.8 -1,-4.7 -2.2,-5.9 -1.2,-1.2 -2.8,-1.8 -4.7,-1.8 -2.3,0 -4.1,0.9 -5.4,2.7 -0.9,1.1 -1.4,2.8 -1.7,5 z"
     style="fill:#005e8a;fill-opacity:1" /><path
     id="path14612"
     class="st2"
     d="m 612.8,674.4 h 13.4 v 35.3 1.7 c 0,2.3 -0.5,4.6 -1.5,6.7 -1,2.1 -2.3,3.9 -4,5.2 -1.6,1.3 -3.7,2.3 -6.3,2.8 -2.5,0.6 -5.4,0.9 -8.7,0.9 -7.5,0 -12.7,-1.1 -15.5,-3.4 -2.8,-2.3 -4.2,-5.3 -4.2,-9 0,-0.5 0,-1.1 0.1,-1.9 l 13.9,1.6 c 0.4,1.3 0.9,2.2 1.6,2.7 1.1,0.7 2.4,1.1 4,1.1 2.1,0 3.6,-0.6 4.6,-1.7 1,-1.1 1.5,-3 1.5,-5.8 v -5.7 c -1.4,1.7 -2.8,2.9 -4.2,3.6 -2.2,1.2 -4.6,1.8 -7.1,1.8 -5,0 -9,-2.2 -12.1,-6.5 -2.2,-3.1 -3.3,-7.2 -3.3,-12.3 0,-5.8 1.4,-10.2 4.2,-13.3 2.8,-3 6.5,-4.6 11,-4.6 2.9,0 5.3,0.5 7.2,1.5 1.9,1 3.7,2.6 5.3,4.9 z m -13.4,18.1 c 0,2.7 0.6,4.7 1.7,6 1.1,1.3 2.7,1.9 4.5,1.9 1.8,0 3.3,-0.7 4.5,-2 1.2,-1.4 1.8,-3.4 1.8,-6.1 0,-2.7 -0.6,-4.8 -1.9,-6.2 -1.3,-1.5 -2.8,-2.2 -4.6,-2.2 -1.8,0 -3.3,0.7 -4.4,2 -1.1,1.3 -1.6,3.5 -1.6,6.6 z"
     style="fill:#005e8a;fill-opacity:1" /><path
     id="path14614"
     class="st2"
     d="m 674.8,696.6 h -28.7 c 0.3,2.3 0.9,4 1.9,5.1 1.4,1.6 3.2,2.4 5.4,2.4 1.4,0 2.7,-0.4 4,-1.1 0.8,-0.4 1.6,-1.2 2.5,-2.4 l 14.1,1.3 c -2.2,3.7 -4.8,6.4 -7.8,8.1 -3,1.6 -7.4,2.4 -13.1,2.4 -4.9,0 -8.8,-0.7 -11.7,-2.1 -2.8,-1.4 -5.2,-3.6 -7.1,-6.6 -1.9,-3 -2.8,-6.6 -2.8,-10.7 0,-5.8 1.9,-10.6 5.6,-14.2 3.8,-3.6 8.9,-5.4 15.5,-5.4 5.3,0 9.6,0.8 12.7,2.4 3.1,1.6 5.4,4 7.1,7 1.6,3.1 2.4,7.1 2.4,12 z m -14.5,-6.8 c -0.3,-2.8 -1,-4.7 -2.2,-5.9 -1.2,-1.2 -2.8,-1.8 -4.7,-1.8 -2.3,0 -4.1,0.9 -5.4,2.7 -0.9,1.1 -1.4,2.8 -1.7,5 z"
     style="fill:#005e8a;fill-opacity:1" /><path
     id="path14616"
     class="st2"
     d="m 679.9,674.4 h 13.3 v 6.1 c 2,-2.5 4,-4.3 6,-5.3 2,-1.1 4.5,-1.6 7.5,-1.6 4,0 7.1,1.2 9.3,3.6 2.2,2.3 3.4,6 3.4,10.9 v 23.7 H 705 v -20.5 c 0,-2.3 -0.4,-4 -1.3,-5 -0.9,-1 -2.1,-1.5 -3.7,-1.5 -1.7,0 -3.1,0.7 -4.2,2 -1.1,1.3 -1.6,3.7 -1.6,7.1 v 17.9 h -14.3 z"
     style="fill:#005e8a;fill-opacity:1" /><path
     id="path14618"
     class="st2"
     d="m 726.5,697.4 h 15.3 v 14.3 h -15.3 z"
     style="fill:#005e8a;fill-opacity:1" /><path
     id="path14620"
     class="st2"
     d="m 776.7,697.1 13.6,1.5 c -0.8,2.8 -2,5.3 -3.7,7.4 -1.7,2.1 -3.9,3.7 -6.6,4.8 -2.6,1.1 -6,1.7 -10.1,1.7 -4,0 -7.3,-0.4 -9.9,-1.1 -2.6,-0.8 -4.9,-1.9 -6.8,-3.6 -1.9,-1.7 -3.4,-3.6 -4.5,-5.8 -1.1,-2.2 -1.6,-5.2 -1.6,-8.9 0,-3.8 0.7,-7 2,-9.6 1,-1.9 2.3,-3.6 3.9,-5 1.7,-1.5 3.4,-2.6 5.1,-3.3 2.8,-1.1 6.4,-1.7 10.7,-1.7 6.1,0 10.7,1.1 13.9,3.3 3.2,2.2 5.5,5.4 6.8,9.6 l -13.5,1.8 c -0.4,-1.6 -1.2,-2.8 -2.3,-3.6 -1.1,-0.8 -2.6,-1.2 -4.5,-1.2 -2.4,0 -4.3,0.9 -5.8,2.6 -1.5,1.7 -2.2,4.3 -2.2,7.7 0,3.1 0.7,5.4 2.2,7 1.5,1.6 3.3,2.4 5.6,2.4 1.9,0 3.4,-0.5 4.7,-1.4 1.4,-1.1 2.4,-2.6 3,-4.6 z"
     style="fill:#005e8a;fill-opacity:1" /><path
     id="path14622"
     class="st2"
     d="m 793.7,693.2 c 0,-5.7 1.9,-10.4 5.8,-14.1 3.8,-3.7 9,-5.6 15.6,-5.6 7.5,0 13.1,2.2 16.9,6.5 3.1,3.5 4.6,7.8 4.6,12.9 0,5.7 -1.9,10.5 -5.7,14.1 -3.8,3.7 -9.1,5.5 -15.8,5.5 -6,0 -10.9,-1.5 -14.6,-4.6 -4.6,-3.7 -6.8,-8.6 -6.8,-14.7 z m 14.3,-0.1 c 0,3.3 0.7,5.8 2,7.4 1.4,1.6 3.1,2.4 5.1,2.4 2.1,0 3.8,-0.8 5.1,-2.4 1.3,-1.6 2,-4.1 2,-7.6 0,-3.2 -0.7,-5.6 -2,-7.2 -1.3,-1.6 -3,-2.4 -5,-2.4 -2.1,0 -3.8,0.8 -5.2,2.4 -1.3,1.7 -2,4.1 -2,7.4 z"
     style="fill:#005e8a;fill-opacity:1" /><path
     id="path14624"
     class="st2"
     d="m 842,674.4 h 13.4 v 5.4 c 1.9,-2.3 3.9,-3.9 5.8,-4.9 2,-1 4.3,-1.4 7.1,-1.4 3,0 5.3,0.5 7.1,1.6 1.7,1.1 3.2,2.6 4.3,4.7 2.2,-2.4 4.3,-4.1 6.2,-5 1.9,-0.9 4.1,-1.3 6.9,-1.3 4,0 7.1,1.2 9.4,3.6 2.2,2.4 3.4,6.1 3.4,11.1 v 23.4 h -14.3 v -21.3 c 0,-1.7 -0.3,-2.9 -1,-3.8 -1,-1.3 -2.2,-1.9 -3.6,-1.9 -1.7,0 -3,0.6 -4.1,1.8 -1,1.2 -1.5,3.2 -1.5,5.9 v 19.3 H 866.8 V 691 c 0,-1.6 -0.1,-2.8 -0.3,-3.3 -0.3,-0.9 -0.8,-1.7 -1.6,-2.2 -0.8,-0.6 -1.6,-0.9 -2.6,-0.9 -1.6,0 -3,0.6 -4,1.9 -1.1,1.2 -1.6,3.3 -1.6,6.1 v 19.1 H 842 Z"
     style="fill:#005e8a;fill-opacity:1" /></g></svg>
