<?xml version="1.0" encoding="UTF-8" standalone="no"?>
<!-- Generator: Adobe Illustrator 23.1.0, SVG Export Plug-In . SVG Version: 6.00 Build 0)  -->

<svg
   version="1.1"
   id="Logo"
   x="0px"
   y="0px"
   viewBox="0 0 2499.9999 499.99998"
   xml:space="preserve"
   sodipodi:docname="briefkopf.svg"
   width="2500"
   height="500"
   inkscape:export-filename="/home/neo/Phorward/www/rheinermark/deploy/static/img/briefkopf.png"
   inkscape:export-xdpi="96"
   inkscape:export-ydpi="96"
   inkscape:version="1.1.1 (3bf5ae0d25, 2021-09-20, custom)"
   xmlns:inkscape="http://www.inkscape.org/namespaces/inkscape"
   xmlns:sodipodi="http://sodipodi.sourceforge.net/DTD/sodipodi-0.dtd"
   xmlns="http://www.w3.org/2000/svg"
   xmlns:svg="http://www.w3.org/2000/svg"><defs
   id="defs46" />
<style
   type="text/css"
   id="style2">
	.st0{fill:#005E8A;}
	.st1{fill:#AAAAAA;}
</style>
<sodipodi:namedview
   bordercolor="#666666"
   borderopacity="1"
   gridtolerance="10"
   guidetolerance="10"
   id="namedview85"
   inkscape:current-layer="Logo"
   inkscape:cx="943.30104"
   inkscape:cy="852.51718"
   inkscape:pageopacity="1"
   inkscape:pageshadow="2"
   inkscape:window-height="1056"
   inkscape:window-maximized="1"
   inkscape:window-width="2040"
   inkscape:window-x="0"
   inkscape:window-y="0"
   inkscape:zoom="0.35248556"
   objecttolerance="10"
   pagecolor="#ffffff"
   showgrid="false"
   inkscape:pagecheckerboard="0"
   width="2500px">
	</sodipodi:namedview>
<path
   id="path4"
   class="st0"
   d="m 1447.5696,444.9224 h 14.785 v 36.10803 h 23.1062 v 11.73882 h -37.8912 z"
   style="stroke-width:0.742963" />
<path
   id="path6"
   class="st0"
   d="m 1485.5351,476.94413 14.1163,-0.89156 c 0.1485,1.85741 0.8172,3.64052 1.8574,5.20075 1.5602,1.9317 3.7148,2.89755 6.538,2.89755 1.7832,0.1486 3.492,-0.44577 4.9036,-1.48592 1.0402,-0.81726 1.7088,-2.0803 1.7088,-3.41763 0,-1.26304 -0.5944,-2.52608 -1.6345,-3.34334 -1.1144,-0.96585 -3.6405,-1.9317 -7.5782,-2.74896 -6.4638,-1.48593 -11.1445,-3.41764 -13.8934,-5.79512 -2.749,-2.30319 -4.2349,-5.72082 -4.1606,-9.28704 0,-2.45178 0.7429,-4.90356 2.1546,-6.98386 1.5602,-2.30319 3.7891,-4.16059 6.4637,-5.20074 2.8976,-1.26304 6.761,-1.85741 11.7389,-1.85741 6.0923,0 10.7729,1.11444 13.9677,3.41763 3.1947,2.30319 5.1264,5.86941 5.7208,10.84727 l -13.9677,0.81726 c -0.3715,-2.1546 -1.1145,-3.71482 -2.3032,-4.68067 -1.4116,-1.04015 -3.1205,-1.56023 -4.9036,-1.48593 -1.4116,-0.0743 -2.7489,0.29719 -3.8634,1.11445 -0.8172,0.66866 -1.3373,1.63451 -1.3373,2.67466 0,0.81726 0.4458,1.56023 1.0401,2.0803 0.6687,0.66867 2.3775,1.18874 4.9779,1.78311 6.4638,1.41163 11.0701,2.82326 13.8934,4.23489 2.5261,1.18875 4.6064,2.97186 6.0923,5.27505 1.263,2.15459 1.9317,4.60637 1.9317,7.05815 0,3.04615 -0.8915,5.94371 -2.5261,8.46978 -1.7088,2.60037 -4.2349,4.68067 -7.1324,5.86941 -3.0462,1.33734 -6.9096,2.006 -11.5159,2.006 -8.1726,0 -13.8192,-1.56022 -16.9396,-4.68067 -3.1948,-3.19474 -5.0522,-7.42963 -5.3493,-11.88741 z"
   style="stroke-width:0.742963" />
<path
   id="path8"
   class="st0"
   d="m 1527.6611,444.9224 h 15.4536 l 10.773,34.47351 10.6244,-34.47351 h 15.0078 l -17.7568,47.84685 h -16.048 z"
   style="stroke-width:0.742963" />
<path
   id="path10"
   class="st0"
   d="M 1598.6884,492.76925 V 444.9224 h 24.6664 c 4.532,0 8.024,0.37149 10.4757,1.18875 2.3775,0.74296 4.4578,2.30318 5.8695,4.38348 4.2348,6.1666 2.7489,14.56208 -3.4177,18.79698 -0.2229,0.14859 -0.52,0.37148 -0.7429,0.52007 -1.6346,0.89156 -3.3434,1.56022 -5.2008,1.85741 1.3374,0.37148 2.6747,0.96585 3.8634,1.78311 0.8916,0.74296 1.7088,1.56022 2.3775,2.52608 0.8173,0.89155 1.4859,1.9317 2.0803,2.97185 l 7.1325,13.81912 h -16.7167 l -7.8754,-14.63638 c -0.9659,-1.85741 -1.8574,-3.12045 -2.6747,-3.71482 -1.0401,-0.74296 -2.3032,-1.11444 -3.6405,-1.11444 h -1.3374 v 19.46564 z m 14.8592,-28.4555 h 6.2409 c 1.3374,-0.0743 2.6004,-0.29718 3.9377,-0.66867 0.9659,-0.14859 1.7832,-0.74296 2.3775,-1.48592 1.4117,-1.93171 1.1888,-4.68067 -0.52,-6.31519 -0.9659,-0.81726 -2.8233,-1.26304 -5.498,-1.26304 h -6.5381 z"
   style="stroke-width:0.742963" />
<path
   id="path12"
   class="st0"
   d="m 1680.9344,492.76925 h -12.4075 v -5.64652 c -1.4859,2.006 -3.4176,3.71482 -5.5722,4.90356 -2.1546,1.04015 -4.5321,1.56022 -6.9095,1.48592 -3.6406,0 -6.5381,-1.11444 -8.6184,-3.26904 -2.0803,-2.15459 -3.1205,-5.57222 -3.1205,-10.1043 v -22.06601 h 13.3734 v 19.09416 c 0,2.15459 0.3715,3.71482 1.1887,4.60637 0.8916,0.96585 2.0803,1.41163 3.4176,1.33734 1.486,0 2.9719,-0.66867 3.8635,-1.85741 1.0401,-1.18874 1.4859,-3.41764 1.4859,-6.53808 v -16.64238 h 13.299 z"
   style="stroke-width:0.742963" />
<path
   id="path14"
   class="st0"
   d="m 1684.9464,444.9224 h 13.2991 v 17.60824 c 1.5602,-1.63452 3.3433,-3.04615 5.3493,-4.012 2.006,-0.81726 4.1606,-1.26304 6.3152,-1.18875 3.6405,0 6.4638,1.11445 8.5441,3.26904 2.0803,2.1546 3.1204,5.57223 3.1204,10.10431 v 21.99171 h -13.3733 v -19.09416 c 0,-2.15459 -0.3715,-3.71481 -1.1888,-4.60637 -0.8915,-0.96585 -2.1545,-1.41163 -3.4176,-1.33733 -1.4859,-0.0743 -2.9718,0.66866 -3.9377,1.8574 -1.0401,1.26304 -1.4859,3.41764 -1.4859,6.53808 v 16.64238 h -13.2991 z"
   style="stroke-width:0.742963" />
<path
   id="path16"
   class="st0"
   d="m 1725.5865,458.07286 h 12.4818 v 5.72082 c 1.1888,-2.45178 2.4518,-4.1606 3.7148,-5.05216 1.4117,-0.96585 3.0462,-1.41163 4.755,-1.41163 2.2289,0.0743 4.4578,0.74297 6.4638,1.85741 l -4.0863,9.50993 c -1.1888,-0.52007 -2.4518,-0.89155 -3.7148,-0.96585 -1.6346,-0.0743 -3.1948,0.74297 -4.0863,2.1546 -1.4117,2.006 -2.0803,5.79511 -2.0803,11.36734 v 11.59023 h -13.3734 v -34.77069 z"
   style="stroke-width:0.742963" />
<path
   id="path18"
   class="st0"
   d="m 1748.5441,470.18316 h 19.3171 v 10.2529 h -19.3171 z"
   style="stroke-width:0.742963" />
<path
   id="path20"
   class="st0"
   d="m 1770.1643,444.9224 h 14.785 v 36.10803 h 23.1062 v 11.73882 h -37.8912 z"
   style="stroke-width:0.742963" />
<path
   id="path22"
   class="st0"
   d="m 1848.3241,478.72724 h -26.6724 c 0.074,1.70882 0.6687,3.41763 1.7088,4.75497 1.2631,1.48592 3.1205,2.30318 5.0522,2.22889 1.3373,0 2.6003,-0.37148 3.7148,-0.96586 0.8915,-0.59437 1.7088,-1.33733 2.3032,-2.22889 l 13.0761,1.18875 c -1.6345,3.12044 -4.1606,5.72081 -7.281,7.50393 -2.8233,1.48592 -6.9096,2.30318 -12.1846,2.30318 -4.6064,0 -8.2469,-0.66866 -10.8473,-1.9317 -2.7489,-1.41163 -4.9778,-3.49193 -6.5381,-6.1666 -1.7831,-2.97185 -2.6746,-6.46378 -2.6003,-9.95571 0,-5.42363 1.7088,-9.80712 5.2007,-13.15045 3.4919,-3.34334 8.2469,-5.05215 14.4135,-5.05215 4.9779,0 8.8413,0.74296 11.7388,2.22889 2.8233,1.41163 5.1265,3.71482 6.5381,6.53808 1.4859,2.82326 2.2289,6.53807 2.2289,11.14445 z m -13.5219,-6.31519 c -0.2229,-2.60037 -0.9659,-4.38348 -2.0803,-5.49793 -2.6747,-2.37748 -6.761,-2.22889 -9.1385,0.44578 -0.074,0.14859 -0.2229,0.22289 -0.2972,0.37148 -0.8915,1.41163 -1.4859,2.97186 -1.5602,4.68067 z"
   style="stroke-width:0.742963" />
<path
   id="path24"
   class="st0"
   d="m 1850.3301,458.07286 h 12.4075 v 5.72082 c 1.4859,-2.00601 3.4176,-3.71482 5.6465,-4.97786 2.1546,-1.04015 4.5321,-1.56022 6.9096,-1.48593 3.7148,0 6.538,1.11445 8.6183,3.26904 2.0803,2.1546 3.1205,5.57223 3.1205,10.1786 v 21.99172 h -13.3734 v -19.09416 c 0,-2.15459 -0.3714,-3.71482 -1.1887,-4.60637 -0.8916,-0.96586 -2.1546,-1.41163 -3.4176,-1.33734 -1.486,-0.0743 -2.9719,0.66867 -3.9377,1.85741 -0.9659,1.26304 -1.486,3.41763 -1.486,6.53808 v 16.64238 h -13.299 z"
   style="stroke-width:0.742963" />
<path
   id="path26"
   class="st0"
   d="m 1890.8959,458.07286 h 12.4075 v 5.72082 c 1.4859,-2.00601 3.4176,-3.71482 5.6465,-4.97786 2.1546,-1.04015 4.5321,-1.56022 6.9096,-1.48593 3.7148,0 6.538,1.11445 8.6183,3.26904 2.0803,2.1546 3.1205,5.57223 3.1205,10.1786 v 21.99172 h -13.3734 v -19.09416 c 0,-2.15459 -0.3714,-3.71482 -1.1887,-4.60637 -0.8916,-0.96586 -2.1546,-1.41163 -3.4176,-1.33734 -1.486,-0.0743 -2.9719,0.66867 -3.9377,1.85741 -0.9659,1.26304 -1.486,3.41763 -1.486,6.53808 v 16.64238 h -13.299 z"
   style="stroke-width:0.742963" />
<path
   id="path28"
   class="st0"
   d="m 1969.9472,478.72724 h -26.6724 c 0.2229,2.1546 0.8173,3.71482 1.7088,4.75497 1.2631,1.48592 3.1205,2.30318 5.0522,2.22889 1.3373,0 2.6004,-0.37148 3.7148,-0.96586 0.8916,-0.59437 1.7088,-1.33733 2.3032,-2.22889 l 13.0761,1.18875 c -1.6345,3.12044 -4.1606,5.72081 -7.281,7.50393 -2.8233,1.48592 -6.9096,2.30318 -12.1846,2.30318 -4.6064,0 -8.2469,-0.66866 -10.8473,-1.9317 -2.7489,-1.41163 -4.9778,-3.49193 -6.538,-6.1666 -1.7832,-2.97185 -2.6747,-6.46378 -2.6004,-9.95571 0,-5.42363 1.7088,-9.80712 5.2007,-13.15045 3.492,-3.34334 8.2469,-5.05215 14.4135,-5.05215 4.9779,0 8.8413,0.74296 11.7388,2.22889 2.8233,1.41163 5.1265,3.71482 6.5381,6.53808 1.4859,2.82326 2.2289,6.53807 2.2289,11.14445 z m -13.5219,-6.31519 c -0.2972,-2.60037 -0.9659,-4.38348 -2.0803,-5.49793 -2.6747,-2.37748 -6.761,-2.15459 -9.2128,0.52008 -0.074,0.14859 -0.2229,0.22289 -0.2972,0.37148 -0.8915,1.41163 -1.4859,2.97185 -1.5602,4.68067 z"
   style="stroke-width:0.742963" />
<path
   id="path30"
   class="st0"
   d="m 1991.6417,444.9224 h 14.8593 v 47.84685 h -14.8593 z"
   style="stroke-width:0.742963" />
<path
   id="path32"
   class="st0"
   d="m 2009.77,483.18502 13.2248,-1.26304 c 0.3715,1.33734 1.1887,2.52608 2.3032,3.34334 1.1887,0.74296 2.5261,1.11444 3.9377,1.04015 1.4859,0.0743 2.8975,-0.29719 4.1606,-1.11445 0.7429,-0.44578 1.1144,-1.26303 1.1144,-2.15459 0,-0.96585 -0.5943,-1.85741 -1.4859,-2.22889 -0.743,-0.37148 -2.6004,-0.81726 -5.7208,-1.33734 -3.2691,-0.44577 -6.4638,-1.18874 -9.5842,-2.22889 -1.7832,-0.66866 -3.4177,-1.9317 -4.5321,-3.49192 -1.1888,-1.63452 -1.8574,-3.56623 -1.8574,-5.57223 -0.074,-2.15459 0.6686,-4.23489 2.006,-5.94371 1.4116,-1.70881 3.3433,-3.04615 5.4979,-3.71481 3.0461,-0.89156 6.2409,-1.33734 9.3613,-1.26304 4.1606,0 7.2068,0.29718 9.1385,0.96585 1.8574,0.59437 3.5662,1.56022 4.9035,2.97185 1.486,1.56023 2.6004,3.41764 3.2691,5.34934 l -12.6304,1.26304 c -0.2229,-0.96585 -0.8173,-1.85741 -1.6345,-2.45178 -1.1145,-0.74296 -2.4518,-1.11445 -3.7891,-1.04015 -1.1888,-0.0743 -2.3032,0.22289 -3.2691,0.81726 -0.6686,0.44578 -1.0401,1.18874 -1.0401,1.93171 0,0.81726 0.5201,1.63451 1.3373,1.9317 0.8916,0.44578 2.749,0.81726 5.7208,1.18874 4.3835,0.52008 7.7269,1.18874 9.8815,2.0803 2.006,0.74296 3.7148,2.0803 4.9778,3.78911 1.1145,1.56023 1.7088,3.49193 1.7088,5.42364 0,2.08029 -0.6686,4.08629 -1.7831,5.86941 -1.4116,2.08029 -3.4176,3.64052 -5.7208,4.53207 -2.6004,1.11445 -6.1666,1.70882 -10.6244,1.70882 -6.3152,0 -10.8473,-0.89156 -13.5219,-2.74896 -2.8233,-1.78312 -4.6807,-4.53208 -5.3494,-7.65253 z"
   style="stroke-width:0.742963" />
<path
   id="path34"
   class="st0"
   d="m 2087.4097,478.72724 h -26.6724 c 0.074,1.70882 0.6687,3.41763 1.7089,4.75497 1.263,1.48592 3.1204,2.30318 5.0521,2.22889 1.3373,0 2.6004,-0.37148 3.7148,-0.96586 0.8916,-0.59437 1.7088,-1.33733 2.3032,-2.22889 l 13.0762,1.18875 c -2.006,3.49192 -4.4578,5.9437 -7.2811,7.50393 -2.8232,1.56022 -6.9095,2.30318 -12.1846,2.30318 -4.6064,0 -8.1726,-0.66866 -10.8472,-1.9317 -2.749,-1.41163 -4.9779,-3.49193 -6.5381,-6.1666 -1.7831,-2.97185 -2.6747,-6.46378 -2.6004,-9.95571 0,-5.42363 1.7088,-9.80712 5.2007,-13.15045 3.492,-3.34334 8.2469,-5.05215 14.4135,-5.05215 4.9779,0 8.8413,0.74296 11.7389,2.22889 2.8232,1.41163 5.1264,3.71482 6.538,6.53808 1.486,2.82326 2.2289,6.53807 2.2289,11.14445 z m -13.5219,-6.31519 c -0.2229,-2.60037 -0.9659,-4.38348 -2.0803,-5.49793 -2.6747,-2.37748 -6.761,-2.22889 -9.1385,0.44578 -0.074,0.14859 -0.2228,0.22289 -0.2971,0.37148 -0.8916,1.41163 -1.486,2.97186 -1.5603,4.68067 z"
   style="stroke-width:0.742963" />
<path
   id="path36"
   class="st0"
   d="m 2089.5643,458.07286 h 12.4818 v 5.72082 c 1.1887,-2.45178 2.4518,-4.1606 3.7148,-5.05216 1.4116,-0.96585 3.0462,-1.41163 4.6807,-1.41163 2.2289,0.0743 4.4578,0.74297 6.4638,1.85741 l -4.0863,9.50993 c -1.1888,-0.52007 -2.4518,-0.89155 -3.7148,-0.96585 -1.6346,-0.0743 -3.1948,0.74297 -4.0863,2.1546 -1.3374,2.006 -2.0803,5.79511 -2.0803,11.36734 v 11.59023 h -13.3734 z"
   style="stroke-width:0.742963" />
<path
   id="path38"
   class="st0"
   d="m 2117.7226,444.9224 h 13.3734 v 47.84685 h -13.3734 z"
   style="stroke-width:0.742963" />
<path
   id="path40"
   class="st0"
   d="m 2133.8449,475.5325 c -0.1486,-4.90356 1.7831,-9.65853 5.3494,-13.07616 3.5662,-3.41763 8.3955,-5.12645 14.4878,-5.12645 6.9095,0 12.1846,2.00601 15.7508,6.01801 2.8975,3.34333 4.3835,7.57823 4.3092,11.96171 0,5.34934 -1.7831,9.73282 -5.3494,13.07616 -3.5662,3.41763 -8.4697,5.12644 -14.7106,5.12644 -5.5723,0 -10.1043,-1.41163 -13.522,-4.23489 -4.1606,-3.26904 -6.4638,-8.39548 -6.3152,-13.74482 z m 13.2991,0 c 0,3.12044 0.5944,5.34934 1.8574,6.83526 2.1546,2.60037 6.018,2.97186 8.6184,0.81726 0.2972,-0.22289 0.52,-0.52007 0.8172,-0.81726 1.2631,-1.48592 1.8574,-3.78911 1.8574,-7.05815 0,-3.04615 -0.5943,-5.27504 -1.8574,-6.68667 -1.1144,-1.41163 -2.8232,-2.22889 -4.6063,-2.22889 -1.8575,-0.0743 -3.6406,0.81726 -4.8293,2.22889 -1.1888,1.56022 -1.8574,3.86341 -1.8574,6.90956 z"
   style="stroke-width:0.742963" />
<path
   id="path42"
   class="st0"
   d="m 2175.971,444.9224 h 13.299 v 17.60824 c 1.5602,-1.63452 3.3433,-3.04615 5.4236,-4.012 2.006,-0.81726 4.1606,-1.26304 6.3152,-1.18875 3.6406,0 6.4638,1.11445 8.5441,3.26904 2.0803,2.22889 3.1205,5.57223 3.1205,10.10431 v 21.99171 H 2199.3 v -19.09416 c 0,-2.15459 -0.3715,-3.71481 -1.1887,-4.60637 -0.8916,-0.96585 -2.1546,-1.41163 -3.4177,-1.33733 -1.4859,-0.0743 -2.9718,0.66866 -3.9377,1.8574 -0.9658,1.26304 -1.4859,3.41764 -1.4859,6.53808 v 16.64238 h -13.299 z"
   style="stroke-width:0.742963" />
<path
   id="path44"
   class="st0"
   d="m 2216.5368,458.07286 h 12.4075 v 5.72082 c 1.4859,-2.00601 3.4176,-3.71482 5.6465,-4.97786 2.1546,-1.04015 4.5321,-1.56022 6.9095,-1.48593 3.6406,0 6.5381,1.11445 8.6184,3.26904 2.0803,2.1546 3.1205,5.57223 3.1205,10.1786 v 21.99172 h -13.3734 v -19.09416 c 0,-2.15459 -0.3715,-3.71482 -1.1887,-4.60637 -0.8916,-0.96586 -2.1546,-1.41163 -3.4177,-1.33734 -1.4859,-0.0743 -2.9718,0.66867 -3.9377,1.85741 -0.9658,1.26304 -1.4859,3.41763 -1.4859,6.53808 v 16.64238 h -13.299 z"
   style="stroke-width:0.742963" />
<path
   id="path46"
   class="st0"
   d="m 2313.7907,478.72724 h -26.6724 c 0.074,1.70882 0.6687,3.41763 1.7088,4.75497 1.263,1.48592 3.1205,2.30318 5.0522,2.22889 1.3373,0 2.6003,-0.37148 3.7148,-0.96586 0.8915,-0.59437 1.7088,-1.33733 2.3032,-2.22889 l 13.0761,1.18875 c -1.6345,3.12044 -4.1606,5.72081 -7.281,7.50393 -2.8233,1.48592 -6.9096,2.30318 -12.1846,2.30318 -4.6064,0 -8.2469,-0.66866 -10.8473,-1.9317 -2.749,-1.41163 -4.9778,-3.49193 -6.5381,-6.1666 -1.7831,-2.97185 -2.6746,-6.46378 -2.6003,-9.95571 0,-5.42363 1.7088,-9.80712 5.2007,-13.15045 3.4919,-3.34334 8.2469,-5.05215 14.4135,-5.05215 4.9779,0 8.8413,0.74296 11.7388,2.22889 2.8233,1.41163 5.1265,3.71482 6.5381,6.53808 1.4859,2.82326 2.2289,6.53807 2.2289,11.14445 z m -13.522,-6.31519 c -0.2228,-2.60037 -0.9658,-4.38348 -2.0803,-5.49793 -2.6746,-2.37748 -6.7609,-2.22889 -9.1384,0.44578 -0.074,0.14859 -0.2229,0.22289 -0.2972,0.37148 -0.8915,1.41163 -1.4859,2.97186 -1.5602,4.68067 z"
   style="stroke-width:0.742963" />
<path
   id="path48"
   class="st0"
   d="m 2315.871,479.4702 h 14.1906 v 13.29905 h -14.1906 z"
   style="stroke-width:0.742963" />
<path
   id="path50"
   class="st0"
   d="m 2330.2102,444.9224 h 15.4536 l 10.773,34.47351 10.6244,-34.47351 h 15.0078 l -17.7568,47.84685 h -16.048 z"
   style="stroke-width:0.742963" />
<path
   id="path52"
   class="st0"
   d="m 2373.4506,479.4702 h 14.1906 v 13.29905 h -14.1906 z"
   style="stroke-width:0.742963" />
<path
   id="path54"
   class="st0"
   d="M 1447.6439,435.41247 V 330.28315 h 54.162 c 10.0301,0 17.6826,0.89155 23.0319,2.60037 5.2008,1.63452 9.7328,5.05215 12.8533,9.58423 3.269,4.68067 4.9035,10.32719 4.9035,17.01386 0,5.86941 -1.263,10.84727 -3.7148,15.08216 -2.5261,4.23489 -6.018,7.80111 -10.2529,10.25289 -2.7489,1.70882 -6.6123,3.04615 -11.4416,4.1606 3.8634,1.26304 6.6867,2.60037 8.4698,3.86341 1.1887,0.89155 2.8975,2.67467 5.2007,5.49793 1.7088,2.006 3.2691,4.23489 4.5321,6.53808 l 15.7508,30.4615 h -36.7767 l -17.3853,-32.09602 c -2.2289,-4.1606 -4.1606,-6.83527 -5.8694,-8.0983 -2.3032,-1.63452 -5.1265,-2.45178 -7.9497,-2.45178 h -2.8976 v 42.6461 z m 32.6904,-62.55752 h 13.6705 c 1.486,0 4.3835,-0.44578 8.6184,-1.41163 2.0803,-0.37148 4.012,-1.56022 5.2751,-3.26904 1.3373,-1.70881 2.0802,-3.86341 2.0802,-6.0923 0,-3.41763 -1.0401,-6.018 -3.1947,-7.80111 -2.1546,-1.78312 -6.1666,-2.74897 -12.1103,-2.74897 h -14.3392 z"
   style="stroke-width:0.742963" />
<path
   id="path56"
   class="st0"
   d="m 1550.5443,330.28315 h 29.1985 v 38.70839 c 3.9377,-4.0863 7.8754,-7.05815 11.8131,-8.84126 4.3835,-1.85741 9.1385,-2.74897 13.8934,-2.60037 7.9498,0 14.1906,2.37748 18.7227,7.20674 4.5321,4.82926 6.8353,12.1846 6.8353,22.21461 v 48.44121 h -29.3471 v -41.90313 c 0,-4.75497 -0.8915,-8.1726 -2.6746,-10.1786 -1.7831,-2.006 -4.2349,-2.97186 -7.4297,-2.97186 -3.3433,-0.0743 -6.5381,1.41163 -8.6183,4.01201 -2.2289,2.67466 -3.2691,7.50393 -3.2691,14.41349 v 36.5538 h -29.1984 V 330.28315 Z"
   style="stroke-width:0.742963" />
<path
   id="path58"
   class="st0"
   d="m 1724.1006,404.57949 h -58.5455 c 0.5201,4.68067 1.7831,8.1726 3.7891,10.47579 2.749,3.26903 6.761,5.05215 11.0702,4.90355 2.8975,0 5.6465,-0.74296 8.1726,-2.15459 2.006,-1.26304 3.7148,-2.89756 5.1264,-4.82926 l 28.7527,2.67467 c -4.3835,7.65252 -9.7328,13.15045 -15.8994,16.49378 -6.2409,3.34334 -15.1565,4.97786 -26.7467,4.97786 -10.1043,0 -17.9797,-1.41163 -23.7748,-4.23489 -5.7952,-2.82326 -10.5501,-7.35534 -14.4135,-13.52194 -3.7892,-6.16659 -5.7209,-13.44764 -5.7209,-21.84312 0,-11.88742 3.7892,-21.54594 11.4417,-28.90128 7.6525,-7.35534 18.1283,-11.07015 31.5759,-10.99586 10.9216,0 19.4657,1.63452 25.8552,4.97786 6.1666,3.19474 11.2187,8.17259 14.4134,14.33919 3.2691,6.24089 4.9779,14.41349 4.9779,24.4435 v 3.19474 z m -29.7185,-14.04201 c -0.5944,-5.64652 -2.0803,-9.65852 -4.5321,-12.1103 -2.4518,-2.45178 -5.7208,-3.64052 -9.7328,-3.64052 -4.3835,-0.1486 -8.6184,1.9317 -11.1445,5.49793 -1.7831,2.30318 -2.8975,5.72081 -3.3433,10.25289 z"
   style="stroke-width:0.742963" />
<rect
   id="rect60"
   x="1729.5985"
   y="359.25873"
   class="st0"
   width="29.198462"
   height="76.153755"
   style="stroke-width:0.742963" />
<path
   id="path62"
   class="st0"
   d="m 1768.5298,359.25872 h 27.1925 v 12.40749 c 4.0863,-5.05215 8.1726,-8.69267 12.3332,-10.84727 4.1606,-2.15459 9.2127,-3.26903 15.1564,-3.26903 8.0983,0 14.4135,2.37748 18.9456,7.20674 4.6064,4.82926 6.8353,12.2589 6.8353,22.2889 v 48.44122 h -29.3471 v -41.90314 c 0,-4.75496 -0.8916,-8.1726 -2.6747,-10.1786 -1.7831,-2.006 -4.2349,-2.97185 -7.4296,-2.97185 -3.3433,-0.0743 -6.5381,1.41163 -8.6184,4.012 -2.2289,2.67467 -3.269,7.50393 -3.269,14.41349 v 36.5538 h -29.1242 z"
   style="stroke-width:0.742963" />
<path
   id="path64"
   class="st0"
   d="m 1942.0118,404.57949 h -58.5455 c 0.52,4.68067 1.7831,8.1726 3.7891,10.47579 2.7489,3.26903 6.7609,5.05215 11.0701,4.90355 2.8976,0 5.6466,-0.74296 8.1726,-2.15459 2.006,-1.26304 3.7148,-2.89756 5.0522,-4.82926 l 28.7527,2.67467 c -4.3835,7.65252 -9.7329,13.15045 -15.8995,16.49378 -6.1666,3.34334 -15.1564,4.97786 -26.7466,4.97786 -10.1043,0 -17.9798,-1.41163 -23.7749,-4.23489 -5.7951,-2.82326 -10.55,-7.35534 -14.3392,-13.52194 -3.7891,-6.16659 -5.7208,-13.44764 -5.7208,-21.84312 0,-11.88742 3.7891,-21.54594 11.4417,-28.90128 7.6525,-7.35534 18.1283,-11.07015 31.5759,-10.99586 10.9216,0 19.4656,1.63452 25.8551,4.97786 6.1666,3.19474 11.2188,8.17259 14.4135,14.33919 3.2691,6.24089 4.9036,14.41349 4.9779,24.4435 v 3.19474 z m -29.6443,-14.04201 c -0.5943,-5.64652 -2.0803,-9.65852 -4.532,-12.1103 -2.4518,-2.45178 -5.7209,-3.64052 -9.7329,-3.64052 -4.3834,-0.1486 -8.6183,1.9317 -11.1444,5.49793 -1.7831,2.30318 -2.8976,5.72081 -3.3433,10.25289 z"
   style="stroke-width:0.742963" />
<path
   id="path66"
   class="st0"
   d="m 1946.7667,359.25872 h 27.3411 v 12.48179 c 2.6004,-5.42364 5.3493,-9.13845 8.1726,-11.14445 2.8233,-2.00601 6.2409,-3.04615 10.3272,-3.04615 4.3092,0 8.9898,1.33733 14.1163,4.012 l -9.0642,20.80297 c -3.4176,-1.41163 -6.1666,-2.15459 -8.1726,-2.15459 -3.6405,-0.14859 -6.9838,1.70882 -8.9155,4.75497 -3.0462,4.45778 -4.5321,12.77897 -4.5321,24.96357 v 25.55794 h -29.3471 z"
   style="stroke-width:0.742963" />
<path
   id="path68"
   class="st0"
   d="m 2010.2158,359.25872 h 27.2668 v 11.14445 c 3.9377,-4.60637 7.8754,-7.94971 11.8874,-9.88141 4.012,-1.93171 8.8413,-2.97185 14.4878,-2.89756 6.0923,0 10.9215,1.04015 14.4135,3.19474 3.7148,2.37749 6.7609,5.64653 8.6926,9.58423 4.6064,-4.97785 8.767,-8.32119 12.5561,-10.1786 3.7891,-1.78311 8.3955,-2.67466 13.9677,-2.67466 8.1726,0 14.5621,2.45177 19.0942,7.28104 4.6064,4.82926 6.8353,12.40749 6.8353,22.73468 v 47.84684 h -29.2728 v -43.38906 c 0,-3.41763 -0.6687,-6.01801 -2.006,-7.65252 -1.9317,-2.60038 -4.3835,-3.93771 -7.281,-3.93771 -3.1948,-0.0743 -6.2409,1.26304 -8.3212,3.71482 -2.0803,2.45178 -3.1205,6.46378 -3.1205,11.96171 v 39.30276 h -29.2727 v -41.90313 c 0,-3.34334 -0.2229,-5.64653 -0.5944,-6.83527 -0.5944,-1.85741 -1.7088,-3.49193 -3.1947,-4.60637 -1.5603,-1.18874 -3.492,-1.78311 -5.4237,-1.78311 -3.1947,-0.0743 -6.2409,1.33733 -8.2469,3.78911 -2.1546,2.52608 -3.269,6.68667 -3.269,12.48179 v 38.85698 h -29.2728 z"
   style="stroke-width:0.742963" />
<path
   id="path70"
   class="st0"
   d="m 2174.485,383.92511 -27.8611,-2.97186 c 1.0402,-4.82926 2.5261,-8.69267 4.5321,-11.51593 2.3032,-3.04615 5.2007,-5.49793 8.5441,-7.28104 2.6746,-1.48593 6.3894,-2.60037 11.0701,-3.41763 5.0522,-0.81726 10.1043,-1.26304 15.2308,-1.18874 8.7669,0 15.7508,0.52007 21.1001,1.48592 4.9036,0.81726 9.51,2.89756 13.2991,6.1666 2.4518,2.15459 4.4578,5.20074 5.8694,9.13845 1.3373,3.64052 2.0803,7.42963 2.1546,11.29304 v 33.65625 c -0.074,2.82326 0.1486,5.64652 0.6686,8.39548 0.6687,2.67467 1.7089,5.27504 2.9719,7.80112 h -27.4153 c -0.8173,-1.41163 -1.5603,-2.89756 -2.1546,-4.45778 -0.4458,-1.56022 -0.8173,-3.19474 -0.9659,-4.82926 -3.269,3.34333 -7.1324,6.018 -11.3673,7.87541 -5.2008,2.0803 -11.1445,3.12045 -17.9798,3.12045 -9.0641,0 -15.9737,-2.0803 -20.6543,-6.31519 -4.5321,-3.86341 -7.1325,-9.58423 -7.0582,-15.52794 0,-5.79511 1.7088,-10.55008 5.1265,-14.2649 3.4176,-3.71481 9.6585,-6.53808 18.7969,-8.32119 10.9216,-2.22889 18.054,-3.71482 21.3231,-4.60637 3.4919,-0.96585 6.9095,-2.1546 10.3272,-3.49193 0,-3.56622 -0.743,-6.0923 -2.2289,-7.50393 -1.4859,-1.41163 -4.0863,-2.15459 -7.8011,-2.22889 -4.755,0 -8.3955,0.74296 -10.773,2.30319 -2.0803,1.11444 -3.5662,3.34333 -4.755,6.68667 z m 25.3351,15.30504 c -4.012,1.41163 -8.1726,2.67467 -12.5561,3.78912 -5.9437,1.56022 -9.7328,3.12044 -11.293,4.68067 -3.0462,2.82326 -3.2691,7.50393 -0.4458,10.55008 0.1486,0.14859 0.2972,0.29718 0.4458,0.44578 1.6345,1.48592 3.9377,2.15459 7.0581,2.15459 3.1948,0 6.3152,-0.81726 9.0642,-2.37748 2.526,-1.33734 4.6063,-3.34334 5.9437,-5.79512 1.1887,-2.30318 1.7831,-5.20074 1.7831,-8.84126 z"
   style="stroke-width:0.742963" />
<path
   id="path72"
   class="st0"
   d="m 2237.1911,359.25872 h 27.3411 v 12.48179 c 2.6004,-5.42364 5.3493,-9.13845 8.1726,-11.14445 2.8233,-2.00601 6.2409,-3.04615 10.3272,-3.04615 4.3092,0 8.9899,1.33733 14.1163,4.012 l -9.0642,20.80297 c -3.4176,-1.41163 -6.1666,-2.15459 -8.1726,-2.15459 -3.6405,-0.14859 -6.9838,1.70882 -8.9155,4.75497 -3.0462,4.45778 -4.5321,12.77897 -4.5321,24.96357 v 25.55794 h -29.347 z"
   style="stroke-width:0.742963" />
<path
   id="path74"
   class="st0"
   d="m 2297.9656,330.28315 h 29.8671 v 54.23633 l 21.7688,-25.26076 h 35.8852 l -27.3411,26.67239 28.9013,49.48136 h -32.839 l -15.4536,-30.53579 -10.9959,10.77297 v 19.76282 h -29.8671 z"
   style="stroke-width:0.742963" />
<g
   id="g82"
   transform="matrix(0.7442388,0,0,0.7442388,1374.2543,7.8183928)">
	<path
   id="path78_3_"
   inkscape:connector-curvature="0"
   class="st0"
   d="m 516.7,457.2 h -38.4 c 0,0 15.5,-8.9 38.4,-29.3 z" />
	<path
   id="path78_2_"
   inkscape:connector-curvature="0"
   class="st0"
   d="m 529.8,415.7 c 25.5,-24.9 57,-62.1 85.9,-114.2 0,0 -119.8,17.1 -183.4,1.3 -2.9,-0.7 -4.6,-3.7 -3.9,-6.5 0.2,-0.8 0.6,-1.6 1.2,-2.3 9.1,-10.2 28.2,-21.2 52.3,-31.1 0,0.1 0,0.2 0,0.2 1.7,9.2 4.3,25.2 48.1,14.8 l 65.7,-11.8 c 8.8,-1.6 16.1,-7.8 19.1,-16.2 l 4.6,-18.2 c 4.4,-0.2 8.8,-0.2 13,-0.1 L 664,107.1 c 13.7,-40.5 22.6,-52 38.3,-73.8 3.2,-4.4 5.4,-7.5 5.4,-7.5 1.3,-2.6 3,-4.8 5.1,-6.8 0.5,-0.4 0.8,-1 1.1,-1.5 7.9,-20 12.9,-16.2 12.9,-16.2 l -7.1,18.8 -17.3,48.7 c 0,0 0,0 0,0 -7.2,27.5 -16.3,61.4 -18.9,127.4 l -0.8,37.9 c 0,0 65.9,14.6 338.7,-7.7 2.8,-0.2 5.2,-2.1 6.2,-4.7 l 34.7,-93.5 c 1.2,-0.4 -26.1,-12.3 -26.7,-14.9 -0.9,-4.5 26,-2.2 26,-2.2 l 36.1,11.3 16.3,-1.9 c 0.3,0 0.7,0.2 0.7,0.5 v 0.1 6.7 l 18.8,8.1 c -5.8,2.9 -12.6,3.6 -18.8,1.8 l 1.1,84 c 0,0.5 -0.3,0.9 -0.8,1.1 l -23.8,8.3 c -0.7,0.3 -1.5,0.4 -2.3,0.5 -3.3,0.4 -13.6,2.2 -18.3,9.6 -0.3,0.5 -0.8,0.8 -1.3,1 -1.5,0.4 -4.9,0.5 -9.9,-4.5 -0.4,-0.4 -0.9,-0.6 -1.4,-0.6 -18.3,1.3 -326.2,24.3 -374.9,46.4 0,0 -14,120.2 -48.1,173.7 H 529.8 Z" />
</g>
<path
   id="path78_4_"
   inkscape:connector-curvature="0"
   class="st1"
   d="m 1732.8676,203.60788 c 0,0.0743 0,0.1486 0,0.1486 1.263,6.83526 3.1947,18.72267 35.8108,10.99585 l 48.887,-8.76696 c 6.5381,-1.18875 11.9617,-5.79512 14.1906,-12.03601 l 3.4176,-13.52194 c -34.5478,3.71482 -68.4269,9.28705 -102.306,23.18046 z"
   style="stroke-width:0.742963" />
</svg>
