<?xml version="1.0" encoding="utf-8"?>
<!-- Generator: Adobe Illustrator 25.4.1, SVG Export Plug-In . SVG Version: 6.00 Build 0)  -->
<svg version="1.1"
	 id="Ebene_1" inkscape:version="1.1 (c4e8f9ed74, 2021-05-24)" sodipodi:docname="aufkleber2.svg" xmlns:inkscape="http://www.inkscape.org/namespaces/inkscape" xmlns:sodipodi="http://sodipodi.sourceforge.net/DTD/sodipodi-0.dtd" xmlns:svg="http://www.w3.org/2000/svg"
	 xmlns="http://www.w3.org/2000/svg" xmlns:xlink="http://www.w3.org/1999/xlink" x="0px" y="0px" viewBox="0 0 1322.3 741.8"
	 style="enable-background:new 0 0 1322.3 741.8;" xml:space="preserve">
<style type="text/css">
	.st0{fill:#020203;}
	.st1{enable-background:new    ;}
	.st2{stroke:#000000;stroke-width:1.0032;stroke-miterlimit:4.013;}
</style>
<sodipodi:namedview  bordercolor="#666666" borderopacity="1.0" fit-margin-bottom="0" fit-margin-left="0" fit-margin-right="0" fit-margin-top="0" id="namedview60" inkscape:current-layer="Ebene_1" inkscape:cx="1190.2849" inkscape:cy="670.70465" inkscape:document-units="cm" inkscape:pagecheckerboard="0" inkscape:pageopacity="0.0" inkscape:pageshadow="2" inkscape:window-height="1107" inkscape:window-maximized="1" inkscape:window-width="1912" inkscape:window-x="1920" inkscape:window-y="0" inkscape:zoom="0.34739583" pagecolor="#ffffff" showgrid="false" units="cm">
	</sodipodi:namedview>
<g id="g57" transform="translate(-78.536603,-53.177501)">
	<g id="g54">
		<g id="g18">
			<path id="path54_2_" class="st0" d="M78.7,653.9V506h76.2c14.1,0,24.9,1.3,32.4,3.7c7.4,2.3,13.7,7.1,18.1,13.5
				c4.6,6.6,6.9,14.5,6.9,23.9c0,8.2-1.8,15.3-5.2,21.2c-3.5,5.9-8.5,11-14.4,14.4c-3.9,2.4-9.3,4.3-16.1,5.8
				c5.4,1.8,9.4,3.7,11.9,5.4c1.6,1.3,4,3.8,7.4,7.7c2.4,2.8,4.6,5.9,6.4,9.2l22.2,42.9h-51.8l-24.4-45.2c-3.1-5.9-5.9-9.6-8.2-11.4
				c-3.2-2.3-7.2-3.5-11.2-3.5h-4v60L78.7,653.9z M124.6,565.9h19.2c2.1,0,6.1-0.6,12.1-2c2.9-0.5,5.6-2.2,7.4-4.6
				c1.9-2.4,2.9-5.4,2.9-8.6c0-4.8-1.5-8.5-4.5-10.9s-8.7-3.9-17-3.9h-20.2V565.9z"/>
			<path id="path56_2_" class="st0" d="M223.5,506h41.1v54.5c5.5-5.8,11.1-9.9,16.6-12.5c6.2-2.6,12.8-3.9,19.6-3.7
				c11.2,0,20,3.4,26.3,10.1c6.4,6.8,9.6,17.2,9.6,31.3v68.2h-41.3v-59c0-6.7-1.3-11.5-3.8-14.3c-2.5-2.9-5.9-4.2-10.4-4.2
				c-4.7-0.1-9.2,2-12.1,5.6c-3.2,3.8-4.6,10.6-4.6,20.2v51.5h-41.1L223.5,506L223.5,506z"/>
			<path id="path58_2_" class="st0" d="M467.7,610.5h-82.4c0.8,6.6,2.5,11.5,5.3,14.8c3.9,4.6,9.5,7.1,15.6,6.9c4.1,0,7.9-1,11.5-3
				c2.8-1.8,5.2-4,7.2-6.8l40.4,3.8c-6.1,10.8-13.7,18.5-22.3,23.2c-8.8,4.7-21.3,7-37.6,7c-14.2,0-25.3-1.9-33.5-5.9
				c-8.2-4-14.8-10.3-20.2-19.1c-5.3-8.7-8-18.9-8-30.8c0-16.7,5.3-30.3,16.1-40.6c10.8-10.3,25.5-15.6,44.4-15.5
				c15.4,0,27.4,2.3,36.4,7c8.7,4.5,15.8,11.5,20.2,20.2c4.6,8.8,7,20.2,7,34.4L467.7,610.5L467.7,610.5z M425.9,590.8
				c-0.8-7.9-2.9-13.6-6.4-17s-8-5.1-13.7-5.1c-6.1-0.2-12.1,2.7-15.7,7.7c-2.5,3.2-4,8-4.7,14.4H425.9z"/>
			<rect id="rect60_2_" x="475.4" y="546.8" class="st0" width="41.1" height="107.2"/>
			<path id="path62_2_" class="st0" d="M530.2,546.8h38.2v17.5c5.8-7.1,11.5-12.2,17.3-15.3c5.9-3.1,13-4.6,21.3-4.6
				c11.4,0,20.2,3.4,26.6,10.1c6.4,6.8,9.6,17.2,9.6,31.3V654H602v-59c0-6.7-1.3-11.5-3.8-14.3c-2.5-2.9-5.9-4.2-10.4-4.2
				c-4.7-0.1-9.2,2-12.2,5.6c-3.1,3.8-4.6,10.6-4.6,20.2v51.5h-40.9L530.2,546.8L530.2,546.8z"/>
			<path id="path64_2_" class="st0" d="M774.4,610.5h-82.4c0.8,6.6,2.5,11.5,5.3,14.8c3.9,4.6,9.5,7.1,15.6,6.9c4,0,7.9-1,11.5-3
				c2.8-1.8,5.2-4,7.1-6.8l40.4,3.8c-6.2,10.8-13.7,18.5-22.3,23.2c-8.7,4.7-21.3,7-37.7,7c-14.2,0-25.3-1.9-33.4-5.9
				c-8.2-4-14.8-10.3-20.2-19.1c-5.3-8.7-8-18.9-8-30.8c0-16.7,5.3-30.3,16.1-40.6c10.8-10.3,25.5-15.6,44.4-15.5
				c15.4,0,27.4,2.3,36.4,7c8.7,4.5,15.8,11.5,20.2,20.2c4.6,8.8,6.9,20.2,7,34.4V610.5z M732.7,590.8c-0.8-7.9-2.9-13.6-6.4-17
				s-8-5.1-13.7-5.1c-6.2-0.2-12.2,2.7-15.7,7.7c-2.5,3.2-4,8-4.7,14.4H732.7z"/>
			<path id="path66_2_" class="st0" d="M781,546.8h38.5v17.5c3.7-7.6,7.5-12.8,11.5-15.7c4-2.8,8.8-4.3,14.5-4.3
				c6.1,0,12.7,1.9,19.9,5.6l-12.8,29.2c-4.8-2-8.7-3-11.5-3c-5.1-0.2-9.8,2.4-12.5,6.7c-4.3,6.3-6.4,18-6.4,35.1v36H781L781,546.8z
				"/>
			<path id="path68_2_" class="st0" d="M870.4,546.8h38.4v15.7c5.5-6.4,11.1-11.2,16.7-13.9c5.6-2.7,12.4-4.2,20.4-4
				c8.5,0,15.4,1.5,20.2,4.5c5.2,3.4,9.5,7.9,12.2,13.5c6.4-7,12.3-11.7,17.7-14.3c5.3-2.5,11.9-3.8,19.6-3.8
				c11.5,0,20.5,3.5,26.8,10.3c6.5,6.8,9.6,17.5,9.6,32v67.3H1011V593c0-4.8-1-8.5-2.9-10.8c-2.7-3.7-6.1-5.6-10.3-5.6
				c-4.5-0.1-8.8,1.8-11.7,5.2c-2.9,3.5-4.4,9.1-4.4,16.8V654h-41.2v-59c0-4.7-0.3-7.9-0.8-9.6c-0.8-2.6-2.4-5-4.5-6.5
				c-2.2-1.6-5-2.5-7.6-2.5c-4.5-0.1-8.8,1.9-11.6,5.3c-3,3.5-4.6,9.4-4.6,17.5v54.7h-41.2L870.4,546.8z"/>
			<path id="path70_2_" class="st0" d="M1101.5,581.5l-39.2-4.2c1.5-6.8,3.5-12.2,6.4-16.2c3.2-4.3,7.4-7.7,12-10.3
				c3.8-2.1,9-3.7,15.6-4.8c7.1-1.1,14.2-1.8,21.4-1.7c12.3,0,22.2,0.8,29.7,2.1c6.9,1.1,13.4,4.1,18.8,8.7c3.4,3,6.3,7.3,8.2,12.8
				c1.9,5.1,2.9,10.4,3,15.9v47.3c-0.1,4,0.2,8,1,11.9c1,3.8,2.4,7.4,4.2,10.9H1144c-1.1-1.9-2.2-4-3-6.3c-0.6-2.2-1.1-4.5-1.3-6.8
				c-4.6,4.7-10.1,8.5-16,11.1c-7.3,2.9-15.7,4.4-25.3,4.4c-12.8,0-22.5-2.9-29.1-8.8c-6.4-5.4-10.1-13.5-9.9-21.8
				c0-8.2,2.4-14.8,7.2-20.1s13.6-9.2,26.5-11.7c15.4-3.1,25.4-5.2,30-6.4c5-1.3,9.8-3,14.6-5c0-5-1.1-8.5-3.1-10.6
				c-2.1-2-5.8-3-11-3.2c-6.7,0-11.8,1.1-15.1,3.2C1105.3,573.6,1103.2,576.8,1101.5,581.5L1101.5,581.5z M1137.1,603
				c-5.6,1.9-11.5,3.8-17.7,5.3c-8.4,2.2-13.7,4.4-15.9,6.6c-4.3,4-4.6,10.6-0.6,14.9c0.2,0.2,0.5,0.4,0.6,0.6c2.3,2.1,5.6,3,9.9,3
				c4.5,0,8.9-1.1,12.8-3.4c3.5-1.9,6.5-4.7,8.4-8.2c1.6-3.2,2.5-7.3,2.5-12.4L1137.1,603L1137.1,603z"/>
			<path id="path72_2_" class="st0" d="M1189.7,546.8h38.5v17.5c3.7-7.6,7.5-12.8,11.5-15.7c4-2.8,8.8-4.3,14.5-4.3
				c6.1,0,12.7,1.9,19.9,5.6l-12.8,29.2c-4.8-2-8.7-3-11.5-3c-5.1-0.2-9.8,2.4-12.5,6.7c-4.3,6.3-6.4,18-6.4,35.1v36h-41.3
				L1189.7,546.8z"/>
			<path id="path74_2_" class="st0" d="M1275.3,506h42v76.3l30.6-35.5h50.5l-38.5,37.5l40.7,69.6h-46.2l-21.8-43l-15.5,15.1v27.8
				h-42L1275.3,506z"/>
			<g id="g82_2_" transform="matrix(1.0017166,0,0,1.0017166,-98.77961,-1.0136042)">
				<path id="path78_9_" class="st0" d="M614.3,531.2h-40.1c0,0,16.2-9.3,40.1-30.6V531.2z"/>
				<path id="path78_8_" class="st0" d="M628,487.7c26.6-26,59.6-64.9,89.8-119.4c0,0-125.2,17.8-191.8,1.4c-3-0.8-4.8-3.9-4.1-6.8
					c0.2-0.8,0.6-1.7,1.3-2.4c9.5-10.6,28.5-21.3,53.7-31.6c0,0.1,0,0,0,0c1.8,9.6,5.5,27.7,51.3,16.8l68.7-12.3
					c9.2-1.6,17.8-10.2,20.9-18.9l4.8-19c4.6-0.2,8.2-0.2,12.6-0.1l33.1-130.2c14.3-42.4,23.6-54.4,40-77.2c3.4-4.6,5.6-7.9,5.6-7.9
					c1.4-2.7,3.1-5,5.3-7.1c0.5-0.5,0.8-1.1,1.1-1.6c8.2-20.9,13.5-16.9,13.5-16.9L826.5,74L808.4,125l0,0
					c-7.5,28.7-17,64.2-19.7,133.2l-0.8,39.6c0,0,68.9,15.3,354.1-8c2.9-0.2,5.4-2.2,6.4-4.9l36.3-97.7c1.3-0.4-27.3-12.8-27.9-15.6
					c-1-4.7,27.2-2.3,27.2-2.3l37.7,11.8l17-1.9c0.3,0,0.8,0.2,0.8,0.5v0.1v7l19.6,8.5c-6.1,3-13.2,3.8-19.6,1.9l1.1,87.8
					c0,0.5-0.3,1-0.8,1.1l-24.9,8.7c-0.8,0.3-1.6,0.5-2.4,0.5c-3.4,0.5-14.2,2.3-19.1,10c-0.3,0.5-0.8,0.8-1.3,1
					c-1.6,0.5-5.1,0.5-10.3-4.7c-0.5-0.5-1-0.6-1.5-0.6c-19.1,1.4-341,25.4-391.9,48.5c0,0-14.6,125.7-50.3,181.6H628V487.7z"/>
			</g>
		</g>
		<g id="g52" class="st1">
		</g>
	</g>
	<path id="path78_7_" class="st0" d="M484.6,326.3l0.1,0.4c1.8,9.8,5.6,23,47.5,13.3l65.6-12.8c8.9-1.6,14.1-5.8,17.1-14.1l4.6-18
		C573.4,300.2,531.7,307.4,484.6,326.3L484.6,326.3z"/>
</g>
<g id="text6786" transform="matrix(1.3376504,0,0,1.3376504,28.318533,-243.96535)">
	<path id="path14586" class="st2" d="M40.8,674.4h13.9l6,23.5l7.6-23.5h12.9l7.9,23.5l6-23.5h13.7L95,711.7H82.3l-7.6-22.5
		l-7.3,22.5H54.6L40.8,674.4z"/>
	<path id="path14588" class="st2" d="M107.2,674.4h13.9l6,23.5l7.6-23.5h12.9l7.9,23.5l6-23.5h13.7l-13.7,37.3h-12.7l-7.6-22.5
		l-7.3,22.5h-12.8L107.2,674.4z"/>
	<path id="path14590" class="st2" d="M173.7,674.4h13.9l6,23.5l7.6-23.5h12.9l7.9,23.5l6-23.5h13.7l-13.7,37.3h-12.7l-7.6-22.5
		l-7.3,22.5h-12.8L173.7,674.4z"/>
	<path id="path14592" class="st2" d="M238.3,697.4h15.3v14.3h-15.3V697.4z"/>
	<path id="path14594" class="st2" d="M258.2,701.4l14.2-1.3c0.6,1.7,1.4,2.9,2.5,3.6c1.1,0.7,2.5,1.1,4.2,1.1c1.9,0,3.4-0.4,4.5-1.2
		c0.8-0.6,1.2-1.4,1.2-2.3c0-1-0.5-1.8-1.6-2.4c-0.8-0.4-2.8-0.9-6.2-1.5c-5-0.9-8.4-1.7-10.4-2.4c-1.9-0.8-3.6-2-4.9-3.8
		c-1.3-1.8-2-3.8-2-6c0-2.5,0.7-4.6,2.1-6.4c1.4-1.8,3.4-3.1,5.9-4c2.5-0.9,5.9-1.3,10.1-1.3c4.5,0,7.7,0.3,9.8,1
		c2.1,0.7,3.9,1.7,5.3,3.2c1.4,1.4,2.6,3.4,3.6,5.8l-13.6,1.3c-0.4-1.2-0.9-2.1-1.8-2.6c-1.1-0.8-2.5-1.1-4.1-1.1
		c-1.6,0-2.8,0.3-3.6,0.9c-0.7,0.6-1.1,1.3-1.1,2.1c0,0.9,0.5,1.6,1.4,2.1c0.9,0.5,3,0.9,6.1,1.3c4.8,0.5,8.3,1.3,10.6,2.2
		c2.3,1,4.1,2.3,5.3,4.1c1.2,1.8,1.9,3.7,1.9,5.9c0,2.2-0.7,4.3-2,6.3c-1.3,2-3.3,3.7-6.2,4.9c-2.8,1.2-6.6,1.8-11.4,1.8
		c-6.8,0-11.7-1-14.6-2.9C260.9,707.7,259,705,258.2,701.4z"/>
	<path id="path14596" class="st2" d="M344.7,696.6H316c0.3,2.3,0.9,4,1.9,5.1c1.4,1.6,3.2,2.4,5.4,2.4c1.4,0,2.7-0.4,4-1.1
		c0.8-0.4,1.6-1.2,2.5-2.4l14.1,1.3c-2.2,3.7-4.8,6.4-7.8,8.1c-3,1.6-7.4,2.4-13.1,2.4c-4.9,0-8.8-0.7-11.7-2.1
		c-2.8-1.4-5.2-3.6-7.1-6.6c-1.9-3-2.8-6.6-2.8-10.7c0-5.8,1.9-10.6,5.6-14.2c3.8-3.6,8.9-5.4,15.5-5.4c5.3,0,9.6,0.8,12.7,2.4
		c3.1,1.6,5.4,4,7.1,7c1.6,3.1,2.4,7.1,2.4,12V696.6z M330.1,689.8c-0.3-2.8-1-4.7-2.2-5.9c-1.2-1.2-2.8-1.8-4.7-1.8
		c-2.3,0-4.1,0.9-5.4,2.7c-0.9,1.1-1.4,2.8-1.7,5H330.1z"/>
	<path id="path14598" class="st2" d="M377.5,674.4h13.4v35.3l0,1.7c0,2.3-0.5,4.6-1.5,6.7c-1,2.1-2.3,3.9-4,5.2
		c-1.6,1.3-3.7,2.3-6.3,2.8c-2.5,0.6-5.4,0.9-8.7,0.9c-7.5,0-12.7-1.1-15.5-3.4c-2.8-2.3-4.2-5.3-4.2-9c0-0.5,0-1.1,0.1-1.9
		l13.9,1.6c0.4,1.3,0.9,2.2,1.6,2.7c1.1,0.7,2.4,1.1,4,1.1c2.1,0,3.6-0.6,4.6-1.7c1-1.1,1.5-3,1.5-5.8v-5.7
		c-1.4,1.7-2.8,2.9-4.2,3.6c-2.2,1.2-4.6,1.8-7.1,1.8c-5,0-9-2.2-12.1-6.5c-2.2-3.1-3.3-7.2-3.3-12.3c0-5.8,1.4-10.2,4.2-13.3
		c2.8-3,6.5-4.6,11-4.6c2.9,0,5.3,0.5,7.2,1.5c1.9,1,3.7,2.6,5.3,4.9L377.5,674.4z M364.1,692.5c0,2.7,0.6,4.7,1.7,6
		c1.1,1.3,2.7,1.9,4.5,1.9c1.8,0,3.3-0.7,4.5-2c1.2-1.4,1.8-3.4,1.8-6.1c0-2.7-0.6-4.8-1.9-6.2c-1.3-1.5-2.8-2.2-4.6-2.2
		c-1.8,0-3.3,0.7-4.4,2C364.6,687.2,364.1,689.4,364.1,692.5z"/>
	<path id="path14600" class="st2" d="M439.5,696.6h-28.7c0.3,2.3,0.9,4,1.9,5.1c1.4,1.6,3.2,2.4,5.4,2.4c1.4,0,2.7-0.4,4-1.1
		c0.8-0.4,1.6-1.2,2.5-2.4l14.1,1.3c-2.2,3.7-4.8,6.4-7.8,8.1c-3,1.6-7.4,2.4-13.1,2.4c-4.9,0-8.8-0.7-11.7-2.1
		c-2.8-1.4-5.2-3.6-7.1-6.6c-1.9-3-2.8-6.6-2.8-10.7c0-5.8,1.9-10.6,5.6-14.2c3.8-3.6,8.9-5.4,15.5-5.4c5.3,0,9.6,0.8,12.7,2.4
		c3.1,1.6,5.4,4,7.1,7c1.6,3.1,2.4,7.1,2.4,12V696.6z M425,689.8c-0.3-2.8-1-4.7-2.2-5.9c-1.2-1.2-2.8-1.8-4.7-1.8
		c-2.3,0-4.1,0.9-5.4,2.7c-0.9,1.1-1.4,2.8-1.7,5H425z"/>
	<path id="path14602" class="st2" d="M445.1,660.2h14.3v51.5h-14.3V660.2z"/>
	<path id="path14604" class="st2" d="M483,674.4h6.8v10.5H483v26.9h-14.3v-26.9h-5.3v-10.5h5.3v-1.7c0-1.5,0.2-3.2,0.5-5
		c0.3-1.8,0.9-3.3,1.8-4.5c0.9-1.2,2.2-2.1,3.8-2.8c1.6-0.7,4-1.1,7.2-1.1c2.5,0,6.2,0.3,10.9,0.9l-1.6,8.6
		c-1.7-0.3-3.1-0.4-4.1-0.4c-1.3,0-2.2,0.2-2.8,0.7c-0.6,0.4-1,1.1-1.2,2C483,671.6,483,672.7,483,674.4z"/>
	<path id="path14606" class="st2" d="M494.1,660.2h14.3v51.5h-14.3V660.2z"/>
	<path id="path14608" class="st2" d="M516.6,660.2h14.3v9.7h-14.3V660.2z M516.6,674.4h14.3v37.3h-14.3V674.4z"/>
	<path id="path14610" class="st2" d="M580,696.6h-28.7c0.3,2.3,0.9,4,1.9,5.1c1.4,1.6,3.2,2.4,5.4,2.4c1.4,0,2.7-0.4,4-1.1
		c0.8-0.4,1.6-1.2,2.5-2.4l14.1,1.3c-2.2,3.7-4.8,6.4-7.8,8.1c-3,1.6-7.4,2.4-13.1,2.4c-4.9,0-8.8-0.7-11.7-2.1
		c-2.8-1.4-5.2-3.6-7.1-6.6c-1.9-3-2.8-6.6-2.8-10.7c0-5.8,1.9-10.6,5.6-14.2c3.8-3.6,8.9-5.4,15.5-5.4c5.3,0,9.6,0.8,12.7,2.4
		c3.1,1.6,5.4,4,7.1,7c1.6,3.1,2.4,7.1,2.4,12V696.6z M565.4,689.8c-0.3-2.8-1-4.7-2.2-5.9c-1.2-1.2-2.8-1.8-4.7-1.8
		c-2.3,0-4.1,0.9-5.4,2.7c-0.9,1.1-1.4,2.8-1.7,5H565.4z"/>
	<path id="path14612" class="st2" d="M612.8,674.4h13.4v35.3l0,1.7c0,2.3-0.5,4.6-1.5,6.7c-1,2.1-2.3,3.9-4,5.2
		c-1.6,1.3-3.7,2.3-6.3,2.8c-2.5,0.6-5.4,0.9-8.7,0.9c-7.5,0-12.7-1.1-15.5-3.4c-2.8-2.3-4.2-5.3-4.2-9c0-0.5,0-1.1,0.1-1.9
		l13.9,1.6c0.4,1.3,0.9,2.2,1.6,2.7c1.1,0.7,2.4,1.1,4,1.1c2.1,0,3.6-0.6,4.6-1.7c1-1.1,1.5-3,1.5-5.8v-5.7
		c-1.4,1.7-2.8,2.9-4.2,3.6c-2.2,1.2-4.6,1.8-7.1,1.8c-5,0-9-2.2-12.1-6.5c-2.2-3.1-3.3-7.2-3.3-12.3c0-5.8,1.4-10.2,4.2-13.3
		c2.8-3,6.5-4.6,11-4.6c2.9,0,5.3,0.5,7.2,1.5c1.9,1,3.7,2.6,5.3,4.9L612.8,674.4z M599.4,692.5c0,2.7,0.6,4.7,1.7,6
		c1.1,1.3,2.7,1.9,4.5,1.9c1.8,0,3.3-0.7,4.5-2c1.2-1.4,1.8-3.4,1.8-6.1c0-2.7-0.6-4.8-1.9-6.2c-1.3-1.5-2.8-2.2-4.6-2.2
		c-1.8,0-3.3,0.7-4.4,2C599.9,687.2,599.4,689.4,599.4,692.5z"/>
	<path id="path14614" class="st2" d="M674.8,696.6h-28.7c0.3,2.3,0.9,4,1.9,5.1c1.4,1.6,3.2,2.4,5.4,2.4c1.4,0,2.7-0.4,4-1.1
		c0.8-0.4,1.6-1.2,2.5-2.4l14.1,1.3c-2.2,3.7-4.8,6.4-7.8,8.1c-3,1.6-7.4,2.4-13.1,2.4c-4.9,0-8.8-0.7-11.7-2.1
		c-2.8-1.4-5.2-3.6-7.1-6.6c-1.9-3-2.8-6.6-2.8-10.7c0-5.8,1.9-10.6,5.6-14.2c3.8-3.6,8.9-5.4,15.5-5.4c5.3,0,9.6,0.8,12.7,2.4
		c3.1,1.6,5.4,4,7.1,7c1.6,3.1,2.4,7.1,2.4,12V696.6z M660.3,689.8c-0.3-2.8-1-4.7-2.2-5.9c-1.2-1.2-2.8-1.8-4.7-1.8
		c-2.3,0-4.1,0.9-5.4,2.7c-0.9,1.1-1.4,2.8-1.7,5H660.3z"/>
	<path id="path14616" class="st2" d="M679.9,674.4h13.3v6.1c2-2.5,4-4.3,6-5.3c2-1.1,4.5-1.6,7.5-1.6c4,0,7.1,1.2,9.3,3.6
		c2.2,2.3,3.4,6,3.4,10.9v23.7H705v-20.5c0-2.3-0.4-4-1.3-5c-0.9-1-2.1-1.5-3.7-1.5c-1.7,0-3.1,0.7-4.2,2c-1.1,1.3-1.6,3.7-1.6,7.1
		v17.9h-14.3V674.4z"/>
	<path id="path14618" class="st2" d="M726.5,697.4h15.3v14.3h-15.3V697.4z"/>
	<path id="path14620" class="st2" d="M776.7,697.1l13.6,1.5c-0.8,2.8-2,5.3-3.7,7.4c-1.7,2.1-3.9,3.7-6.6,4.8
		c-2.6,1.1-6,1.7-10.1,1.7c-4,0-7.3-0.4-9.9-1.1c-2.6-0.8-4.9-1.9-6.8-3.6c-1.9-1.7-3.4-3.6-4.5-5.8c-1.1-2.2-1.6-5.2-1.6-8.9
		c0-3.8,0.7-7,2-9.6c1-1.9,2.3-3.6,3.9-5c1.7-1.5,3.4-2.6,5.1-3.3c2.8-1.1,6.4-1.7,10.7-1.7c6.1,0,10.7,1.1,13.9,3.3
		c3.2,2.2,5.5,5.4,6.8,9.6l-13.5,1.8c-0.4-1.6-1.2-2.8-2.3-3.6c-1.1-0.8-2.6-1.2-4.5-1.2c-2.4,0-4.3,0.9-5.8,2.6
		c-1.5,1.7-2.2,4.3-2.2,7.7c0,3.1,0.7,5.4,2.2,7c1.5,1.6,3.3,2.4,5.6,2.4c1.9,0,3.4-0.5,4.7-1.4
		C775.1,700.6,776.1,699.1,776.7,697.1L776.7,697.1z"/>
	<path id="path14622" class="st2" d="M793.7,693.2c0-5.7,1.9-10.4,5.8-14.1c3.8-3.7,9-5.6,15.6-5.6c7.5,0,13.1,2.2,16.9,6.5
		c3.1,3.5,4.6,7.8,4.6,12.9c0,5.7-1.9,10.5-5.7,14.1c-3.8,3.7-9.1,5.5-15.8,5.5c-6,0-10.9-1.5-14.6-4.6
		C795.9,704.2,793.7,699.3,793.7,693.2L793.7,693.2z M808,693.1c0,3.3,0.7,5.8,2,7.4c1.4,1.6,3.1,2.4,5.1,2.4c2.1,0,3.8-0.8,5.1-2.4
		c1.3-1.6,2-4.1,2-7.6c0-3.2-0.7-5.6-2-7.2c-1.3-1.6-3-2.4-5-2.4c-2.1,0-3.8,0.8-5.2,2.4C808.7,687.4,808,689.8,808,693.1z"/>
	<path id="path14624" class="st2" d="M842,674.4h13.4v5.4c1.9-2.3,3.9-3.9,5.8-4.9c2-1,4.3-1.4,7.1-1.4c3,0,5.3,0.5,7.1,1.6
		c1.7,1.1,3.2,2.6,4.3,4.7c2.2-2.4,4.3-4.1,6.2-5c1.9-0.9,4.1-1.3,6.9-1.3c4,0,7.1,1.2,9.4,3.6c2.2,2.4,3.4,6.1,3.4,11.1v23.4h-14.3
		v-21.3c0-1.7-0.3-2.9-1-3.8c-1-1.3-2.2-1.9-3.6-1.9c-1.7,0-3,0.6-4.1,1.8c-1,1.2-1.5,3.2-1.5,5.9v19.3h-14.3v-20.6
		c0-1.6-0.1-2.8-0.3-3.3c-0.3-0.9-0.8-1.7-1.6-2.2c-0.8-0.6-1.6-0.9-2.6-0.9c-1.6,0-3,0.6-4,1.9c-1.1,1.2-1.6,3.3-1.6,6.1v19.1H842
		L842,674.4z"/>
</g>
</svg>
