<?xml version="1.0" encoding="UTF-8" standalone="no"?>
<!-- Generator: Adobe Illustrator 25.3.1, SVG Export Plug-In . SVG Version: 6.00 Build 0)  -->

<svg
   version="1.1"
   id="Ebene_1"
   x="0px"
   y="0px"
   viewBox="0 0 1763.0715 989.13281"
   xml:space="preserve"
   sodipodi:docname="aufkleber2.svg"
   inkscape:version="1.1 (c4e8f9ed74, 2021-05-24)"
   width="46.64793cm"
   height="26.170805cm"
   xmlns:inkscape="http://www.inkscape.org/namespaces/inkscape"
   xmlns:sodipodi="http://sodipodi.sourceforge.net/DTD/sodipodi-0.dtd"
   xmlns="http://www.w3.org/2000/svg"
   xmlns:svg="http://www.w3.org/2000/svg"><defs
   id="defs62"><rect
     x="61.299999"
     y="800.82251"
     width="1681.2377"
     height="301.63428"
     id="rect6788" /><rect
     x="125.2"
     y="800.82251"
     width="1626.4541"
     height="126.61713"
     id="rect1590" /><rect
     x="147.24583"
     y="96.941818"
     width="1696.1842"
     height="351.36414"
     id="rect45931" /><rect
     x="140"
     y="854"
     width="1749.1003"
     height="236.80849"
     id="rect13863" /><rect
     x="132.89941"
     y="929.84888"
     width="1609.2026"
     height="143.58139"
     id="rect6315" /></defs><sodipodi:namedview
   id="namedview60"
   pagecolor="#ffffff"
   bordercolor="#666666"
   borderopacity="1.0"
   inkscape:pageshadow="2"
   inkscape:pageopacity="0.0"
   inkscape:pagecheckerboard="0"
   showgrid="false"
   inkscape:zoom="0.34739583"
   inkscape:cx="1190.2849"
   inkscape:cy="670.70465"
   inkscape:window-width="1912"
   inkscape:window-height="1107"
   inkscape:window-x="1920"
   inkscape:window-y="0"
   inkscape:window-maximized="1"
   inkscape:current-layer="Ebene_1"
   fit-margin-top="0"
   fit-margin-left="0"
   fit-margin-right="0"
   fit-margin-bottom="0"
   units="cm"
   inkscape:document-units="cm" />
<style
   type="text/css"
   id="style2">
	.st0{fill:#020203;}
	.st1{enable-background:new    ;}
</style>
<g
   id="g57"
   transform="translate(-78.536603,-53.177501)">
	<g
   id="g54">
		<g
   id="g18">
			<path
   id="path54_2_"
   class="st0"
   d="M 78.7,854.2 V 656.9 h 101.6 c 18.8,0 33.2,1.7 43.2,4.9 9.8,3.1 18.3,9.5 24.1,18 6.1,8.8 9.2,19.4 9.2,31.9 0,11 -2.4,20.4 -7,28.3 -4.7,7.9 -11.3,14.6 -19.2,19.2 -5.2,3.2 -12.4,5.7 -21.5,7.8 7.2,2.4 12.5,4.9 15.9,7.2 2.2,1.7 5.4,5 9.8,10.3 3.2,3.8 6.1,7.9 8.5,12.3 l 29.6,57.2 h -69 L 171.3,793.8 C 167.1,786 163.5,781 160.3,778.6 156,775.5 150.7,774 145.4,774 H 140 v 80 z M 140,736.8 h 25.6 c 2.8,0 8.2,-0.8 16.2,-2.6 3.9,-0.7 7.5,-2.9 9.9,-6.1 2.5,-3.2 3.9,-7.2 3.9,-11.4 0,-6.4 -2,-11.3 -6,-14.6 -4,-3.3 -11.6,-5.2 -22.7,-5.2 H 140 Z" />
			<path
   id="path56_2_"
   class="st0"
   d="m 271.8,656.9 h 54.8 v 72.6 c 7.4,-7.7 14.8,-13.2 22.2,-16.6 8.2,-3.5 17.1,-5.2 26.1,-4.9 14.9,0 26.6,4.5 35.1,13.5 8.5,9.1 12.8,22.9 12.8,41.7 v 90.9 h -55.1 v -78.6 c 0,-8.9 -1.7,-15.3 -5,-19.1 -3.3,-3.8 -7.9,-5.6 -13.9,-5.6 -6.3,-0.1 -12.3,2.6 -16.2,7.5 -4.2,5 -6.1,14.1 -6.1,27 V 854 H 271.7 V 656.9 Z" />
			<path
   id="path58_2_"
   class="st0"
   d="M 597.4,796.3 H 487.6 c 1,8.8 3.3,15.3 7.1,19.7 5.2,6.1 12.7,9.5 20.8,9.2 5.4,0 10.6,-1.4 15.3,-4 3.8,-2.4 7,-5.4 9.6,-9.1 l 53.9,5 c -8.2,14.4 -18.3,24.7 -29.8,30.9 -11.7,6.3 -28.4,9.3 -50.2,9.3 -19,0 -33.7,-2.6 -44.6,-7.9 -10.9,-5.3 -19.8,-13.8 -27,-25.4 -7.1,-11.6 -10.7,-25.2 -10.7,-41 0,-22.3 7.1,-40.4 21.5,-54.2 14.4,-13.8 34,-20.8 59.2,-20.6 20.5,0 36.5,3.1 48.5,9.3 11.6,6 21,15.3 27,26.9 6.1,11.7 9.3,27 9.3,45.9 v 6 z M 541.7,770 c -1.1,-10.6 -3.9,-18.1 -8.5,-22.7 -4.6,-4.6 -10.7,-6.8 -18.3,-6.8 -8.2,-0.3 -16.2,3.6 -20.9,10.3 -3.3,4.3 -5.4,10.7 -6.3,19.2 z" />
			<rect
   id="rect60_2_"
   x="607.70001"
   y="711.29999"
   class="st0"
   width="54.799999"
   height="142.89999" />
			<path
   id="path62_2_"
   class="st0"
   d="m 680.8,711.3 h 51 v 23.3 c 7.7,-9.5 15.3,-16.3 23.1,-20.4 7.8,-4.1 17.3,-6.1 28.4,-6.1 15.2,0 27,4.5 35.5,13.5 8.6,9.1 12.8,23 12.8,41.8 v 90.9 h -55.1 v -78.6 c 0,-8.9 -1.7,-15.3 -5,-19.1 -3.3,-3.8 -7.9,-5.6 -13.9,-5.6 -6.3,-0.1 -12.3,2.6 -16.2,7.5 -4.2,5 -6.1,14.1 -6.1,27 v 68.6 H 680.7 V 711.3 Z" />
			<path
   id="path64_2_"
   class="st0"
   d="M 1006.3,796.3 H 896.4 c 1,8.8 3.3,15.3 7.1,19.7 5.2,6.1 12.7,9.5 20.8,9.2 5.4,0 10.6,-1.4 15.3,-4 3.8,-2.4 7,-5.4 9.5,-9.1 l 53.9,5 c -8.2,14.4 -18.3,24.7 -29.8,30.9 -11.6,6.3 -28.4,9.3 -50.2,9.3 -19,0 -33.7,-2.6 -44.6,-7.9 -10.9,-5.3 -19.8,-13.8 -26.9,-25.4 -7.1,-11.6 -10.7,-25.2 -10.7,-41 0,-22.3 7.1,-40.4 21.5,-54.2 14.4,-13.8 34,-20.8 59.2,-20.6 20.5,0 36.5,3.1 48.5,9.3 11.6,6 21,15.3 27,26.9 6.1,11.7 9.2,27 9.3,45.9 z M 950.7,770 c -1.1,-10.6 -3.9,-18.1 -8.5,-22.7 -4.6,-4.6 -10.7,-6.8 -18.3,-6.8 -8.2,-0.3 -16.2,3.6 -20.9,10.3 -3.3,4.3 -5.4,10.7 -6.3,19.2 z" />
			<path
   id="path66_2_"
   class="st0"
   d="m 1015.2,711.3 h 51.3 v 23.4 c 4.9,-10.2 10,-17.1 15.3,-20.9 5.3,-3.8 11.7,-5.7 19.4,-5.7 8.1,0 16.9,2.5 26.5,7.5 l -17,39 c -6.4,-2.6 -11.6,-4 -15.3,-4 -6.8,-0.3 -13.1,3.2 -16.7,8.9 -5.7,8.4 -8.5,24 -8.5,46.8 v 48 h -55.1 z" />
			<path
   id="path68_2_"
   class="st0"
   d="m 1134.3,711.3 h 51.2 v 20.9 c 7.4,-8.6 14.8,-14.9 22.3,-18.5 7.5,-3.6 16.6,-5.6 27.2,-5.4 11.4,0 20.5,2 27,6 7,4.5 12.7,10.6 16.3,18 8.6,-9.3 16.4,-15.6 23.6,-19.1 7.1,-3.3 15.8,-5 26.2,-5 15.3,0 27.3,4.6 35.8,13.7 8.6,9.1 12.8,23.3 12.8,42.7 v 89.8 h -54.9 V 773 c 0,-6.4 -1.3,-11.3 -3.8,-14.4 -3.6,-4.9 -8.2,-7.4 -13.7,-7.4 -6,-0.1 -11.7,2.4 -15.6,7 -3.9,4.6 -5.9,12.1 -5.9,22.4 v 73.7 h -54.9 v -78.6 c 0,-6.3 -0.4,-10.6 -1.1,-12.8 -1.1,-3.5 -3.2,-6.6 -6,-8.6 -2.9,-2.2 -6.6,-3.3 -10.2,-3.3 -6,-0.1 -11.7,2.5 -15.5,7.1 -4,4.7 -6.1,12.5 -6.1,23.4 v 72.9 h -54.9 z" />
			<path
   id="path70_2_"
   class="st0"
   d="m 1442.5,757.6 -52.3,-5.6 c 2,-9.1 4.7,-16.3 8.5,-21.6 4.3,-5.7 9.8,-10.3 16,-13.7 5,-2.8 12,-4.9 20.8,-6.4 9.5,-1.5 19,-2.4 28.6,-2.2 16.4,0 29.6,1 39.6,2.8 9.2,1.5 17.8,5.4 25,11.6 4.6,4 8.4,9.8 11,17.1 2.5,6.8 3.9,13.9 4,21.2 v 63.1 c -0.1,5.3 0.3,10.6 1.3,15.8 1.3,5 3.2,9.9 5.6,14.6 h -51.4 c -1.5,-2.6 -2.9,-5.4 -4,-8.4 -0.8,-2.9 -1.5,-6 -1.8,-9.1 -6.1,6.3 -13.4,11.3 -21.3,14.8 -9.8,3.9 -20.9,5.9 -33.7,5.9 -17,0 -30,-3.9 -38.8,-11.8 -8.5,-7.2 -13.4,-18 -13.2,-29.1 0,-10.9 3.2,-19.8 9.6,-26.8 6.4,-7 18.1,-12.3 35.3,-15.6 20.5,-4.2 33.9,-7 40,-8.6 6.6,-1.8 13,-4 19.4,-6.6 0,-6.7 -1.4,-11.4 -4.2,-14.1 -2.8,-2.6 -7.7,-4 -14.6,-4.2 -8.9,0 -15.8,1.4 -20.2,4.3 -4.2,2.1 -7,6.3 -9.2,12.6 z m 47.5,28.7 c -7.5,2.6 -15.3,5 -23.6,7.1 -11.2,2.9 -18.3,5.9 -21.2,8.8 -5.7,5.3 -6.1,14.1 -0.8,19.8 0.3,0.3 0.6,0.6 0.8,0.8 3.1,2.8 7.4,4 13.2,4 6,0 11.8,-1.5 17,-4.5 4.7,-2.5 8.6,-6.3 11.2,-10.9 2.2,-4.3 3.3,-9.8 3.3,-16.6 v -8.5 z" />
			<path
   id="path72_2_"
   class="st0"
   d="m 1560.1,711.3 h 51.3 v 23.4 c 4.9,-10.2 10,-17.1 15.3,-20.9 5.3,-3.8 11.7,-5.7 19.4,-5.7 8.1,0 16.9,2.5 26.5,7.5 l -17,39 c -6.4,-2.6 -11.6,-4 -15.3,-4 -6.8,-0.3 -13.1,3.2 -16.7,8.9 -5.7,8.4 -8.5,24 -8.5,46.8 v 48 H 1560 Z" />
			<path
   id="path74_2_"
   class="st0"
   d="m 1674.2,656.9 h 56 v 101.8 l 40.8,-47.4 h 67.3 l -51.3,50 54.2,92.8 h -61.6 l -29,-57.3 -20.6,20.2 v 37.1 h -56 z" />
			<g
   id="g82_2_"
   transform="matrix(1.0017166,0,0,1.0017166,-98.77961,-1.0136042)">
				<path
   id="path78_9_"
   class="st0"
   d="m 760,690.2 h -53.5 c 0,0 21.6,-12.4 53.5,-40.8 z" />
				<path
   id="path78_8_"
   class="st0"
   d="m 778.3,632.3 c 35.5,-34.7 79.5,-86.6 119.7,-159.2 0,0 -167,23.8 -255.7,1.8 -4,-1 -6.4,-5.2 -5.4,-9.1 0.3,-1.1 0.8,-2.2 1.7,-3.2 12.7,-14.2 39.3,-29.7 72.9,-43.5 0,0.1 0,0 0,0 2.4,12.8 6,35.6 67.1,21.1 l 91.6,-16.4 c 12.3,-2.2 22.4,-10.9 26.6,-22.6 l 6.4,-25.4 c 6.1,-0.3 12.3,-0.3 18.1,-0.1 l 44.1,-173.6 c 19.1,-56.5 31.5,-72.5 53.4,-102.9 4.5,-6.1 7.5,-10.5 7.5,-10.5 1.8,-3.6 4.2,-6.7 7.1,-9.5 0.7,-0.6 1.1,-1.4 1.5,-2.1 11,-27.9 18,-22.6 18,-22.6 l -9.9,26.2 -24.1,67.9 v 0 c -10,38.3 -22.7,85.6 -26.3,177.6 l -1.1,52.8 c 0,0 91.9,20.4 472.2,-10.7 3.9,-0.3 7.2,-2.9 8.6,-6.6 l 48.4,-130.3 c 1.7,-0.6 -36.4,-17.1 -37.2,-20.8 -1.3,-6.3 36.2,-3.1 36.2,-3.1 l 50.3,15.8 22.7,-2.6 c 0.4,0 1,0.3 1,0.7 v 0.1 9.3 l 26.2,11.3 c -8.1,4 -17.6,5 -26.2,2.5 l 1.5,117.1 c 0,0.7 -0.4,1.3 -1.1,1.5 l -33.2,11.6 c -1,0.4 -2.1,0.6 -3.2,0.7 -4.6,0.6 -19,3.1 -25.5,13.4 -0.4,0.7 -1.1,1.1 -1.8,1.4 -2.1,0.6 -6.8,0.7 -13.8,-6.3 -0.6,-0.6 -1.3,-0.8 -2,-0.8 -25.5,1.8 -454.7,33.9 -522.6,64.7 0,0 -19.5,167.6 -67.1,242.1 H 778.3 Z" />
			</g>
		</g>
		<g
   class="st1"
   id="g52">
			
			
			
			
			
			
			
			
			
			
			
			
			
			
			
			
		</g>
	</g>
	<path
   id="path78_7_"
   class="st0"
   d="m 620,417.4 0.1,0.6 c 2.4,13 7.4,30.7 63.3,17.7 l 87.5,-17 c 11.9,-2.1 18.8,-7.7 22.8,-18.8 l 6.1,-24 c -61.5,6.6 -117,16.3 -179.8,41.5 z" />
</g>
<text
   xml:space="preserve"
   id="text6313"
   style="font-style:normal;font-variant:normal;font-weight:normal;font-stretch:normal;font-size:16.25px;line-height:125%;font-family:'Arial Black';-inkscape-font-specification:'Arial Black, ';letter-spacing:5px;word-spacing:0px;white-space:pre;shape-inside:url(#rect6315);fill:none;stroke:#000000;stroke-width:1px;stroke-linecap:butt;stroke-linejoin:miter;stroke-opacity:1"
   transform="translate(-78.586603,-53.177501)" /><text
   xml:space="preserve"
   style="font-size:16.25px;line-height:125%;font-family:Sans;letter-spacing:5px;word-spacing:0px;fill:none;stroke:#000000;stroke-width:1px;stroke-linecap:butt;stroke-linejoin:miter;stroke-opacity:1"
   x="205.6333"
   y="924.40332"
   id="text10567"><tspan
     sodipodi:role="line"
     id="tspan10565"
     x="205.6333"
     y="924.40332" /></text><text
   xml:space="preserve"
   id="text1588"
   style="font-size:16.25px;line-height:125%;font-family:Sans;letter-spacing:5px;word-spacing:0px;white-space:pre;shape-inside:url(#rect1590);fill:none;stroke:#000000;stroke-width:1px;stroke-linecap:butt;stroke-linejoin:miter;stroke-opacity:1"
   transform="translate(0.16339612)" /><g
   aria-label="www.segelfliegen.com"
   transform="matrix(1.3376504,0,0,1.3376504,28.318533,-243.96535)"
   id="text6786"
   style="font-size:96px;line-height:125%;font-family:Sans;letter-spacing:-2px;word-spacing:0px;white-space:pre;shape-inside:url(#rect6788);fill:none;stroke:#000000;stroke-width:1px"><path
     d="m 61.441406,838.38903 h 18.46875 l 8.015625,31.35938 10.125,-31.35938 h 17.203129 l 10.5,31.35938 8.01562,-31.35938 h 18.32813 l -18.32813,49.78125 h -16.96875 l -10.07812,-29.95312 -9.750004,29.95312 h -17.0625 z"
     style="font-family:'Arial Black';-inkscape-font-specification:'Arial Black, ';fill:#000000"
     id="path14586" /><path
     d="m 150.05078,838.38903 h 18.46875 l 8.01563,31.35938 10.125,-31.35938 h 17.20312 l 10.5,31.35938 8.01563,-31.35938 h 18.32812 l -18.32812,49.78125 h -16.96875 l -10.07813,-29.95312 -9.75,29.95312 h -17.0625 z"
     style="font-family:'Arial Black';-inkscape-font-specification:'Arial Black, ';fill:#000000"
     id="path14588" /><path
     d="m 238.66016,838.38903 h 18.46875 l 8.01562,31.35938 10.125,-31.35938 h 17.20313 l 10.5,31.35938 8.01562,-31.35938 h 18.32813 l -18.32813,49.78125 h -16.96875 l -10.07812,-29.95312 -9.75,29.95312 h -17.0625 z"
     style="font-family:'Arial Black';-inkscape-font-specification:'Arial Black, ';fill:#000000"
     id="path14590" /><path
     d="m 324.78516,869.04528 h 20.39062 v 19.125 h -20.39062 z"
     style="font-family:'Arial Black';-inkscape-font-specification:'Arial Black, ';fill:#000000"
     id="path14592" /><path
     d="m 351.33203,874.38903 18.9375,-1.78125 q 1.17188,3.375 3.28125,4.82813 2.10938,1.45312 5.625,1.45312 3.84375,0 5.95313,-1.64062 1.64062,-1.21875 1.64062,-3.04688 0,-2.0625 -2.15625,-3.1875 -1.54687,-0.79687 -8.20312,-1.96875 -9.9375,-1.73437 -13.82813,-3.1875 -3.84375,-1.5 -6.51562,-5.01562 -2.625,-3.51563 -2.625,-8.01563 0,-4.92187 2.85937,-8.48437 2.85938,-3.5625 7.875,-5.29688 5.01563,-1.78125 13.45313,-1.78125 8.90625,0 13.125,1.35938 4.26562,1.35937 7.07812,4.21875 2.85938,2.85937 4.73438,7.73437 l -18.09375,1.78125 q -0.70313,-2.39062 -2.34375,-3.51562 -2.25,-1.5 -5.4375,-1.5 -3.23438,0 -4.73438,1.17187 -1.45312,1.125 -1.45312,2.76563 0,1.82812 1.875,2.76562 1.875,0.9375 8.15625,1.6875 9.51562,1.07813 14.15625,3 4.64062,1.92188 7.07812,5.48438 2.48438,3.5625 2.48438,7.82812 0,4.3125 -2.625,8.39063 -2.57813,4.07812 -8.20313,6.51562 -5.57812,2.39063 -15.23437,2.39063 -13.64063,0 -19.45313,-3.89063 -5.76562,-3.89062 -7.40625,-11.0625 z"
     style="font-family:'Arial Black';-inkscape-font-specification:'Arial Black, ';fill:#000000"
     id="path14594" /><path
     d="m 466.61328,868.01403 h -38.25 q 0.51563,4.59375 2.48438,6.84375 2.76562,3.23438 7.21875,3.23438 2.8125,0 5.34375,-1.40625 1.54687,-0.89063 3.32812,-3.14063 l 18.79688,1.73438 q -4.3125,7.5 -10.40625,10.78125 -6.09375,3.23437 -17.48438,3.23437 -9.89062,0 -15.5625,-2.76562 -5.67187,-2.8125 -9.42187,-8.85938 -3.70313,-6.09375 -3.70313,-14.29687 0,-11.67188 7.45313,-18.89063 7.5,-7.21875 20.67187,-7.21875 10.6875,0 16.875,3.23438 6.1875,3.23437 9.42188,9.375 3.23437,6.14062 3.23437,15.98437 z m -19.40625,-9.14062 q -0.5625,-5.53125 -3,-7.92188 -2.39062,-2.39062 -6.32812,-2.39062 -4.54688,0 -7.26563,3.60937 -1.73437,2.25 -2.20312,6.70313 z"
     style="font-family:'Arial Black';-inkscape-font-specification:'Arial Black, ';fill:#000000"
     id="path14596" /><path
     d="m 510.41016,838.38903 h 17.85937 v 47.01563 l 0.0469,2.20312 q 0,4.6875 -2.01563,8.90625 -1.96875,4.26563 -5.29687,6.89063 -3.28125,2.625 -8.39063,3.79687 -5.0625,1.17188 -11.625,1.17188 -15,0 -20.625,-4.5 -5.57812,-4.5 -5.57812,-12.04688 0,-0.9375 0.0937,-2.53125 l 18.51562,2.10938 q 0.70313,2.57812 2.15625,3.5625 2.10938,1.45312 5.29688,1.45312 4.125,0 6.14062,-2.20312 2.0625,-2.20313 2.0625,-7.6875 v -7.54688 q -2.8125,3.32813 -5.625,4.82813 -4.40625,2.34375 -9.51562,2.34375 -9.98438,0 -16.125,-8.71875 -4.35938,-6.1875 -4.35938,-16.35938 0,-11.625 5.625,-17.71875 5.625,-6.09375 14.71875,-6.09375 5.8125,0 9.5625,1.96875 3.79688,1.96875 7.07813,6.51563 z m -17.95313,24.14063 q 0,5.39062 2.29688,8.01562 2.29687,2.57813 6.04687,2.57813 3.5625,0 5.95313,-2.67188 2.4375,-2.71875 2.4375,-8.15625 0,-5.4375 -2.53125,-8.29687 -2.53125,-2.90625 -6.1875,-2.90625 -3.65625,0 -5.85938,2.67187 -2.15625,2.625 -2.15625,8.76563 z"
     style="font-family:'Arial Black';-inkscape-font-specification:'Arial Black, ';fill:#000000"
     id="path14598" /><path
     d="m 593.06641,868.01403 h -38.25 q 0.51562,4.59375 2.48437,6.84375 2.76563,3.23438 7.21875,3.23438 2.8125,0 5.34375,-1.40625 1.54688,-0.89063 3.32813,-3.14063 l 18.79687,1.73438 q -4.3125,7.5 -10.40625,10.78125 -6.09375,3.23437 -17.48437,3.23437 -9.89063,0 -15.5625,-2.76562 -5.67188,-2.8125 -9.42188,-8.85938 -3.70312,-6.09375 -3.70312,-14.29687 0,-11.67188 7.45312,-18.89063 7.5,-7.21875 20.67188,-7.21875 10.6875,0 16.875,3.23438 6.1875,3.23437 9.42187,9.375 3.23438,6.14062 3.23438,15.98437 z m -19.40625,-9.14062 q -0.5625,-5.53125 -3,-7.92188 -2.39063,-2.39062 -6.32813,-2.39062 -4.54687,0 -7.26562,3.60937 -1.73438,2.25 -2.20313,6.70313 z"
     style="font-family:'Arial Black';-inkscape-font-specification:'Arial Black, ';fill:#000000"
     id="path14600" /><path
     d="m 600.48828,819.45153 h 19.125 v 68.71875 h -19.125 z"
     style="font-family:'Arial Black';-inkscape-font-specification:'Arial Black, ';fill:#000000"
     id="path14602" /><path
     d="m 651.03516,838.38903 h 9.09375 v 13.96875 h -9.09375 v 35.8125 h -19.125 v -35.8125 h -7.125 v -13.96875 h 7.125 v -2.25 q 0,-3.04687 0.65625,-6.70312 0.65625,-3.65625 2.4375,-5.95313 1.82812,-2.34375 5.0625,-3.75 3.28125,-1.45312 9.5625,-1.45312 5.01562,0 14.57812,1.17187 l -2.10937,11.53125 q -3.42188,-0.5625 -5.53125,-0.5625 -2.57813,0 -3.70313,0.89063 -1.125,0.84375 -1.59375,2.71875 -0.23437,1.03125 -0.23437,4.35937 z"
     style="font-family:'Arial Black';-inkscape-font-specification:'Arial Black, ';fill:#000000"
     id="path14604" /><path
     d="m 665.81641,819.45153 h 19.125 v 68.71875 h -19.125 z"
     style="font-family:'Arial Black';-inkscape-font-specification:'Arial Black, ';fill:#000000"
     id="path14606" /><path
     d="m 695.83203,819.45153 h 19.07813 v 12.98438 h -19.07813 z m 0,18.9375 h 19.07813 v 49.78125 h -19.07813 z"
     style="font-family:'Arial Black';-inkscape-font-specification:'Arial Black, ';fill:#000000"
     id="path14608" /><path
     d="m 780.36328,868.01403 h -38.25 q 0.51563,4.59375 2.48438,6.84375 2.76562,3.23438 7.21875,3.23438 2.8125,0 5.34375,-1.40625 1.54687,-0.89063 3.32812,-3.14063 l 18.79688,1.73438 q -4.3125,7.5 -10.40625,10.78125 -6.09375,3.23437 -17.48438,3.23437 -9.89062,0 -15.5625,-2.76562 -5.67187,-2.8125 -9.42187,-8.85938 -3.70313,-6.09375 -3.70313,-14.29687 0,-11.67188 7.45313,-18.89063 7.5,-7.21875 20.67187,-7.21875 10.6875,0 16.875,3.23438 6.1875,3.23437 9.42188,9.375 3.23437,6.14062 3.23437,15.98437 z m -19.40625,-9.14062 q -0.5625,-5.53125 -3,-7.92188 -2.39062,-2.39062 -6.32812,-2.39062 -4.54688,0 -7.26563,3.60937 -1.73437,2.25 -2.20312,6.70313 z"
     style="font-family:'Arial Black';-inkscape-font-specification:'Arial Black, ';fill:#000000"
     id="path14610" /><path
     d="m 824.16016,838.38903 h 17.85937 v 47.01563 l 0.0469,2.20312 q 0,4.6875 -2.01563,8.90625 -1.96875,4.26563 -5.29687,6.89063 -3.28125,2.625 -8.39063,3.79687 -5.0625,1.17188 -11.625,1.17188 -15,0 -20.625,-4.5 -5.57812,-4.5 -5.57812,-12.04688 0,-0.9375 0.0937,-2.53125 l 18.51562,2.10938 q 0.70313,2.57812 2.15625,3.5625 2.10938,1.45312 5.29688,1.45312 4.125,0 6.14062,-2.20312 2.0625,-2.20313 2.0625,-7.6875 v -7.54688 q -2.8125,3.32813 -5.625,4.82813 -4.40625,2.34375 -9.51562,2.34375 -9.98438,0 -16.125,-8.71875 -4.35938,-6.1875 -4.35938,-16.35938 0,-11.625 5.625,-17.71875 5.625,-6.09375 14.71875,-6.09375 5.8125,0 9.5625,1.96875 3.79688,1.96875 7.07813,6.51563 z m -17.95313,24.14063 q 0,5.39062 2.29688,8.01562 2.29687,2.57813 6.04687,2.57813 3.5625,0 5.95313,-2.67188 2.4375,-2.71875 2.4375,-8.15625 0,-5.4375 -2.53125,-8.29687 -2.53125,-2.90625 -6.1875,-2.90625 -3.65625,0 -5.85938,2.67187 -2.15625,2.625 -2.15625,8.76563 z"
     style="font-family:'Arial Black';-inkscape-font-specification:'Arial Black, ';fill:#000000"
     id="path14612" /><path
     d="m 906.81641,868.01403 h -38.25 q 0.51562,4.59375 2.48437,6.84375 2.76563,3.23438 7.21875,3.23438 2.8125,0 5.34375,-1.40625 1.54688,-0.89063 3.32813,-3.14063 l 18.79687,1.73438 q -4.3125,7.5 -10.40625,10.78125 -6.09375,3.23437 -17.48437,3.23437 -9.89063,0 -15.5625,-2.76562 -5.67188,-2.8125 -9.42188,-8.85938 -3.70312,-6.09375 -3.70312,-14.29687 0,-11.67188 7.45312,-18.89063 7.5,-7.21875 20.67188,-7.21875 10.6875,0 16.875,3.23438 6.1875,3.23437 9.42187,9.375 3.23438,6.14062 3.23438,15.98437 z m -19.40625,-9.14062 q -0.5625,-5.53125 -3,-7.92188 -2.39063,-2.39062 -6.32813,-2.39062 -4.54687,0 -7.26562,3.60937 -1.73438,2.25 -2.20313,6.70313 z"
     style="font-family:'Arial Black';-inkscape-font-specification:'Arial Black, ';fill:#000000"
     id="path14614" /><path
     d="m 913.58203,838.38903 h 17.76563 v 8.10938 q 3.98437,-4.96875 8.0625,-7.07813 4.07812,-2.15625 9.9375,-2.15625 7.92187,0 12.375,4.73438 4.5,4.6875 4.5,14.53125 v 31.64062 h -19.17188 v -27.375 q 0,-4.6875 -1.73437,-6.60937 -1.73438,-1.96875 -4.875,-1.96875 -3.46875,0 -5.625,2.625 -2.15625,2.625 -2.15625,9.42187 v 23.90625 h -19.07813 z"
     style="font-family:'Arial Black';-inkscape-font-specification:'Arial Black, ';fill:#000000"
     id="path14616" /><path
     d="m 975.66016,869.04528 h 20.39062 v 19.125 h -20.39062 z"
     style="font-family:'Arial Black';-inkscape-font-specification:'Arial Black, ';fill:#000000"
     id="path14618" /><path
     d="m 1042.707,868.71716 18.1407,2.0625 q -1.5,5.67187 -4.9219,9.84375 -3.4219,4.125 -8.7656,6.42187 -5.2969,2.29688 -13.5,2.29688 -7.9219,0 -13.2188,-1.45313 -5.25,-1.5 -9.0469,-4.78125 -3.7968,-3.32812 -5.9531,-7.78125 -2.1562,-4.45312 -2.1562,-11.8125 0,-7.6875 2.625,-12.79687 1.9218,-3.75 5.25,-6.70313 3.3281,-3 6.8437,-4.45312 5.5781,-2.29688 14.2969,-2.29688 12.1875,0 18.5625,4.35938 6.4219,4.35937 9,12.75 l -17.9531,2.39062 q -0.8438,-3.1875 -3.0938,-4.78125 -2.2031,-1.64062 -5.9531,-1.64062 -4.7344,0 -7.6875,3.42187 -2.9063,3.375 -2.9063,10.26563 0,6.14062 2.9063,9.32812 2.9062,3.1875 7.4062,3.1875 3.75,0 6.2813,-1.92187 2.5781,-1.92188 3.8437,-5.90625 z"
     style="font-family:'Arial Black';-inkscape-font-specification:'Arial Black, ';fill:#000000"
     id="path14620" /><path
     d="m 1065.2695,863.42028 q 0,-11.39062 7.6875,-18.75 7.6875,-7.40625 20.7657,-7.40625 14.9531,0 22.5937,8.67188 6.1406,6.98437 6.1406,17.20312 0,11.48438 -7.6406,18.84375 -7.5937,7.3125 -21.0469,7.3125 -12,0 -19.4062,-6.09375 -9.0938,-7.54687 -9.0938,-19.78125 z m 19.125,-0.0469 q 0,6.65625 2.6719,9.84375 2.7188,3.1875 6.7969,3.1875 4.125,0 6.75,-3.14063 2.6719,-3.14062 2.6719,-10.07812 0,-6.46875 -2.6719,-9.60938 -2.6719,-3.1875 -6.6094,-3.1875 -4.1719,0 -6.8906,3.23438 -2.7188,3.1875 -2.7188,9.75 z"
     style="font-family:'Arial Black';-inkscape-font-specification:'Arial Black, ';fill:#000000"
     id="path14622" /><path
     d="m 1129.7852,838.38903 h 17.8125 v 7.26563 q 3.8437,-4.54688 7.7343,-6.46875 3.9375,-1.92188 9.4688,-1.92188 5.9531,0 9.4219,2.10938 3.4687,2.10937 5.6718,6.28125 4.5,-4.875 8.2032,-6.60938 3.7031,-1.78125 9.1406,-1.78125 8.0156,0 12.5156,4.78125 4.5,4.73438 4.5,14.85938 v 31.26562 h -19.125 v -28.35937 q 0,-3.375 -1.3125,-5.01563 -1.9219,-2.57812 -4.7812,-2.57812 -3.375,0 -5.4375,2.4375 -2.0625,2.4375 -2.0625,7.82812 v 25.6875 h -19.125 v -27.42187 q 0,-3.28125 -0.375,-4.45313 -0.6094,-1.875 -2.1094,-3 -1.5,-1.17187 -3.5156,-1.17187 -3.2813,0 -5.3907,2.48437 -2.1093,2.48438 -2.1093,8.15625 v 25.40625 h -19.125 z"
     style="font-family:'Arial Black';-inkscape-font-specification:'Arial Black, ';fill:#000000"
     id="path14624" /></g></svg>
