<?xml version="1.0" encoding="UTF-8" standalone="no"?>
<!-- Generator: Adobe Illustrator 23.1.0, SVG Export Plug-In . SVG Version: 6.00 Build 0)  -->

<svg
   version="1.1"
   id="Logo"
   x="0px"
   y="0px"
   viewBox="0 0 5167.5252 480.53631"
   xml:space="preserve"
   sodipodi:docname="logo-wide-full-white.svg"
   inkscape:version="1.1.2 (0a00cf5339, 2022-02-04, custom)"
   width="5167.5254"
   height="480.53632"
   xmlns:inkscape="http://www.inkscape.org/namespaces/inkscape"
   xmlns:sodipodi="http://sodipodi.sourceforge.net/DTD/sodipodi-0.dtd"
   xmlns="http://www.w3.org/2000/svg"
   xmlns:svg="http://www.w3.org/2000/svg"><defs
   id="defs46" />
<style
   type="text/css"
   id="style2">
	.st0{fill:#005E8A;}
	.st1{fill:#AAAAAA;}
</style>
<sodipodi:namedview
   bordercolor="#666666"
   borderopacity="1"
   gridtolerance="10"
   guidetolerance="10"
   id="namedview85"
   inkscape:current-layer="Logo"
   inkscape:cx="-39.619661"
   inkscape:cy="442.83748"
   inkscape:pageopacity="0"
   inkscape:pageshadow="2"
   inkscape:window-height="997"
   inkscape:window-maximized="1"
   inkscape:window-width="1920"
   inkscape:window-x="1920"
   inkscape:window-y="0"
   inkscape:zoom="0.99697976"
   objecttolerance="10"
   pagecolor="#ffffff"
   showgrid="false"
   inkscape:pagecheckerboard="true"
   fit-margin-top="0"
   fit-margin-left="0"
   fit-margin-right="0"
   fit-margin-bottom="0">
	</sodipodi:namedview>

























<path
   id="path54"
   class="st0"
   d="M 1097.6752,472.81121 V 17.351068 h 234.6504 c 43.4538,0 76.6074,3.86256 99.7828,11.265798 22.5315,7.081359 42.1662,21.887837 55.6852,41.522515 14.1627,20.278437 21.244,44.741319 21.244,73.710509 0,25.42852 -5.4719,46.99447 -16.0939,65.34162 -10.9439,18.34716 -26.0723,33.7974 -44.4194,44.41945 -11.9096,7.40323 -28.6474,13.19707 -49.5696,18.02527 16.7378,5.47196 28.9692,11.2658 36.6943,16.73776 5.1502,3.86256 12.5534,11.58768 22.5317,23.81912 7.4033,8.69076 14.1627,18.34717 19.6346,28.32544 l 68.2386,131.97078 h -159.3305 l -75.32,-139.05214 c -9.6564,-18.02529 -18.0252,-29.61296 -25.4285,-35.08493 -9.9782,-7.08135 -22.2097,-10.62204 -34.4412,-10.62204 h -12.5533 v 184.75911 z m 141.6271,-271.02293 h 59.2259 c 6.4377,0 18.9909,-1.93128 37.3381,-6.11572 9.0126,-1.6094 17.3815,-6.75948 22.8535,-14.16273 5.7938,-7.40322 9.0126,-16.73774 9.0126,-26.39414 0,-14.80649 -4.5063,-26.07228 -13.8409,-33.7974 -9.3344,-7.72512 -26.716,-11.90956 -52.4663,-11.90956 h -62.1229 z"
   style="fill:#ffffff;stroke-width:3.21879" />
<path
   id="path56"
   class="st0"
   d="m 1543.4788,17.351068 h 126.4989 V 185.05052 c 17.0595,-17.70339 34.1192,-30.57859 51.1789,-38.30371 18.9909,-8.047 39.5912,-11.90956 60.1915,-11.2658 34.4413,0 61.4791,10.30016 81.1137,31.22236 19.6347,20.92219 29.613,52.7883 29.613,96.2421 v 209.86574 h -127.1425 v -181.5403 c 0,-20.60032 -3.8626,-35.4068 -11.5877,-44.09756 -7.7251,-8.69076 -18.3472,-12.8752 -32.188,-12.8752 -14.4847,-0.32187 -28.3255,6.11572 -37.3381,17.38152 -9.6564,11.58769 -14.1627,32.50987 -14.1627,62.44472 V 472.48933 H 1543.157 V 17.351068 Z"
   style="fill:#ffffff;stroke-width:3.21879" />
<path
   id="path58"
   class="st0"
   d="m 2295.3905,339.23103 h -253.6414 c 2.2531,20.27844 7.7251,35.4068 16.4158,45.38507 11.9095,14.16273 29.2911,21.88784 47.96,21.24408 12.5535,0 24.463,-3.2188 35.4069,-9.33453 8.6908,-5.47194 16.094,-12.55331 22.2097,-20.92218 l 124.5675,11.58767 c -18.9908,33.15364 -42.1662,56.97275 -68.8822,71.45735 -27.0379,14.4846 -65.6636,21.56596 -115.8768,21.56596 -43.7757,0 -77.895,-6.11573 -103.0016,-18.34716 -25.1067,-12.23143 -45.7069,-31.86611 -62.4448,-58.58216 -16.4158,-26.71603 -24.7847,-58.26026 -24.7847,-94.63271 0,-51.50079 16.4159,-93.34518 49.5696,-125.2113 33.1536,-31.86612 78.5387,-47.96011 136.7989,-47.63823 47.3163,0 84.3326,7.08135 112.0143,21.56595 26.7159,13.84084 48.6038,35.4068 62.4447,62.12283 14.1626,27.03792 21.5658,62.44472 21.5658,105.89851 v 13.84085 z M 2166.6384,278.3957 c -2.575,-24.46287 -9.0126,-41.84438 -19.6347,-52.46642 -10.6219,-10.62204 -24.7848,-15.77213 -42.1662,-15.77213 -18.9909,-0.64375 -37.3381,8.36888 -48.282,23.81913 -7.7252,9.97827 -12.5533,24.78475 -14.4846,44.41942 z"
   style="fill:#ffffff;stroke-width:3.21879" />
<rect
   id="rect60"
   x="2319.2095"
   y="142.88428"
   class="st0"
   width="126.49882"
   height="329.92697"
   style="fill:#ffffff;stroke-width:3.21879" />
<path
   id="path62"
   class="st0"
   d="m 2487.8746,142.88424 h 117.8081 v 53.75396 c 17.7034,-21.88784 35.4068,-37.65996 53.432,-46.99448 18.0253,-9.33452 39.9132,-14.16271 65.6635,-14.16271 35.0853,0 62.4452,10.30016 82.0799,31.22236 19.9564,20.92219 29.6129,53.11018 29.6129,96.56399 v 209.86573 h -127.143 v -181.5403 c 0,-20.60031 -3.8626,-35.4068 -11.5877,-44.09756 -7.7252,-8.69076 -18.3471,-12.87519 -32.188,-12.87519 -14.4845,-0.32189 -28.3253,6.11571 -37.3381,17.38152 -9.6564,11.58767 -14.1626,32.50987 -14.1626,62.4447 v 158.36495 h -126.177 z"
   style="fill:#ffffff;stroke-width:3.21879" />
<path
   id="path64"
   class="st0"
   d="m 3239.4646,339.23103 h -253.6414 c 2.2532,20.27844 7.7252,35.4068 16.4159,45.38507 11.9095,14.16273 29.291,21.88784 47.9602,21.24408 12.5532,0 24.4628,-3.2188 35.4067,-9.33453 8.6908,-5.47194 16.094,-12.55331 21.8879,-20.92218 l 124.5676,11.58767 c -18.9911,33.15364 -42.1664,56.97275 -68.8824,71.45735 -26.7161,14.4846 -65.6635,21.56596 -115.8768,21.56596 -43.7757,0 -77.8949,-6.11573 -103.0016,-18.34716 -25.1067,-12.23143 -45.7069,-31.86611 -62.1227,-58.58216 -16.416,-26.71603 -24.7849,-58.26026 -24.7849,-94.63271 0,-51.50079 16.4159,-93.34518 49.5695,-125.2113 33.1537,-31.86612 78.5387,-47.96011 136.799,-47.63823 47.3164,0 84.3325,7.08135 112.0142,21.56595 26.7161,13.84084 48.604,35.4068 62.4448,62.12283 14.1627,27.03792 21.244,62.44472 21.5659,105.89851 v 13.84085 z M 3111.0345,278.3957 c -2.575,-24.46287 -9.0126,-41.84438 -19.6347,-52.46642 -10.622,-10.62204 -24.7847,-15.77213 -42.1662,-15.77213 -18.9909,-0.64375 -37.3381,8.36888 -48.282,23.81913 -7.7251,9.97827 -12.5533,24.78475 -14.4846,44.41942 z"
   style="fill:#ffffff;stroke-width:3.21879" />
<path
   id="path66"
   class="st0"
   d="m 3260.065,142.88424 h 118.4518 v 54.07584 c 11.2657,-23.49723 23.1753,-39.59124 35.4069,-48.282 12.2313,-8.69076 27.0378,-13.19707 44.7411,-13.19707 18.6692,0 38.9476,5.79383 61.1573,17.38152 l -39.2694,90.12638 c -14.8064,-6.11572 -26.716,-9.33451 -35.4068,-9.33451 -15.7721,-0.64376 -30.2567,7.40323 -38.6256,20.60031 -13.1971,19.3128 -19.6346,55.36336 -19.6346,108.15168 v 110.7267 h -127.1426 z"
   style="fill:#ffffff;stroke-width:3.21879" />
<path
   id="path68"
   class="st0"
   d="m 3534.9505,142.88424 h 118.1298 v 48.28199 c 17.0597,-19.95655 34.1194,-34.44114 51.5008,-42.81002 17.3815,-8.36889 38.3038,-12.8752 62.7667,-12.55332 26.3942,0 47.3163,4.50631 62.4447,13.84083 16.094,10.30016 29.2911,24.46289 37.66,41.52251 19.9565,-21.56595 37.9817,-36.05054 54.3976,-44.09754 16.4159,-7.72513 36.3725,-11.58768 60.5135,-11.58768 35.4068,0 63.0885,10.62204 82.7232,31.54423 19.9565,20.9222 29.613,53.75395 29.613,98.49527 v 207.2907 H 3967.879 v -187.9779 c 0,-14.80648 -2.8969,-26.07228 -8.6908,-33.15364 -8.3688,-11.2658 -18.9909,-17.05963 -31.5442,-17.05963 -13.8409,-0.32189 -27.0379,5.47194 -36.0505,16.09399 -9.0128,10.62205 -13.519,28.00356 -13.519,51.82267 v 170.27451 h -126.8207 v -181.5403 c 0,-14.4846 -0.9656,-24.46288 -2.5751,-29.61295 -2.575,-8.047 -7.4032,-15.12837 -13.8407,-19.95656 -6.7596,-5.15008 -15.1285,-7.72512 -23.4973,-7.72512 -13.8409,-0.32188 -27.038,5.79383 -35.7287,16.41587 -9.3346,10.94393 -14.1627,28.96919 -14.1627,54.07583 v 168.34323 h -126.8207 z"
   style="fill:#ffffff;stroke-width:3.21879" />
<path
   id="path70"
   class="st0"
   d="m 4246.627,249.74838 -120.705,-12.87519 c 4.5064,-20.9222 10.944,-37.65995 19.6347,-49.89139 9.9782,-13.19708 22.5317,-23.81911 37.0162,-31.54423 11.5877,-6.4376 27.6817,-11.26579 47.9601,-14.80648 21.8878,-3.54068 43.7757,-5.47196 65.9854,-5.15008 37.9818,0 68.2386,2.25316 91.4139,6.43759 21.2441,3.54069 41.2007,12.55333 57.6165,26.71604 10.6221,9.33452 19.3128,22.53159 25.4286,39.59123 5.7938,15.77213 9.0125,32.188 9.3345,48.92576 v 145.81163 c -0.322,12.23144 0.6438,24.46288 2.8969,36.37244 2.8969,11.58767 7.4033,22.85347 12.8752,33.79739 h -118.7737 c -3.5407,-6.11571 -6.7595,-12.55332 -9.3345,-19.3128 -1.9313,-6.75947 -3.5407,-13.84083 -4.1845,-20.9222 -14.1626,14.4846 -30.9005,26.07228 -49.2476,34.11929 -22.5317,9.01263 -48.282,13.51895 -77.895,13.51895 -39.2693,0 -69.2042,-9.01264 -89.4826,-27.3598 -19.6346,-16.73776 -30.9005,-41.52251 -30.5786,-67.27291 0,-25.10663 7.4032,-45.70694 22.2098,-61.80096 14.8064,-16.094 41.8443,-28.32544 81.4356,-36.05056 47.3163,-9.6564 78.2168,-16.09398 92.3795,-19.95655 15.1283,-4.18444 29.9348,-9.33452 44.7413,-15.12835 0,-15.45025 -3.2188,-26.39417 -9.6563,-32.50989 -6.4377,-6.11571 -17.7034,-9.33452 -33.7975,-9.6564 -20.6003,0 -36.3724,3.21881 -46.6726,9.97828 -9.0126,4.8282 -15.4502,14.4846 -20.6003,28.96919 z m 109.7611,66.30729 c -17.3816,6.11571 -35.4069,11.58767 -54.3978,16.41589 -25.7503,6.75947 -42.1662,13.51895 -48.9256,20.27843 -13.1972,12.23144 -14.1627,32.50987 -1.9313,45.70695 0.6437,0.64376 1.2874,1.28753 1.9313,1.93128 7.0813,6.43759 17.0595,9.33452 30.5785,9.33452 13.8409,0 27.3598,-3.54069 39.2693,-10.30016 10.944,-5.79384 19.9566,-14.4846 25.7504,-25.10664 5.1502,-9.97827 7.7252,-22.53159 7.7252,-38.30372 z"
   style="fill:#ffffff;stroke-width:3.21879" />
<path
   id="path72"
   class="st0"
   d="m 4518.2937,142.88424 h 118.4518 v 54.07584 c 11.2658,-23.49723 23.1753,-39.59124 35.4069,-48.282 12.2314,-8.69076 27.0378,-13.19707 44.7412,-13.19707 18.6691,0 38.9476,5.79383 61.1572,17.38152 l -39.2694,90.12638 c -14.8064,-6.11572 -26.716,-9.33451 -35.4067,-9.33451 -15.7722,-0.64376 -30.2568,7.40323 -38.6256,20.60031 -13.1971,19.3128 -19.6347,55.36336 -19.6347,108.15168 v 110.7267 h -127.1425 z"
   style="fill:#ffffff;stroke-width:3.21879" />
<path
   id="path74"
   class="st0"
   d="m 4781.5915,17.351068 h 129.3957 V 252.32343 l 94.3109,-109.43919 h 155.468 l -118.4518,115.55491 125.2113,214.37206 h -142.271 l -66.951,-132.29266 -47.6382,46.67259 v 85.62007 h -129.3958 z"
   style="fill:#ffffff;stroke-width:3.21879" />


<path
   id="path78_3_-3"
   inkscape:connector-curvature="0"
   class="st0"
   d="m 2442.9076,94.472728 h -123.8139 c 0,0 49.977,-28.696495 123.8139,-94.472728 z"
   style="fill:#ffffff;stroke-width:3.22434" /><g
   id="g82"
   transform="matrix(1.0017166,0,0,1.0017166,-428.97806,13.137209)"
   style="fill:#ffffff"><path
     id="path78_2_"
     inkscape:connector-curvature="0"
     class="st0"
     d="M 477.42398,457.20001 C 516.37306,437.25857 586.8,353.6 615.7,301.5 c 0,0 -119.8,17.1 -183.4,1.3 -2.9,-0.7 -4.6,-3.7 -3.9,-6.5 0.2,-0.8 0.6,-1.6 1.2,-2.3 9.1,-10.2 28.2,-21.2 52.3,-31.1 v 0.2 c 1.7,9.2 4.3,25.2 48.1,14.8 l 65.7,-11.8 c 8.8,-1.6 16.1,-7.8 19.1,-16.2 l 4.6,-18.2 c 4.4,-0.2 8.8,-0.2 13,-0.1 L 664,107.1 c 13.7,-40.5 22.6,-52 38.3,-73.8 3.2,-4.4 5.4,-7.5 5.4,-7.5 1.3,-2.6 3,-4.8 5.1,-6.8 0.5,-0.4 0.8,-1 1.1,-1.5 7.9,-20 12.9,-16.2 12.9,-16.2 l -7.1,18.8 -17.3,48.7 v 0 c -7.2,27.5 -16.3,61.4 -18.9,127.4 l -0.8,37.9 c 0,0 65.9,14.6 338.7,-7.7 2.8,-0.2 5.2,-2.1 6.2,-4.7 l 34.7,-93.5 c 1.2,-0.4 -26.1,-12.3 -26.7,-14.9 -0.9,-4.5 26,-2.2 26,-2.2 l 36.1,11.3 16.3,-1.9 c 0.3,0 0.7,0.2 0.7,0.5 v 0.1 6.7 l 18.8,8.1 c -5.8,2.9 -12.6,3.6 -18.8,1.8 l 1.1,84 c 0,0.5 -0.3,0.9 -0.8,1.1 l -23.8,8.3 c -0.7,0.3 -1.5,0.4 -2.3,0.5 -3.3,0.4 -13.6,2.2 -18.3,9.6 -0.3,0.5 -0.8,0.8 -1.3,1 -1.5,0.4 -4.9,0.5 -9.9,-4.5 -0.4,-0.4 -0.9,-0.6 -1.4,-0.6 -18.3,1.3 -326.2,24.3 -374.9,46.4 0,0 -14,120.2 -48.1,173.7 H 529.8 Z"
     sodipodi:nodetypes="cccsccccccccccccccccscccccccccsccccccccccsccccc"
     style="fill:#ffffff" /></g><path
   id="path78_4_"
   inkscape:connector-curvature="0"
   class="st1"
   d="m 53.701575,276.66228 c 0,0.1 0,0.2 0,0.2 1.7,9.2 4.3,25.2 48.199975,14.8 l 65.8,-11.8 c 8.8,-1.6 16.1,-7.8 19.1,-16.2 l 4.6,-18.2 c -46.5,5 -92.09999,12.5 -137.699975,31.2 z"
   style="fill:#aaaaaa" /><path
   id="path4"
   class="st0"
   d="m 175.12632,754.786 h 19.9 v 48.6 h 31.1 v 15.8 h -51 z"
   style="fill:#005e8a" /><path
   id="path6"
   class="st0"
   d="m 226.22632,797.886 19,-1.2 c 0.2,2.5 1.1,4.9 2.5,7 2.1,2.6 5,3.9 8.8,3.9 2.4,0.2 4.7,-0.6 6.6,-2 1.4,-1.1 2.3,-2.8 2.3,-4.6 0,-1.7 -0.8,-3.4 -2.2,-4.5 -1.5,-1.3 -4.9,-2.6 -10.2,-3.7 -8.7,-2 -15,-4.6 -18.7,-7.8 -3.7,-3.1 -5.7,-7.7 -5.6,-12.5 0,-3.3 1,-6.6 2.9,-9.4 2.1,-3.1 5.1,-5.6 8.7,-7 3.9,-1.7 9.1,-2.5 15.8,-2.5 8.2,0 14.5,1.5 18.8,4.6 4.3,3.1 6.9,7.9 7.7,14.6 l -18.8,1.1 c -0.5,-2.9 -1.5,-5 -3.1,-6.3 -1.9,-1.4 -4.2,-2.1 -6.6,-2 -1.9,-0.1 -3.7,0.4 -5.2,1.5 -1.1,0.9 -1.8,2.2 -1.8,3.6 0,1.1 0.6,2.1 1.4,2.8 0.9,0.9 3.2,1.6 6.7,2.4 8.7,1.9 14.9,3.8 18.7,5.7 3.4,1.6 6.2,4 8.2,7.1 1.7,2.9 2.6,6.2 2.6,9.5 0,4.1 -1.2,8 -3.4,11.4 -2.3,3.5 -5.7,6.3 -9.6,7.9 -4.1,1.8 -9.3,2.7 -15.5,2.7 -11,0 -18.6,-2.1 -22.8,-6.3 -4.3,-4.3 -6.8,-10 -7.2,-16 z"
   style="fill:#005e8a" /><path
   id="path8"
   class="st0"
   d="m 282.92632,754.786 h 20.8 l 14.5,46.4 14.3,-46.4 h 20.2 l -23.9,64.4 h -21.6 z"
   style="fill:#005e8a" /><path
   id="path10"
   class="st0"
   d="m 378.52632,819.186 v -64.4 h 33.20005 c 6.0999,0 10.7999,0.5 14.0999,1.6 3.2,1 6,3.1 7.9,5.9 5.7,8.3 3.7,19.6 -4.6,25.3 -0.3,0.2 -0.7,0.5 -1,0.7 -2.2,1.2 -4.5,2.1 -7,2.5 1.8,0.5 3.6,1.3 5.2,2.4 1.2,1 2.3,2.1 3.2,3.4 1.1,1.2 2,2.6 2.8,4 l 9.6,18.6 h -22.5 l -10.5999,-19.7 c -1.3,-2.5 -2.5,-4.2 -3.6,-5 -1.4,-1 -3.1,-1.5 -4.9,-1.5 h -1.8 v 26.2 z m 19.99995,-38.3 h 8.4 c 1.8,-0.1 3.5,-0.4 5.3,-0.9 1.3,-0.2 2.4,-1 3.2,-2 1.9,-2.6 1.6,-6.3 -0.7,-8.5 -1.3,-1.1 -3.8,-1.7 -7.4,-1.7 h -8.8 z"
   style="fill:#005e8a" /><path
   id="path12"
   class="st0"
   d="m 489.22627,819.186 h -16.7 v -7.6 c -2,2.7 -4.6,5 -7.5,6.6 -2.9,1.4 -6.1,2.1 -9.3,2 -4.9,0 -8.8,-1.5 -11.6,-4.4 -2.8,-2.9 -4.2,-7.5 -4.2,-13.6 v -29.7 h 18 v 25.7 c 0,2.9 0.5,5 1.6,6.2 1.2,1.3 2.8,1.9 4.6,1.8 2,0 4,-0.9 5.2,-2.5 1.4,-1.6 2,-4.6 2,-8.8 v -22.4 h 17.9 z"
   style="fill:#005e8a" /><path
   id="path14"
   class="st0"
   d="m 494.62627,754.786 h 17.9 v 23.7 c 2.1,-2.2 4.5,-4.1 7.2,-5.4 2.7,-1.1 5.6,-1.7 8.5,-1.6 4.9,0 8.7,1.5 11.5,4.4 2.8,2.9 4.2,7.5 4.2,13.6 v 29.6 h -18 v -25.7 c 0,-2.9 -0.5,-5 -1.6,-6.2 -1.2,-1.3 -2.9,-1.9 -4.6,-1.8 -2,-0.1 -4,0.9 -5.3,2.5 -1.4,1.7 -2,4.6 -2,8.8 v 22.4 h -17.9 z"
   style="fill:#005e8a" /><path
   id="path16"
   class="st0"
   d="m 549.32627,772.486 h 16.8 v 7.7 c 1.6,-3.3 3.3,-5.6 5,-6.8 1.9,-1.3 4.1,-1.9 6.4,-1.9 3,0.1 6,1 8.7,2.5 l -5.5,12.8 c -1.6,-0.7 -3.3,-1.2 -5,-1.3 -2.2,-0.1 -4.3,1 -5.5,2.9 -1.9,2.7 -2.8,7.8 -2.8,15.3 v 15.6 h -18 v -46.8 z"
   style="fill:#005e8a" /><path
   id="path18"
   class="st0"
   d="m 580.22627,788.786 h 26 v 13.8 h -26 z"
   style="fill:#005e8a" /><path
   id="path20"
   class="st0"
   d="m 609.32627,754.786 h 19.9001 v 48.6 h 31.0999 v 15.8 h -51 z"
   style="fill:#005e8a" /><path
   id="path22"
   class="st0"
   d="m 714.52637,800.286 h -35.9 c 0.1,2.3 0.9,4.6 2.2999,6.4 1.7001,2 4.2001,3.1 6.8001,3 1.7999,0 3.5,-0.5 5,-1.3 1.2001,-0.8 2.3,-1.8 3.1,-3 l 17.6,1.6 c -2.2,4.2 -5.6,7.7 -9.8,10.1 -3.8,2 -9.3,3.1 -16.4001,3.1 -6.2,0 -11.1,-0.9 -14.6,-2.6 -3.7,-1.9 -6.7,-4.7 -8.8,-8.3 -2.4,-4 -3.5999,-8.7 -3.5,-13.4 0,-7.3 2.3,-13.2 7,-17.7 4.7,-4.5 11.1,-6.8 19.4001,-6.8 6.7001,0 11.9,1 15.8,3 3.8,1.9 6.9001,5 8.8,8.8 2,3.8 3,8.8 3,15 z m -18.1999,-8.5 c -0.3001,-3.5 -1.3001,-5.9 -2.8001,-7.4 -3.5999,-3.2 -9.1001,-3 -12.3,0.6 -0.1,0.2 -0.3,0.3 -0.4001,0.5 -1.1999,1.9 -2,4 -2.0999,6.3 z"
   style="fill:#005e8a" /><path
   id="path24"
   class="st0"
   d="m 717.22647,772.486 h 16.7 v 7.7 c 2,-2.7 4.5999,-5 7.5999,-6.7 2.9001,-1.4 6.1,-2.1 9.3001,-2 5,0 8.7999,1.5 11.6,4.4 2.7999,2.9 4.1999,7.5 4.1999,13.7 v 29.6 h -18 v -25.7 c 0,-2.9 -0.5,-5 -1.6,-6.2 -1.1999,-1.3 -2.9,-1.9 -4.5999,-1.8 -2,-0.1 -4,0.9 -5.3,2.5 -1.3,1.7 -2,4.6 -2,8.8 v 22.4 h -17.9 z"
   style="fill:#005e8a" /><path
   id="path26"
   class="st0"
   d="m 771.82647,772.486 h 16.6999 v 7.7 c 2,-2.7 4.6,-5 7.6,-6.7 2.9,-1.4 6.1,-2.1 9.3001,-2 5,0 8.7999,1.5 11.5999,4.4 2.8,2.9 4.2,7.5 4.2,13.7 v 29.6 h -18 v -25.7 c 0,-2.9 -0.5,-5 -1.6,-6.2 -1.1999,-1.3 -2.9,-1.9 -4.6,-1.8 -2,-0.1 -4,0.9 -5.2999,2.5 -1.3,1.7 -2,4.6 -2,8.8 v 22.4 h -17.9 z"
   style="fill:#005e8a" /><path
   id="path28"
   class="st0"
   d="m 878.22647,800.286 h -35.9 c 0.2999,2.9 1.1,5 2.2999,6.4 1.7001,2 4.2001,3.1 6.8001,3 1.7999,0 3.5,-0.5 5,-1.3 1.1999,-0.8 2.2999,-1.8 3.0999,-3 l 17.6,1.6 c -2.2,4.2 -5.6,7.7 -9.8,10.1 -3.8,2 -9.3,3.1 -16.4,3.1 -6.2,0 -11.1,-0.9 -14.6,-2.6 -3.7,-1.9 -6.7,-4.7 -8.8,-8.3 -2.4,-4 -3.5999,-8.7 -3.5,-13.4 0,-7.3 2.3,-13.2 7,-17.7 4.7,-4.5 11.1,-6.8 19.4001,-6.8 6.6999,0 11.9,1 15.7999,3 3.8,1.9 6.9,5 8.8,8.8 2,3.8 3,8.8 3,15 z m -18.2001,-8.5 c -0.4,-3.5 -1.2999,-5.9 -2.7999,-7.4 -3.6,-3.2 -9.1,-2.9 -12.4,0.7 -0.1,0.2 -0.3001,0.3 -0.4,0.5 -1.2001,1.9 -2,4 -2.1,6.3 z"
   style="fill:#005e8a" /><path
   id="path30"
   class="st0"
   d="m 907.42647,754.786 h 20 v 64.4 h -20 z"
   style="fill:#005e8a" /><path
   id="path32"
   class="st0"
   d="m 931.82647,806.286 17.7999,-1.7 c 0.5,1.8 1.6,3.4 3.1,4.5 1.6,1 3.4,1.5 5.3,1.4 2,0.1 3.9001,-0.4 5.6,-1.5 1,-0.6 1.5,-1.7 1.5,-2.9 0,-1.3 -0.8,-2.5 -2,-3 -1,-0.5 -3.5,-1.1 -7.7,-1.8 -4.4,-0.6 -8.7,-1.6 -12.9,-3 -2.4,-0.9 -4.6,-2.6 -6.1,-4.7 -1.6,-2.2 -2.5,-4.8 -2.5,-7.5 -0.1,-2.9 0.9,-5.7 2.7,-8 1.9,-2.3 4.5,-4.1 7.4,-5 4.1,-1.2 8.4001,-1.8 12.6,-1.7 5.6,0 9.7,0.4 12.3,1.3 2.5,0.8 4.8,2.1 6.6,4 2,2.1 3.5,4.6 4.4,7.2 l -17,1.7 c -0.3,-1.3 -1.1,-2.5 -2.2,-3.3 -1.5,-1 -3.3,-1.5 -5.1,-1.4 -1.6,-0.1 -3.1,0.3 -4.4,1.1 -0.9,0.6 -1.4,1.6 -1.4,2.6 0,1.1 0.7,2.2 1.8,2.6 1.2,0.6 3.7,1.1 7.7,1.6 5.9,0.7 10.4,1.6 13.3,2.8 2.7,1 5,2.8 6.7,5.1 1.5,2.1 2.3,4.7 2.3,7.3 0,2.8 -0.9,5.5 -2.4,7.9 -1.9,2.8 -4.6,4.9 -7.7,6.1 -3.5,1.5 -8.3,2.3 -14.3,2.3 -8.5,0 -14.6,-1.2 -18.2,-3.7 -3.8,-2.4 -6.3,-6.1 -7.1999,-10.3 z"
   style="fill:#005e8a" /><path
   id="path34"
   class="st0"
   d="m 1036.3265,800.286 h -35.9 c 0.1,2.3 0.9,4.6 2.2999,6.4 1.7001,2 4.2001,3.1 6.8,3 1.8,0 3.5,-0.5 5,-1.3 1.2,-0.8 2.3,-1.8 3.1,-3 l 17.6,1.6 c -2.7,4.7 -6,8 -9.8,10.1 -3.8,2.1 -9.3,3.1 -16.4,3.1 -6.2,0 -11.00003,-0.9 -14.60003,-2.6 -3.7,-1.9 -6.7,-4.7 -8.8,-8.3 -2.4,-4 -3.6,-8.7 -3.5,-13.4 0,-7.3 2.3,-13.2 7,-17.7 4.7,-4.5 11.10003,-6.8 19.40003,-6.8 6.7,0 11.9001,1 15.8,3 3.8,1.9 6.9,5 8.8,8.8 2,3.8 3,8.8 3,15 z m -18.2001,-8.5 c -0.2999,-3.5 -1.2999,-5.9 -2.7999,-7.4 -3.6,-3.2 -9.1,-3 -12.3001,0.6 -0.1,0.2 -0.2999,0.3 -0.4,0.5 -1.1999,1.9 -2,4 -2.1,6.3 z"
   style="fill:#005e8a" /><path
   id="path36"
   class="st0"
   d="m 1039.2265,772.486 h 16.7999 v 7.7 c 1.6,-3.3 3.3001,-5.6 5,-6.8 1.9001,-1.3 4.1,-1.9 6.3001,-1.9 3,0.1 6,1 8.6999,2.5 l -5.5,12.8 c -1.5999,-0.7 -3.2999,-1.2 -5,-1.3 -2.1999,-0.1 -4.2999,1 -5.5,2.9 -1.7999,2.7 -2.7999,7.8 -2.7999,15.3 v 15.6 h -18 z"
   style="fill:#005e8a" /><path
   id="path38"
   class="st0"
   d="m 1077.1265,754.786 h 18 v 64.4 h -18 z"
   style="fill:#005e8a" /><path
   id="path40"
   class="st0"
   d="m 1098.8265,795.986 c -0.2001,-6.6 2.4,-13 7.1999,-17.6 4.8001,-4.6 11.3001,-6.9 19.5,-6.9 9.3001,0 16.4001,2.7 21.2001,8.1 3.9,4.5 5.9,10.2 5.7999,16.1 0,7.2 -2.4,13.1 -7.1999,17.6 -4.8001,4.6 -11.4,6.9 -19.8001,6.9 -7.5,0 -13.5999,-1.9 -18.1999,-5.7 -5.6,-4.4 -8.7001,-11.3 -8.5,-18.5 z m 17.9,0 c 0,4.2 0.7999,7.2 2.5,9.2 2.9,3.5 8.1,4 11.6,1.1 0.4,-0.3 0.6999,-0.7 1.1,-1.1 1.6999,-2 2.5,-5.1 2.5,-9.5 0,-4.1 -0.8001,-7.1 -2.5,-9 -1.5,-1.9 -3.8001,-3 -6.2001,-3 -2.5,-0.1 -4.9,1.1 -6.5,3 -1.6,2.1 -2.5,5.2 -2.4999,9.3 z"
   style="fill:#005e8a" /><path
   id="path42"
   class="st0"
   d="m 1155.5264,754.786 h 17.9001 v 23.7 c 2.0999,-2.2 4.5,-4.1 7.3,-5.4 2.7,-1.1 5.6,-1.7 8.5,-1.6 4.9,0 8.7,1.5 11.5,4.4 2.7999,3 4.2,7.5 4.2,13.6 v 29.6 h -18 v -25.7 c 0,-2.9 -0.5,-5 -1.6,-6.2 -1.2,-1.3 -2.9,-1.9 -4.6,-1.8 -2,-0.1 -4,0.9 -5.3,2.5 -1.3,1.7 -2,4.6 -2,8.8 v 22.4 h -17.9 z"
   style="fill:#005e8a" /><path
   id="path44"
   class="st0"
   d="m 1210.1265,772.486 h 16.7 v 7.7 c 2,-2.7 4.6,-5 7.6,-6.7 2.9,-1.4 6.0999,-2.1 9.3,-2 4.9,0 8.7999,1.5 11.6,4.4 2.7999,2.9 4.1999,7.5 4.1999,13.7 v 29.6 h -18 v -25.7 c 0,-2.9 -0.5,-5 -1.5999,-6.2 -1.2,-1.3 -2.9001,-1.9 -4.6,-1.8 -2,-0.1 -4,0.9 -5.3,2.5 -1.3,1.7 -2,4.6 -2,8.8 v 22.4 h -17.9 z"
   style="fill:#005e8a" /><path
   id="path46"
   class="st0"
   d="m 1341.0264,800.286 h -35.9 c 0.1,2.3 0.9,4.6 2.3001,6.4 1.6999,2 4.1999,3.1 6.7999,3 1.8,0 3.5,-0.5 5,-1.3 1.2001,-0.8 2.3,-1.8 3.1,-3 l 17.6,1.6 c -2.2,4.2 -5.6,7.7 -9.8,10.1 -3.8,2 -9.3,3.1 -16.4,3.1 -6.2,0 -11.1,-0.9 -14.6,-2.6 -3.7,-1.9 -6.7,-4.7 -8.8,-8.3 -2.4,-4 -3.6,-8.7 -3.5,-13.4 0,-7.3 2.3,-13.2 7,-17.7 4.7,-4.5 11.1,-6.8 19.4,-6.8 6.7001,0 11.9,1 15.8,3 3.8,1.9 6.9001,5 8.8,8.8 2,3.8 3,8.8 3,15 z m -18.1999,-8.5 c -0.3001,-3.5 -1.3001,-5.9 -2.8001,-7.4 -3.5999,-3.2 -9.0999,-3 -12.2999,0.6 -0.1,0.2 -0.3,0.3 -0.4,0.5 -1.2001,1.9 -2,4 -2.1,6.3 z"
   style="fill:#005e8a" /><path
   id="path48"
   class="st0"
   d="m 1343.8265,801.286 h 19.1 v 17.9 h -19.1 z"
   style="fill:#005e8a" /><path
   id="path50"
   class="st0"
   d="m 1363.1265,754.786 h 20.8 l 14.5,46.4 14.3,-46.4 h 20.2 l -23.9001,64.4 h -21.5999 z"
   style="fill:#005e8a" /><path
   id="path52"
   class="st0"
   d="m 1421.3265,801.286 h 19.1 v 17.9 h -19.1 z"
   style="fill:#005e8a" /></svg>
