<?xml version="1.0" encoding="UTF-8" standalone="no"?>
<!-- Generator: Adobe Illustrator 23.1.0, SVG Export Plug-In . SVG Version: 6.00 Build 0)  -->

<svg
   version="1.1"
   id="Logo"
   x="0px"
   y="0px"
   viewBox="0 0 706.46765 456.9712"
   xml:space="preserve"
   sodipodi:docname="logo-wide-rhmk-white.svg"
   inkscape:version="1.1.1 (3bf5ae0d25, 2021-09-20, custom)"
   width="706.46771"
   height="456.97122"
   xmlns:inkscape="http://www.inkscape.org/namespaces/inkscape"
   xmlns:sodipodi="http://sodipodi.sourceforge.net/DTD/sodipodi-0.dtd"
   xmlns="http://www.w3.org/2000/svg"
   xmlns:svg="http://www.w3.org/2000/svg"><defs
   id="defs46" />
<style
   type="text/css"
   id="style2">
	.st0{fill:#005E8A;}
	.st1{fill:#AAAAAA;}
</style>
<sodipodi:namedview
   bordercolor="#666666"
   borderopacity="1"
   gridtolerance="10"
   guidetolerance="10"
   id="namedview85"
   inkscape:current-layer="Logo"
   inkscape:cx="620.8752"
   inkscape:cy="750.266"
   inkscape:pageopacity="0"
   inkscape:pageshadow="2"
   inkscape:window-height="1107"
   inkscape:window-maximized="1"
   inkscape:window-width="1912"
   inkscape:window-x="1920"
   inkscape:window-y="0"
   inkscape:zoom="0.49848987"
   objecttolerance="10"
   pagecolor="#ffffff"
   showgrid="false"
   inkscape:pagecheckerboard="0"
   fit-margin-top="0"
   fit-margin-left="0"
   fit-margin-right="0"
   fit-margin-bottom="0">
	</sodipodi:namedview>

























<path
   id="path54"
   class="st0"
   d="M 285.51947,409.42767 V 305.29509 h 53.64851 c 9.93492,0 17.51489,0.8831 22.81351,2.57571 5.15143,1.61902 9.64054,5.00426 12.7314,9.49337 3.23805,4.63628 4.85707,10.22927 4.85707,16.85255 0,5.81376 -1.25106,10.74442 -3.6796,14.93916 -2.50212,4.19475 -5.96094,7.72716 -10.15568,10.15569 -2.7229,1.69261 -6.54969,3.01727 -11.33316,4.12114 3.82678,1.25107 6.62327,2.57572 8.38948,3.82679 1.17747,0.8831 2.87009,2.64931 5.15144,5.4458 1.69261,1.98698 3.23804,4.19475 4.48911,6.47609 l 15.60148,30.17269 h -36.42801 l -17.22051,-31.79171 c -2.20776,-4.12115 -4.12115,-6.77046 -5.81376,-8.02153 -2.28136,-1.61902 -5.07784,-2.42853 -7.87434,-2.42853 h -2.87008 v 42.24177 z m 32.38045,-61.9644 h 13.54091 c 1.47184,0 4.34193,-0.44155 8.53667,-1.39826 2.06057,-0.36795 3.97396,-1.54542 5.22503,-3.23804 1.32465,-1.69261 2.06057,-3.82677 2.06057,-6.03453 0,-3.38523 -1.03029,-5.96095 -3.16445,-7.72716 -2.13417,-1.7662 -6.10813,-2.72289 -11.99549,-2.72289 h -14.20324 z"
   style="stroke-width:0.735921;fill:#ffffff" />
<path
   id="path56"
   class="st0"
   d="m 387.4443,305.29509 h 28.92163 v 38.34139 c 3.90037,-4.04755 7.80074,-6.99123 11.70112,-8.75744 4.34192,-1.83979 9.0518,-2.7229 13.76169,-2.57571 7.87434,0 14.05606,2.35494 18.54514,7.13842 4.48911,4.78346 6.77045,12.06908 6.77045,22.00399 v 47.98193 h -29.06879 v -41.50585 c 0,-4.70988 -0.88309,-8.09511 -2.6493,-10.0821 -1.7662,-1.98697 -4.19474,-2.94367 -7.35919,-2.94367 -3.31164,-0.0736 -6.47609,1.39825 -8.53667,3.97397 -2.20776,2.6493 -3.23804,7.43278 -3.23804,14.27684 v 36.20722 H 387.37071 V 305.29509 Z"
   style="stroke-width:0.735921;fill:#ffffff" />





<path
   id="path68"
   class="st0"
   d="m 475.48425,333.99594 h 27.00825 v 11.03879 c 3.9004,-4.5627 7.80071,-7.87433 11.77467,-9.78772 3.97396,-1.91339 8.75745,-2.94368 14.35051,-2.87009 6.03444,0 10.81784,1.03029 14.27675,3.16445 3.67956,2.35495 6.69678,5.59299 8.61025,9.49336 4.56265,-4.93066 8.68381,-8.24229 12.43702,-10.08209 3.75321,-1.76621 8.31586,-2.64931 13.83524,-2.64931 8.09511,0 14.42404,2.42854 18.91314,7.21201 4.56275,4.78348 6.77043,12.28985 6.77043,22.51913 v 47.3932 h -28.99518 v -42.97768 c 0,-3.38523 -0.66234,-5.96095 -1.98702,-7.57997 -1.91339,-2.57572 -4.34191,-3.90038 -7.21193,-3.90038 -3.16451,-0.0735 -6.18173,1.25107 -8.24231,3.6796 -2.06058,2.42854 -3.09086,6.4025 -3.09086,11.8483 v 38.93013 H 524.938 v -41.50585 c 0,-3.31163 -0.22075,-5.59298 -0.5887,-6.77045 -0.58879,-1.8398 -1.69263,-3.45882 -3.16451,-4.5627 -1.54543,-1.17748 -3.45881,-1.76621 -5.37219,-1.76621 -3.16442,-0.0735 -6.18173,1.32465 -8.16866,3.75319 -2.13423,2.50213 -3.23807,6.62327 -3.23807,12.36344 v 38.48858 H 475.4107 Z"
   style="stroke-width:0.735921;fill:#ffffff" />


<path
   id="path74"
   class="st0"
   d="m 610.51975,305.29509 h 29.58397 v 53.72211 l 21.56241,-25.02126 h 35.54486 l -27.0818,26.4195 28.62724,49.01223 h -32.52764 l -15.30703,-30.24628 -10.89168,10.67083 v 19.57545 h -29.58397 z"
   style="stroke-width:0.735921;fill:#ffffff" />


<g
   id="g82"
   transform="matrix(1.0017166,0,0,1.0017166,-428.97806,-1.0136042)"
   style="fill:#ffffff"><path
     id="path78_2_"
     inkscape:connector-curvature="0"
     class="st0"
     d="M 477.42398,457.20001 C 516.37306,437.25857 586.8,353.6 615.7,301.5 c 0,0 -119.8,17.1 -183.4,1.3 -2.9,-0.7 -4.6,-3.7 -3.9,-6.5 0.2,-0.8 0.6,-1.6 1.2,-2.3 9.1,-10.2 28.2,-21.2 52.3,-31.1 v 0.2 c 1.7,9.2 4.3,25.2 48.1,14.8 l 65.7,-11.8 c 8.8,-1.6 16.1,-7.8 19.1,-16.2 l 4.6,-18.2 c 4.4,-0.2 8.8,-0.2 13,-0.1 L 664,107.1 c 13.7,-40.5 22.6,-52 38.3,-73.8 3.2,-4.4 5.4,-7.5 5.4,-7.5 1.3,-2.6 3,-4.8 5.1,-6.8 0.5,-0.4 0.8,-1 1.1,-1.5 7.9,-20 12.9,-16.2 12.9,-16.2 l -7.1,18.8 -17.3,48.7 v 0 c -7.2,27.5 -16.3,61.4 -18.9,127.4 l -0.8,37.9 c 0,0 65.9,14.6 338.7,-7.7 2.8,-0.2 5.2,-2.1 6.2,-4.7 l 34.7,-93.5 c 1.2,-0.4 -26.1,-12.3 -26.7,-14.9 -0.9,-4.5 26,-2.2 26,-2.2 l 36.1,11.3 16.3,-1.9 c 0.3,0 0.7,0.2 0.7,0.5 v 0.1 6.7 l 18.8,8.1 c -5.8,2.9 -12.6,3.6 -18.8,1.8 l 1.1,84 c 0,0.5 -0.3,0.9 -0.8,1.1 l -23.8,8.3 c -0.7,0.3 -1.5,0.4 -2.3,0.5 -3.3,0.4 -13.6,2.2 -18.3,9.6 -0.3,0.5 -0.8,0.8 -1.3,1 -1.5,0.4 -4.9,0.5 -9.9,-4.5 -0.4,-0.4 -0.9,-0.6 -1.4,-0.6 -18.3,1.3 -326.2,24.3 -374.9,46.4 0,0 -14,120.2 -48.1,173.7 H 529.8 Z"
     sodipodi:nodetypes="cccsccccccccccccccccscccccccccsccccccccccsccccc"
     style="fill:#ffffff" /></g><path
   id="path78_4_"
   inkscape:connector-curvature="0"
   class="st1"
   d="m 55.70158,262.51147 c 0,0.1 0,0.2 0,0.2 1.7,9.2 4.3,25.2 48.19997,14.8 l 65.8,-11.8 c 8.8,-1.6 16.1,-7.8 19.1,-16.2 l 4.6,-18.2 c -46.5,5 -92.09999,12.5 -137.69997,31.2 z"
   style="fill:#aaaaaa" /></svg>
