<?xml version="1.0" encoding="UTF-8" standalone="no"?>
<!-- Generator: Adobe Illustrator 25.4.1, SVG Export Plug-In . SVG Version: 6.00 Build 0)  -->

<svg
   version="1.1"
   id="Ebene_1"
   inkscape:version="1.2.2 (b0a8486541, 2022-12-01)"
   sodipodi:docname="logo-whatsapp.svg"
   x="0px"
   y="0px"
   viewBox="0 0 1499.9999 1500"
   xml:space="preserve"
   width="1500"
   height="1500"
   inkscape:export-filename="logo.jpg"
   inkscape:export-xdpi="128"
   inkscape:export-ydpi="128"
   xmlns:inkscape="http://www.inkscape.org/namespaces/inkscape"
   xmlns:sodipodi="http://sodipodi.sourceforge.net/DTD/sodipodi-0.dtd"
   xmlns="http://www.w3.org/2000/svg"
   xmlns:svg="http://www.w3.org/2000/svg"><defs
   id="defs46" />
<style
   type="text/css"
   id="style2">
	.st0{fill:#020203;}
	.st1{enable-background:new    ;}
	.st2{stroke:#000000;stroke-width:1.0032;stroke-miterlimit:4.013;}
</style>
<sodipodi:namedview
   bordercolor="#666666"
   borderopacity="1.0"
   fit-margin-bottom="0"
   fit-margin-left="0"
   fit-margin-right="0"
   fit-margin-top="0"
   id="namedview60"
   inkscape:current-layer="Ebene_1"
   inkscape:cx="900.98951"
   inkscape:cy="672.14393"
   inkscape:document-units="cm"
   inkscape:pagecheckerboard="0"
   inkscape:pageopacity="0"
   inkscape:pageshadow="2"
   inkscape:window-height="997"
   inkscape:window-maximized="1"
   inkscape:window-width="1920"
   inkscape:window-x="0"
   inkscape:window-y="0"
   inkscape:zoom="0.34739583"
   pagecolor="#d8e8f5"
   showgrid="false"
   units="cm"
   inkscape:showpageshadow="2"
   inkscape:deskcolor="#d1d1d1">
	</sodipodi:namedview>
<g
   id="g57"
   transform="translate(23.463396,356.8225)"
   style="fill:#005e8a;fill-opacity:1">
	<g
   id="g54"
   style="fill:#005e8a;fill-opacity:1">
		<g
   id="g18"
   style="fill:#005e8a;fill-opacity:1">
			<path
   id="path54_2_"
   class="st0"
   d="M 78.7,653.9 V 506 h 76.2 c 14.1,0 24.9,1.3 32.4,3.7 7.4,2.3 13.7,7.1 18.1,13.5 4.6,6.6 6.9,14.5 6.9,23.9 0,8.2 -1.8,15.3 -5.2,21.2 -3.5,5.9 -8.5,11 -14.4,14.4 -3.9,2.4 -9.3,4.3 -16.1,5.8 5.4,1.8 9.4,3.7 11.9,5.4 1.6,1.3 4,3.8 7.4,7.7 2.4,2.8 4.6,5.9 6.4,9.2 l 22.2,42.9 h -51.8 l -24.4,-45.2 c -3.1,-5.9 -5.9,-9.6 -8.2,-11.4 -3.2,-2.3 -7.2,-3.5 -11.2,-3.5 h -4 v 60 z m 45.9,-88 h 19.2 c 2.1,0 6.1,-0.6 12.1,-2 2.9,-0.5 5.6,-2.2 7.4,-4.6 1.9,-2.4 2.9,-5.4 2.9,-8.6 0,-4.8 -1.5,-8.5 -4.5,-10.9 -3,-2.4 -8.7,-3.9 -17,-3.9 h -20.2 v 30 z"
   style="fill:#005e8a;fill-opacity:1" />
			<path
   id="path56_2_"
   class="st0"
   d="m 223.5,506 h 41.1 v 54.5 c 5.5,-5.8 11.1,-9.9 16.6,-12.5 6.2,-2.6 12.8,-3.9 19.6,-3.7 11.2,0 20,3.4 26.3,10.1 6.4,6.8 9.6,17.2 9.6,31.3 v 68.2 h -41.3 v -59 c 0,-6.7 -1.3,-11.5 -3.8,-14.3 -2.5,-2.9 -5.9,-4.2 -10.4,-4.2 -4.7,-0.1 -9.2,2 -12.1,5.6 -3.2,3.8 -4.6,10.6 -4.6,20.2 v 51.5 h -41.1 z"
   style="fill:#005e8a;fill-opacity:1" />
			<path
   id="path58_2_"
   class="st0"
   d="m 467.7,610.5 h -82.4 c 0.8,6.6 2.5,11.5 5.3,14.8 3.9,4.6 9.5,7.1 15.6,6.9 4.1,0 7.9,-1 11.5,-3 2.8,-1.8 5.2,-4 7.2,-6.8 l 40.4,3.8 c -6.1,10.8 -13.7,18.5 -22.3,23.2 -8.8,4.7 -21.3,7 -37.6,7 -14.2,0 -25.3,-1.9 -33.5,-5.9 -8.2,-4 -14.8,-10.3 -20.2,-19.1 -5.3,-8.7 -8,-18.9 -8,-30.8 0,-16.7 5.3,-30.3 16.1,-40.6 10.8,-10.3 25.5,-15.6 44.4,-15.5 15.4,0 27.4,2.3 36.4,7 8.7,4.5 15.8,11.5 20.2,20.2 4.6,8.8 7,20.2 7,34.4 z m -41.8,-19.7 c -0.8,-7.9 -2.9,-13.6 -6.4,-17 -3.5,-3.4 -8,-5.1 -13.7,-5.1 -6.1,-0.2 -12.1,2.7 -15.7,7.7 -2.5,3.2 -4,8 -4.7,14.4 z"
   style="fill:#005e8a;fill-opacity:1" />
			<rect
   id="rect60_2_"
   x="475.39999"
   y="546.79999"
   class="st0"
   width="41.099998"
   height="107.2"
   style="fill:#005e8a;fill-opacity:1" />
			<path
   id="path62_2_"
   class="st0"
   d="m 530.2,546.8 h 38.2 v 17.5 c 5.8,-7.1 11.5,-12.2 17.3,-15.3 5.9,-3.1 13,-4.6 21.3,-4.6 11.4,0 20.2,3.4 26.6,10.1 6.4,6.8 9.6,17.2 9.6,31.3 V 654 H 602 v -59 c 0,-6.7 -1.3,-11.5 -3.8,-14.3 -2.5,-2.9 -5.9,-4.2 -10.4,-4.2 -4.7,-0.1 -9.2,2 -12.2,5.6 -3.1,3.8 -4.6,10.6 -4.6,20.2 v 51.5 h -40.9 z"
   style="fill:#005e8a;fill-opacity:1" />
			<path
   id="path64_2_"
   class="st0"
   d="M 774.4,610.5 H 692 c 0.8,6.6 2.5,11.5 5.3,14.8 3.9,4.6 9.5,7.1 15.6,6.9 4,0 7.9,-1 11.5,-3 2.8,-1.8 5.2,-4 7.1,-6.8 l 40.4,3.8 c -6.2,10.8 -13.7,18.5 -22.3,23.2 -8.7,4.7 -21.3,7 -37.7,7 -14.2,0 -25.3,-1.9 -33.4,-5.9 -8.2,-4 -14.8,-10.3 -20.2,-19.1 -5.3,-8.7 -8,-18.9 -8,-30.8 0,-16.7 5.3,-30.3 16.1,-40.6 10.8,-10.3 25.5,-15.6 44.4,-15.5 15.4,0 27.4,2.3 36.4,7 8.7,4.5 15.8,11.5 20.2,20.2 4.6,8.8 6.9,20.2 7,34.4 z m -41.7,-19.7 c -0.8,-7.9 -2.9,-13.6 -6.4,-17 -3.5,-3.4 -8,-5.1 -13.7,-5.1 -6.2,-0.2 -12.2,2.7 -15.7,7.7 -2.5,3.2 -4,8 -4.7,14.4 z"
   style="fill:#005e8a;fill-opacity:1" />
			<path
   id="path66_2_"
   class="st0"
   d="m 781,546.8 h 38.5 v 17.5 c 3.7,-7.6 7.5,-12.8 11.5,-15.7 4,-2.8 8.8,-4.3 14.5,-4.3 6.1,0 12.7,1.9 19.9,5.6 l -12.8,29.2 c -4.8,-2 -8.7,-3 -11.5,-3 -5.1,-0.2 -9.8,2.4 -12.5,6.7 -4.3,6.3 -6.4,18 -6.4,35.1 v 36 H 781 Z"
   style="fill:#005e8a;fill-opacity:1" />
			<path
   id="path68_2_"
   class="st0"
   d="m 870.4,546.8 h 38.4 v 15.7 c 5.5,-6.4 11.1,-11.2 16.7,-13.9 5.6,-2.7 12.4,-4.2 20.4,-4 8.5,0 15.4,1.5 20.2,4.5 5.2,3.4 9.5,7.9 12.2,13.5 6.4,-7 12.3,-11.7 17.7,-14.3 5.3,-2.5 11.9,-3.8 19.6,-3.8 11.5,0 20.5,3.5 26.8,10.3 6.5,6.8 9.6,17.5 9.6,32 v 67.3 h -41 V 593 c 0,-4.8 -1,-8.5 -2.9,-10.8 -2.7,-3.7 -6.1,-5.6 -10.3,-5.6 -4.5,-0.1 -8.8,1.8 -11.7,5.2 -2.9,3.5 -4.4,9.1 -4.4,16.8 V 654 h -41.2 v -59 c 0,-4.7 -0.3,-7.9 -0.8,-9.6 -0.8,-2.6 -2.4,-5 -4.5,-6.5 -2.2,-1.6 -5,-2.5 -7.6,-2.5 -4.5,-0.1 -8.8,1.9 -11.6,5.3 -3,3.5 -4.6,9.4 -4.6,17.5 v 54.7 h -41.2 z"
   style="fill:#005e8a;fill-opacity:1" />
			<path
   id="path70_2_"
   class="st0"
   d="m 1101.5,581.5 -39.2,-4.2 c 1.5,-6.8 3.5,-12.2 6.4,-16.2 3.2,-4.3 7.4,-7.7 12,-10.3 3.8,-2.1 9,-3.7 15.6,-4.8 7.1,-1.1 14.2,-1.8 21.4,-1.7 12.3,0 22.2,0.8 29.7,2.1 6.9,1.1 13.4,4.1 18.8,8.7 3.4,3 6.3,7.3 8.2,12.8 1.9,5.1 2.9,10.4 3,15.9 v 47.3 c -0.1,4 0.2,8 1,11.9 1,3.8 2.4,7.4 4.2,10.9 H 1144 c -1.1,-1.9 -2.2,-4 -3,-6.3 -0.6,-2.2 -1.1,-4.5 -1.3,-6.8 -4.6,4.7 -10.1,8.5 -16,11.1 -7.3,2.9 -15.7,4.4 -25.3,4.4 -12.8,0 -22.5,-2.9 -29.1,-8.8 -6.4,-5.4 -10.1,-13.5 -9.9,-21.8 0,-8.2 2.4,-14.8 7.2,-20.1 4.8,-5.3 13.6,-9.2 26.5,-11.7 15.4,-3.1 25.4,-5.2 30,-6.4 5,-1.3 9.8,-3 14.6,-5 0,-5 -1.1,-8.5 -3.1,-10.6 -2.1,-2 -5.8,-3 -11,-3.2 -6.7,0 -11.8,1.1 -15.1,3.2 -3.2,1.7 -5.3,4.9 -7,9.6 z m 35.6,21.5 c -5.6,1.9 -11.5,3.8 -17.7,5.3 -8.4,2.2 -13.7,4.4 -15.9,6.6 -4.3,4 -4.6,10.6 -0.6,14.9 0.2,0.2 0.5,0.4 0.6,0.6 2.3,2.1 5.6,3 9.9,3 4.5,0 8.9,-1.1 12.8,-3.4 3.5,-1.9 6.5,-4.7 8.4,-8.2 1.6,-3.2 2.5,-7.3 2.5,-12.4 z"
   style="fill:#005e8a;fill-opacity:1" />
			<path
   id="path72_2_"
   class="st0"
   d="m 1189.7,546.8 h 38.5 v 17.5 c 3.7,-7.6 7.5,-12.8 11.5,-15.7 4,-2.8 8.8,-4.3 14.5,-4.3 6.1,0 12.7,1.9 19.9,5.6 l -12.8,29.2 c -4.8,-2 -8.7,-3 -11.5,-3 -5.1,-0.2 -9.8,2.4 -12.5,6.7 -4.3,6.3 -6.4,18 -6.4,35.1 v 36 h -41.3 z"
   style="fill:#005e8a;fill-opacity:1" />
			<path
   id="path74_2_"
   class="st0"
   d="m 1275.3,506 h 42 v 76.3 l 30.6,-35.5 h 50.5 l -38.5,37.5 40.7,69.6 h -46.2 l -21.8,-43 -15.5,15.1 v 27.8 h -42 z"
   style="fill:#005e8a;fill-opacity:1" />
			<g
   id="g82_2_"
   transform="matrix(1.0017166,0,0,1.0017166,-98.77961,-1.0136042)"
   style="fill:#005e8a;fill-opacity:1">
				<path
   id="path78_9_"
   class="st0"
   d="m 614.3,531.2 h -40.1 c 0,0 16.2,-9.3 40.1,-30.6 z"
   style="fill:#005e8a;fill-opacity:1" />
				<path
   id="path78_8_"
   class="st0"
   d="m 628,487.7 c 26.6,-26 59.6,-64.9 89.8,-119.4 0,0 -125.2,17.8 -191.8,1.4 -3,-0.8 -4.8,-3.9 -4.1,-6.8 0.2,-0.8 0.6,-1.7 1.3,-2.4 9.5,-10.6 28.5,-21.3 53.7,-31.6 0,0.1 0,0 0,0 1.8,9.6 5.5,27.7 51.3,16.8 l 68.7,-12.3 c 9.2,-1.6 17.8,-10.2 20.9,-18.9 l 4.8,-19 c 4.6,-0.2 8.2,-0.2 12.6,-0.1 l 33.1,-130.2 c 14.3,-42.4 23.6,-54.4 40,-77.2 3.4,-4.6 5.6,-7.9 5.6,-7.9 1.4,-2.7 3.1,-5 5.3,-7.1 0.5,-0.5 0.8,-1.1 1.1,-1.6 8.2,-20.9 13.5,-16.9 13.5,-16.9 l -7.3,19.5 -18.1,51 v 0 c -7.5,28.7 -17,64.2 -19.7,133.2 l -0.8,39.6 c 0,0 68.9,15.3 354.1,-8 2.9,-0.2 5.4,-2.2 6.4,-4.9 l 36.3,-97.7 c 1.3,-0.4 -27.3,-12.8 -27.9,-15.6 -1,-4.7 27.2,-2.3 27.2,-2.3 l 37.7,11.8 17,-1.9 c 0.3,0 0.8,0.2 0.8,0.5 v 0.1 7 l 19.6,8.5 c -6.1,3 -13.2,3.8 -19.6,1.9 l 1.1,87.8 c 0,0.5 -0.3,1 -0.8,1.1 l -24.9,8.7 c -0.8,0.3 -1.6,0.5 -2.4,0.5 -3.4,0.5 -14.2,2.3 -19.1,10 -0.3,0.5 -0.8,0.8 -1.3,1 -1.6,0.5 -5.1,0.5 -10.3,-4.7 -0.5,-0.5 -1,-0.6 -1.5,-0.6 -19.1,1.4 -341,25.4 -391.9,48.5 0,0 -14.6,125.7 -50.3,181.6 H 628 Z"
   style="fill:#005e8a;fill-opacity:1" />
			</g>
		</g>
		<g
   id="g52"
   class="st1"
   style="fill:#005e8a;fill-opacity:1">
		</g>
	</g>
	<path
   id="path78_7_"
   class="st0"
   d="m 484.6,326.3 0.1,0.4 c 1.8,9.8 5.6,23 47.5,13.3 l 65.6,-12.8 c 8.9,-1.6 14.1,-5.8 17.1,-14.1 l 4.6,-18 c -46.1,5.1 -87.8,12.3 -134.9,31.2 z"
   style="fill:#005e8a;fill-opacity:1" />
</g>

</svg>
